<?xml version="1.0" encoding="UTF-8" standalone="no"?>
<!-- Created with Inkscape (http://www.inkscape.org/) -->

<svg
   version="1.1"
   id="svg18"
   width="616"
   height="357.44"
   viewBox="0 0 616 357.44"
   sodipodi:docname="architecture_bpj.svg"
   inkscape:version="1.2 (dc2aeda, 2022-05-15)"
   xmlns:inkscape="http://www.inkscape.org/namespaces/inkscape"
   xmlns:sodipodi="http://sodipodi.sourceforge.net/DTD/sodipodi-0.dtd"
   xmlns="http://www.w3.org/2000/svg"
   xmlns:svg="http://www.w3.org/2000/svg">
  <defs
     id="defs22">
    <clipPath
       clipPathUnits="userSpaceOnUse"
       id="clipPath34">
      <path
         d="M 0,0 H 1924.9999 V 1113.6858 H 0 Z"
         clip-rule="evenodd"
         id="path32" />
    </clipPath>
    <clipPath
       clipPathUnits="userSpaceOnUse"
       id="clipPath46">
      <path
         d="M 0,0 H 1924.9999 V 1113.6858 H 0 Z"
         clip-rule="evenodd"
         id="path44" />
    </clipPath>
  </defs>
  <sodipodi:namedview
     id="namedview20"
     pagecolor="#ffffff"
     bordercolor="#999999"
     borderopacity="1"
     inkscape:showpageshadow="0"
     inkscape:pageopacity="0"
     inkscape:pagecheckerboard="0"
     inkscape:deskcolor="#d1d1d1"
     showgrid="false"
     inkscape:zoom="0.66025066"
     inkscape:cx="308.21628"
     inkscape:cy="178.72"
     inkscape:window-width="1419"
     inkscape:window-height="456"
     inkscape:window-x="0"
     inkscape:window-y="38"
     inkscape:window-maximized="0"
     inkscape:current-layer="g26">
    <inkscape:page
       x="0"
       y="0"
       id="page24"
       width="616"
       height="357.44" />
  </sodipodi:namedview>
  <g
     id="g26"
     inkscape:groupmode="layer"
     inkscape:label="Page 1"
     transform="matrix(0.31999998,0,0,0.31999998,0,1.2269333e-5)">
    <g
       id="g28">
      <g
         id="g30"
         clip-path="url(#clipPath34)">
        <g
           id="g36"
           transform="scale(2.9937789)">
          <path
             d="M 0,0 H 643 V 372 H 0 Z"
             style="fill:#ffffff;fill-opacity:1;fill-rule:nonzero;stroke:none"
             id="path38" />
        </g>
      </g>
    </g>
    <g
       id="g40">
      <g
         id="g42"
         clip-path="url(#clipPath46)">
        <g
           id="g48"
           transform="matrix(2.9937789,0,0,2.9937789,1.4968895,1.4968895)">
          <path
             d="m 37,131 h 568 c 1.17908,1e-5 2.35529,0.0578 3.52863,0.17335 1.1734,0.11556 2.33831,0.28835 3.49462,0.51838 1.15638,0.23002 2.29871,0.51616 3.42695,0.85843 1.12829,0.34225 2.23706,0.73898 3.32629,1.19017 1.08935,0.45121 2.15393,0.95471 3.19372,1.51049 1.03986,0.5558 2.04993,1.16121 3.03022,1.81626 0.9804,0.65504 1.92627,1.35655 2.8377,2.10454 0.91144,0.74797 1.78394,1.53881 2.61762,2.37252 0.83374,0.83373 1.62463,1.70629 2.37262,2.61769 0.74798,0.91143 1.44946,1.8573 2.10443,2.83764 0.65503,0.98033 1.26044,1.99041 1.81622,3.03024 0.55579,1.03981 1.05927,2.10437 1.5105,3.19368 0.45123,1.08931 0.84802,2.19809 1.19025,3.32635 0.34228,1.12828 0.62842,2.27062 0.85846,3.42701 0.23004,1.1564 0.40289,2.32127 0.51843,3.49462 C 640.9422,164.64476 641,165.82097 641,167 v 168 c 0,1.17908 -0.0578,2.35529 -0.17334,3.52863 -0.11554,1.17337 -0.28839,2.33822 -0.51843,3.49459 -0.23004,1.15641 -0.51618,2.29871 -0.85846,3.42698 -0.34223,1.12829 -0.73902,2.23709 -1.19025,3.32635 -0.45123,1.08933 -0.95471,2.15387 -1.5105,3.1937 -0.55578,1.03982 -1.16119,2.04989 -1.81622,3.03021 -0.65497,0.98037 -1.35645,1.92627 -2.10443,2.83767 -0.74799,0.91141 -1.53888,1.78397 -2.37262,2.61768 -0.83368,0.83371 -1.70618,1.62457 -2.61762,2.37256 -0.91143,0.74795 -1.8573,1.44946 -2.8377,2.10449 -0.98029,0.65506 -1.99042,1.26047 -3.03028,1.81629 -1.03973,0.55578 -2.10431,1.05926 -3.19366,1.51046 -1.08923,0.45121 -2.198,0.84793 -3.32629,1.19019 -1.12824,0.34225 -2.27057,0.62842 -3.42695,0.85843 -1.15631,0.23004 -2.32122,0.40286 -3.49462,0.51843 C 607.35529,370.94223 606.17908,371 605,371 H 37 c -1.179043,0 -2.355251,-0.0578 -3.528618,-0.17334 -1.173366,-0.11557 -2.338245,-0.28839 -3.494636,-0.51843 -1.15639,-0.23001 -2.29872,-0.51618 -3.426995,-0.85843 -1.128275,-0.34226 -2.23706,-0.73898 -3.326357,-1.19019 -1.089294,-0.4512 -2.153854,-0.95468 -3.193678,-1.5105 -1.039823,-0.55578 -2.049905,-1.16119 -3.030244,-1.81625 -0.980339,-0.65503 -1.926215,-1.35654 -2.837629,-2.10449 -0.911414,-0.74799 -1.783976,-1.53885 -2.617687,-2.37256 -0.83371,-0.83371 -1.6245536,-1.70627 -2.3725318,-2.61768 -0.7479773,-0.9114 -1.4494877,-1.8573 -2.1045304,-2.83767 -0.6550416,-0.98032 -1.2604613,-1.99039 -1.8162589,-3.03021 -0.555798,-1.03983 -1.059297,-2.10437 -1.5104982,-3.1937 -0.4512008,-1.08926 -0.8479302,-2.19806 -1.1901889,-3.32635 -0.3422587,-1.12827 -0.628398,-2.27057 -0.858418,-3.42698 C 1.4617097,340.86685 1.2889163,339.702 1.1733497,338.52863 1.0577832,337.35529 1,336.17908 1,335 V 167 c 0,-1.17903 0.057783,-2.35524 0.1733499,-3.52863 0.1155666,-1.17335 0.2883598,-2.33822 0.5183799,-3.49462 0.23002,-1.15639 0.5161593,-2.29873 0.858418,-3.42701 0.3422587,-1.12826 0.7389881,-2.23704 1.1901889,-3.32635 0.4512012,-1.08931 0.9547002,-2.15387 1.5104978,-3.19368 0.555798,-1.03983 1.1612177,-2.04991 1.8162593,-3.03024 0.6550427,-0.98034 1.3565531,-1.92621 2.1045304,-2.83764 0.7479782,-0.9114 1.5388218,-1.78396 2.3725318,-2.61769 0.833711,-0.83371 1.706272,-1.62455 2.617686,-2.37252 0.911415,-0.74799 1.857291,-1.44951 2.83763,-2.10456 0.980339,-0.65503 1.990421,-1.26045 3.030244,-1.81625 1.039824,-0.55577 2.104384,-1.05927 3.193678,-1.51048 1.089297,-0.45119 2.198082,-0.84792 3.326357,-1.19019 1.128275,-0.34225 2.270605,-0.62839 3.426995,-0.85841 1.156391,-0.23003 2.32127,-0.40282 3.494636,-0.51838 C 34.644749,131.0578 35.820957,131.00001 37,131 Z"
             style="fill:#f8cecc;fill-opacity:1;fill-rule:nonzero;stroke:none"
             id="path50" />
          <path
             d="m 37,131 h 568 c 1.17908,1e-5 2.35529,0.0578 3.52863,0.17335 1.1734,0.11556 2.33831,0.28835 3.49462,0.51838 1.15638,0.23002 2.29871,0.51616 3.42695,0.85843 1.12829,0.34225 2.23706,0.73898 3.32629,1.19017 1.08935,0.45121 2.15393,0.95471 3.19372,1.51049 1.03986,0.5558 2.04993,1.16121 3.03022,1.81626 0.9804,0.65504 1.92627,1.35655 2.8377,2.10454 0.91144,0.74797 1.78394,1.53881 2.61762,2.37252 0.83374,0.83373 1.62463,1.70629 2.37262,2.61769 0.74798,0.91143 1.44946,1.8573 2.10443,2.83764 0.65503,0.98033 1.26044,1.99041 1.81622,3.03024 0.55579,1.03981 1.05927,2.10437 1.5105,3.19368 0.45123,1.08931 0.84802,2.19809 1.19025,3.32635 0.34228,1.12828 0.62842,2.27062 0.85846,3.42701 0.23004,1.1564 0.40289,2.32127 0.51843,3.49462 C 640.9422,164.64476 641,165.82097 641,167 v 168 c 0,1.17908 -0.0578,2.35529 -0.17334,3.52863 -0.11554,1.17337 -0.28839,2.33822 -0.51843,3.49459 -0.23004,1.15641 -0.51618,2.29871 -0.85846,3.42698 -0.34223,1.12829 -0.73902,2.23709 -1.19025,3.32635 -0.45123,1.08933 -0.95471,2.15387 -1.5105,3.1937 -0.55578,1.03982 -1.16119,2.04989 -1.81622,3.03021 -0.65497,0.98037 -1.35645,1.92627 -2.10443,2.83767 -0.74799,0.91141 -1.53888,1.78397 -2.37262,2.61768 -0.83368,0.83371 -1.70618,1.62457 -2.61762,2.37256 -0.91143,0.74795 -1.8573,1.44946 -2.8377,2.10449 -0.98029,0.65506 -1.99042,1.26047 -3.03028,1.81629 -1.03973,0.55578 -2.10431,1.05926 -3.19366,1.51046 -1.08923,0.45121 -2.198,0.84793 -3.32629,1.19019 -1.12824,0.34225 -2.27057,0.62842 -3.42695,0.85843 -1.15631,0.23004 -2.32122,0.40286 -3.49462,0.51843 C 607.35529,370.94223 606.17908,371 605,371 H 37 c -1.179043,0 -2.355251,-0.0578 -3.528618,-0.17334 -1.173366,-0.11557 -2.338245,-0.28839 -3.494636,-0.51843 -1.15639,-0.23001 -2.29872,-0.51618 -3.426995,-0.85843 -1.128275,-0.34226 -2.23706,-0.73898 -3.326357,-1.19019 -1.089294,-0.4512 -2.153854,-0.95468 -3.193678,-1.5105 -1.039823,-0.55578 -2.049905,-1.16119 -3.030244,-1.81625 -0.980339,-0.65503 -1.926215,-1.35654 -2.837629,-2.10449 -0.911414,-0.74799 -1.783976,-1.53885 -2.617687,-2.37256 -0.83371,-0.83371 -1.6245536,-1.70627 -2.3725318,-2.61768 -0.7479773,-0.9114 -1.4494877,-1.8573 -2.1045304,-2.83767 -0.6550416,-0.98032 -1.2604613,-1.99039 -1.8162589,-3.03021 -0.555798,-1.03983 -1.059297,-2.10437 -1.5104982,-3.1937 -0.4512008,-1.08926 -0.8479302,-2.19806 -1.1901889,-3.32635 -0.3422587,-1.12827 -0.628398,-2.27057 -0.858418,-3.42698 C 1.4617097,340.86685 1.2889163,339.702 1.1733497,338.52863 1.0577832,337.35529 1,336.17908 1,335 V 167 c 0,-1.17903 0.057783,-2.35524 0.1733499,-3.52863 0.1155666,-1.17335 0.2883598,-2.33822 0.5183799,-3.49462 0.23002,-1.15639 0.5161593,-2.29873 0.858418,-3.42701 0.3422587,-1.12826 0.7389881,-2.23704 1.1901889,-3.32635 0.4512012,-1.08931 0.9547002,-2.15387 1.5104978,-3.19368 0.555798,-1.03983 1.1612177,-2.04991 1.8162593,-3.03024 0.6550427,-0.98034 1.3565531,-1.92621 2.1045304,-2.83764 0.7479782,-0.9114 1.5388218,-1.78396 2.3725318,-2.61769 0.833711,-0.83371 1.706272,-1.62455 2.617686,-2.37252 0.911415,-0.74799 1.857291,-1.44951 2.83763,-2.10456 0.980339,-0.65503 1.990421,-1.26045 3.030244,-1.81625 1.039824,-0.55577 2.104384,-1.05927 3.193678,-1.51048 1.089297,-0.45119 2.198082,-0.84792 3.326357,-1.19019 1.128275,-0.34225 2.270605,-0.62839 3.426995,-0.85841 1.156391,-0.23003 2.32127,-0.40282 3.494636,-0.51838 C 34.644749,131.0578 35.820957,131.00001 37,131 Z"
             style="fill:none;stroke:#b85450;stroke-width:1;stroke-linecap:butt;stroke-linejoin:miter;stroke-miterlimit:10;stroke-dasharray:none;stroke-opacity:1"
             id="path52" />
        </g>
        <g
           id="g54"
           transform="scale(2.9937789)">
          <text
             xml:space="preserve"
             transform="translate(285.29688,361)"
             style="font-variant:normal;font-weight:normal;font-size:12px;font-family:Arial;-inkscape-font-specification:ArialMT;writing-mode:lr-tb;fill:#000000;fill-opacity:1;fill-rule:nonzero;stroke:none"
             id="text58"><tspan
               x="0 8.6660156 15.673828 22.681641 26.015625 32.689453 39.363281 45.363281 51.363281 58.037109 64.710938"
               y="0"
               sodipodi:role="line"
               id="tspan56">C++ backend</tspan></text>
        </g>
        <g
           id="g60"
           transform="matrix(2.9937789,0,0,2.9937789,1.4968895,1.4968895)">
          <path
             d="m 16,1 h 610 c 0.98492,0 1.96033,0.096074 2.92627,0.2882208 0.966,0.1921471 1.90393,0.4766758 2.8139,0.853586 0.90992,0.37691 1.77436,0.8389595 2.59327,1.3861485 0.81896,0.547189 1.57666,1.1690032 2.27307,1.8654425 0.69647,0.6964393 1.31829,1.4541216 1.86547,2.2730479 0.54719,0.8189268 1.00922,1.6833611 1.38611,2.5933033 0.37696,0.909941 0.6615,1.847907 0.85364,2.813896 C 640.90393,14.039634 641,15.015085 641,16 v 70 c 0,0.984909 -0.0961,1.960358 -0.28827,2.926346 -0.19214,0.96598 -0.47668,1.903946 -0.85364,2.813888 -0.37689,0.909943 -0.83899,1.774376 -1.38617,2.593308 -0.54718,0.818931 -1.16894,1.576614 -1.86541,2.273056 -0.69641,0.696434 -1.45411,1.318245 -2.27307,1.865433 -0.81891,0.547187 -1.68335,1.009239 -2.59327,1.386154 -0.90997,0.376915 -1.8479,0.661445 -2.8139,0.853595 C 627.96033,100.90392 626.98492,101 626,101 H 16 c -0.984915,0 -1.960367,-0.0961 -2.926356,-0.28822 -0.965989,-0.19215 -1.903955,-0.47668 -2.813896,-0.853595 C 9.3498058,99.48127 8.4853716,99.019218 7.6664457,98.472031 6.8475194,97.924843 6.0898371,97.303032 5.3933978,96.606598 4.6969585,95.910156 4.0751443,95.152473 3.5279553,94.333542 2.9807663,93.514618 2.5187168,92.650185 2.1418066,91.740242 1.7648964,90.830299 1.4803678,89.892334 1.2882206,88.926346 1.0960735,87.960358 0.99999994,86.984909 1,86 V 16 c -6e-8,-0.984915 0.096073,-1.960367 0.2882206,-2.926356 0.1921472,-0.965989 0.4766758,-1.903955 0.853586,-2.813896 C 2.5187168,9.3498058 2.9807663,8.4853716 3.5279553,7.6664457 4.0751443,6.8475194 4.6969585,6.0898371 5.3933978,5.3933978 6.0898371,4.6969585 6.8475194,4.0751443 7.6664457,3.5279553 8.4853725,2.9807663 9.3498068,2.5187168 10.259749,2.1418068 11.16969,1.7648966 12.107656,1.4803679 13.073645,1.2882208 14.039634,1.0960736 15.015085,1 16,1 Z"
             style="fill:#d5e8d4;fill-opacity:1;fill-rule:nonzero;stroke:none"
             id="path62" />
          <path
             d="m 16,1 h 610 c 0.98492,0 1.96033,0.096074 2.92627,0.2882208 0.966,0.1921471 1.90393,0.4766758 2.8139,0.853586 0.90992,0.37691 1.77436,0.8389595 2.59327,1.3861485 0.81896,0.547189 1.57666,1.1690032 2.27307,1.8654425 0.69647,0.6964393 1.31829,1.4541216 1.86547,2.2730479 0.54719,0.8189268 1.00922,1.6833611 1.38611,2.5933033 0.37696,0.909941 0.6615,1.847907 0.85364,2.813896 C 640.90393,14.039634 641,15.015085 641,16 v 70 c 0,0.984909 -0.0961,1.960358 -0.28827,2.926346 -0.19214,0.96598 -0.47668,1.903946 -0.85364,2.813888 -0.37689,0.909943 -0.83899,1.774376 -1.38617,2.593308 -0.54718,0.818931 -1.16894,1.576614 -1.86541,2.273056 -0.69641,0.696434 -1.45411,1.318245 -2.27307,1.865433 -0.81891,0.547187 -1.68335,1.009239 -2.59327,1.386154 -0.90997,0.376915 -1.8479,0.661445 -2.8139,0.853595 C 627.96033,100.90392 626.98492,101 626,101 H 16 c -0.984915,0 -1.960367,-0.0961 -2.926356,-0.28822 -0.965989,-0.19215 -1.903955,-0.47668 -2.813896,-0.853595 C 9.3498058,99.48127 8.4853716,99.019218 7.6664457,98.472031 6.8475194,97.924843 6.0898371,97.303032 5.3933978,96.606598 4.6969585,95.910156 4.0751443,95.152473 3.5279553,94.333542 2.9807663,93.514618 2.5187168,92.650185 2.1418066,91.740242 1.7648964,90.830299 1.4803678,89.892334 1.2882206,88.926346 1.0960735,87.960358 0.99999994,86.984909 1,86 V 16 c -6e-8,-0.984915 0.096073,-1.960367 0.2882206,-2.926356 0.1921472,-0.965989 0.4766758,-1.903955 0.853586,-2.813896 C 2.5187168,9.3498058 2.9807663,8.4853716 3.5279553,7.6664457 4.0751443,6.8475194 4.6969585,6.0898371 5.3933978,5.3933978 6.0898371,4.6969585 6.8475194,4.0751443 7.6664457,3.5279553 8.4853725,2.9807663 9.3498068,2.5187168 10.259749,2.1418068 11.16969,1.7648966 12.107656,1.4803679 13.073645,1.2882208 14.039634,1.0960736 15.015085,1 16,1 Z"
             style="fill:none;stroke:#82b366;stroke-width:1;stroke-linecap:butt;stroke-linejoin:miter;stroke-miterlimit:10;stroke-dasharray:none;stroke-opacity:1"
             id="path64" />
        </g>
        <g
           id="g66"
           transform="scale(2.9937789)">
          <text
             xml:space="preserve"
             transform="translate(302.3125,28)"
             style="font-variant:normal;font-weight:normal;font-size:12px;font-family:Arial;-inkscape-font-specification:ArialMT;writing-mode:lr-tb;fill:#000000;fill-opacity:1;fill-rule:nonzero;stroke:none"
             id="text70"><tspan
               x="0 8.0039062 14.003906 17.337891 24.011719 30.685547"
               y="0"
               sodipodi:role="line"
               id="tspan68">Python</tspan></text>
        </g>
        <g
           id="g72"
           transform="matrix(2.9937789,0,0,2.9937789,1.4968895,1.4968895)">
          <path
             d="m 151,51 h 20 -5 13.63"
             style="fill:none;stroke:#000000;stroke-width:1;stroke-linecap:butt;stroke-linejoin:miter;stroke-miterlimit:10;stroke-dasharray:none;stroke-opacity:1"
             id="path74" />
          <path
             d="m 184.88,51 -7,3.5 1.75,-3.5 -1.75,-3.5 z"
             style="fill:#000000;fill-opacity:1;fill-rule:nonzero;stroke:none"
             id="path76" />
          <path
             d="m 184.88,51 -7,3.5 1.75,-3.5 -1.75,-3.5 z"
             style="fill:none;stroke:#000000;stroke-width:1;stroke-linecap:butt;stroke-linejoin:miter;stroke-miterlimit:10;stroke-dasharray:none;stroke-opacity:1"
             id="path78" />
          <path
             d="m 37,31 h 108 c 0.39397,0 0.78413,0.03843 1.17053,0.115286 0.3864,0.07686 0.76158,0.19067 1.12555,0.341432 0.36397,0.150765 0.70975,0.335585 1.03732,0.554459 0.32758,0.218876 0.63065,0.467606 0.90923,0.746182 0.27858,0.278575 0.5273,0.581649 0.74617,0.909221 0.21889,0.327568 0.4037,0.67334 0.55447,1.037316 0.15076,0.363975 0.26458,0.739162 0.34143,1.12556 C 150.96156,36.215851 151,36.606033 151,37 v 28 c 0,0.393959 -0.0384,0.784142 -0.1153,1.170532 -0.0769,0.386399 -0.19067,0.761589 -0.34143,1.125565 -0.15077,0.363975 -0.33558,0.709747 -0.55447,1.037315 -0.21887,0.327568 -0.46759,0.630646 -0.74617,0.909226 -0.27858,0.278572 -0.58165,0.527298 -0.90923,0.746177 -0.32757,0.218872 -0.67335,0.403694 -1.03732,0.554459 -0.36397,0.150764 -0.73915,0.264572 -1.12555,0.341431 C 145.78413,70.961563 145.39397,70.999992 145,71 H 37 c -0.393967,-8e-6 -0.784149,-0.03844 -1.170544,-0.115295 -0.386398,-0.07686 -0.761585,-0.190667 -1.12556,-0.341431 C 34.33992,70.392509 33.994144,70.207687 33.666573,69.988815 33.339005,69.769936 33.035934,69.52121 32.757359,69.242638 32.478783,68.964058 32.230053,68.66098 32.011177,68.333412 31.792301,68.005844 31.607481,67.660072 31.456718,67.296097 31.305956,66.932121 31.192144,66.556931 31.115286,66.170532 31.038427,65.784142 30.999998,65.393959 31,65 V 37 c -2e-6,-0.393967 0.03843,-0.784149 0.115286,-1.170544 0.07686,-0.386398 0.19067,-0.761585 0.341432,-1.12556 0.150763,-0.363976 0.335583,-0.709752 0.554459,-1.037323 0.218876,-0.327568 0.467606,-0.630639 0.746182,-0.909214 0.278575,-0.278576 0.581649,-0.527302 0.909221,-0.746178 0.327568,-0.218878 0.67334,-0.403698 1.037316,-0.554463 0.363975,-0.150762 0.739162,-0.264574 1.12556,-0.34143 C 36.215851,31.038429 36.606033,31 37,31 Z"
             style="fill:#ffffff;fill-opacity:1;fill-rule:nonzero;stroke:none"
             id="path80" />
          <path
             d="m 37,31 h 108 c 0.39397,0 0.78413,0.03843 1.17053,0.115286 0.3864,0.07686 0.76158,0.19067 1.12555,0.341432 0.36397,0.150765 0.70975,0.335585 1.03732,0.554459 0.32758,0.218876 0.63065,0.467606 0.90923,0.746182 0.27858,0.278575 0.5273,0.581649 0.74617,0.909221 0.21889,0.327568 0.4037,0.67334 0.55447,1.037316 0.15076,0.363975 0.26458,0.739162 0.34143,1.12556 C 150.96156,36.215851 151,36.606033 151,37 v 28 c 0,0.393959 -0.0384,0.784142 -0.1153,1.170532 -0.0769,0.386399 -0.19067,0.761589 -0.34143,1.125565 -0.15077,0.363975 -0.33558,0.709747 -0.55447,1.037315 -0.21887,0.327568 -0.46759,0.630646 -0.74617,0.909226 -0.27858,0.278572 -0.58165,0.527298 -0.90923,0.746177 -0.32757,0.218872 -0.67335,0.403694 -1.03732,0.554459 -0.36397,0.150764 -0.73915,0.264572 -1.12555,0.341431 C 145.78413,70.961563 145.39397,70.999992 145,71 H 37 c -0.393967,-8e-6 -0.784149,-0.03844 -1.170544,-0.115295 -0.386398,-0.07686 -0.761585,-0.190667 -1.12556,-0.341431 C 34.33992,70.392509 33.994144,70.207687 33.666573,69.988815 33.339005,69.769936 33.035934,69.52121 32.757359,69.242638 32.478783,68.964058 32.230053,68.66098 32.011177,68.333412 31.792301,68.005844 31.607481,67.660072 31.456718,67.296097 31.305956,66.932121 31.192144,66.556931 31.115286,66.170532 31.038427,65.784142 30.999998,65.393959 31,65 V 37 c -2e-6,-0.393967 0.03843,-0.784149 0.115286,-1.170544 0.07686,-0.386398 0.19067,-0.761585 0.341432,-1.12556 0.150763,-0.363976 0.335583,-0.709752 0.554459,-1.037323 0.218876,-0.327568 0.467606,-0.630639 0.746182,-0.909214 0.278575,-0.278576 0.581649,-0.527302 0.909221,-0.746178 0.327568,-0.218878 0.67334,-0.403698 1.037316,-0.554463 0.363975,-0.150762 0.739162,-0.264574 1.12556,-0.34143 C 36.215851,31.038429 36.606033,31 37,31 Z"
             style="fill:none;stroke:#000000;stroke-width:1;stroke-linecap:butt;stroke-linejoin:miter;stroke-miterlimit:10;stroke-dasharray:none;stroke-opacity:1"
             id="path82" />
        </g>
        <g
           id="g84"
           transform="scale(2.9937789)">
          <text
             xml:space="preserve"
             transform="translate(65.984375,56)"
             style="font-variant:normal;font-weight:normal;font-size:12px;font-family:Arial;-inkscape-font-specification:ArialMT;writing-mode:lr-tb;fill:#000000;fill-opacity:1;fill-rule:nonzero;stroke:none"
             id="text88"><tspan
               x="0 8.6660156 11.332031 18.005859 24.005859 30.679688 34.013672 37.347656 44.021484"
               y="0"
               sodipodi:role="line"
               id="tspan86">Ripser.py</tspan></text>
        </g>
        <g
           id="g90"
           transform="matrix(2.9937789,0,0,2.9937789,1.4968895,1.4968895)">
          <path
             d="m 192,31 h 108 c 0.39395,0 0.78412,0.03843 1.1705,0.115286 0.38638,0.07686 0.76157,0.19067 1.12555,0.341432 0.36398,0.150765 0.70975,0.335585 1.03729,0.554459 0.32758,0.218876 0.63065,0.467606 0.90924,0.746182 0.27857,0.278575 0.52729,0.581649 0.74619,0.909221 0.21887,0.327568 0.40369,0.67334 0.55447,1.037316 0.15076,0.363975 0.26459,0.739162 0.34146,1.12556 C 305.9615,36.215851 305.99997,36.606033 306,37 v 28 c -3e-5,0.393959 -0.0385,0.784142 -0.1153,1.170532 -0.0769,0.386399 -0.1907,0.761589 -0.34146,1.125565 -0.15078,0.363975 -0.3356,0.709747 -0.55447,1.037315 -0.2189,0.327568 -0.46762,0.630646 -0.74619,0.909226 -0.27859,0.278572 -0.58166,0.527298 -0.90924,0.746177 -0.32754,0.218872 -0.67331,0.403694 -1.03729,0.554459 -0.36398,0.150764 -0.73917,0.264572 -1.12555,0.341431 C 300.78412,70.961563 300.39395,70.999992 300,71 H 192 c -0.39398,-8e-6 -0.78418,-0.03844 -1.17058,-0.115295 -0.3864,-0.07686 -0.76159,-0.190667 -1.12556,-0.341431 -0.36397,-0.150765 -0.70975,-0.335587 -1.03733,-0.554459 -0.32756,-0.218879 -0.63061,-0.467605 -0.90919,-0.746177 -0.27858,-0.27858 -0.5273,-0.581658 -0.74619,-0.909226 -0.21888,-0.327568 -0.4037,-0.67334 -0.55445,-1.037315 -0.15076,-0.363976 -0.26456,-0.739166 -0.34142,-1.125565 C 186.03842,65.784142 186,65.393959 186,65 V 37 c 0,-0.393967 0.0384,-0.784149 0.11528,-1.170544 0.0769,-0.386398 0.19066,-0.761585 0.34142,-1.12556 0.15075,-0.363976 0.33557,-0.709752 0.55445,-1.037323 0.21889,-0.327568 0.46761,-0.630639 0.74619,-0.909214 0.27858,-0.278576 0.58163,-0.527302 0.90919,-0.746178 0.3276,-0.218878 0.67337,-0.403698 1.03734,-0.554463 0.36397,-0.150762 0.73917,-0.264574 1.12557,-0.34143 C 191.21584,31.038429 191.60602,31 192,31 Z"
             style="fill:#ffffff;fill-opacity:1;fill-rule:nonzero;stroke:none"
             id="path92" />
          <path
             d="m 192,31 h 108 c 0.39395,0 0.78412,0.03843 1.1705,0.115286 0.38638,0.07686 0.76157,0.19067 1.12555,0.341432 0.36398,0.150765 0.70975,0.335585 1.03729,0.554459 0.32758,0.218876 0.63065,0.467606 0.90924,0.746182 0.27857,0.278575 0.52729,0.581649 0.74619,0.909221 0.21887,0.327568 0.40369,0.67334 0.55447,1.037316 0.15076,0.363975 0.26459,0.739162 0.34146,1.12556 C 305.9615,36.215851 305.99997,36.606033 306,37 v 28 c -3e-5,0.393959 -0.0385,0.784142 -0.1153,1.170532 -0.0769,0.386399 -0.1907,0.761589 -0.34146,1.125565 -0.15078,0.363975 -0.3356,0.709747 -0.55447,1.037315 -0.2189,0.327568 -0.46762,0.630646 -0.74619,0.909226 -0.27859,0.278572 -0.58166,0.527298 -0.90924,0.746177 -0.32754,0.218872 -0.67331,0.403694 -1.03729,0.554459 -0.36398,0.150764 -0.73917,0.264572 -1.12555,0.341431 C 300.78412,70.961563 300.39395,70.999992 300,71 H 192 c -0.39398,-8e-6 -0.78418,-0.03844 -1.17058,-0.115295 -0.3864,-0.07686 -0.76159,-0.190667 -1.12556,-0.341431 -0.36397,-0.150765 -0.70975,-0.335587 -1.03733,-0.554459 -0.32756,-0.218879 -0.63061,-0.467605 -0.90919,-0.746177 -0.27858,-0.27858 -0.5273,-0.581658 -0.74619,-0.909226 -0.21888,-0.327568 -0.4037,-0.67334 -0.55445,-1.037315 -0.15076,-0.363976 -0.26456,-0.739166 -0.34142,-1.125565 C 186.03842,65.784142 186,65.393959 186,65 V 37 c 0,-0.393967 0.0384,-0.784149 0.11528,-1.170544 0.0769,-0.386398 0.19066,-0.761585 0.34142,-1.12556 0.15075,-0.363976 0.33557,-0.709752 0.55445,-1.037323 0.21889,-0.327568 0.46761,-0.630639 0.74619,-0.909214 0.27858,-0.278576 0.58163,-0.527302 0.90919,-0.746178 0.3276,-0.218878 0.67337,-0.403698 1.03734,-0.554463 0.36397,-0.150762 0.73917,-0.264574 1.12557,-0.34143 C 191.21584,31.038429 191.60602,31 192,31 Z"
             style="fill:none;stroke:#000000;stroke-width:1;stroke-linecap:butt;stroke-linejoin:miter;stroke-miterlimit:10;stroke-dasharray:none;stroke-opacity:1"
             id="path94" />
        </g>
        <g
           id="g96"
           transform="scale(2.9937789)">
          <text
             xml:space="preserve"
             transform="translate(222.64063,56)"
             style="font-variant:normal;font-weight:normal;font-size:12px;font-family:Arial;-inkscape-font-specification:ArialMT;writing-mode:lr-tb;fill:#000000;fill-opacity:1;fill-rule:nonzero;stroke:none"
             id="text100"><tspan
               x="0 6.6738281 9.3398438 16.013672 19.347656 22.681641 29.355469 33.351562 40.025391"
               y="0"
               sodipodi:role="line"
               id="tspan98">giotto-ph</tspan></text>
        </g>
        <g
           id="g102"
           transform="matrix(2.9937789,0,0,2.9937789,1.4968895,1.4968895)">
          <path
             d="M 246,161 V 77.370003"
             style="fill:none;stroke:#000000;stroke-width:1;stroke-linecap:butt;stroke-linejoin:miter;stroke-miterlimit:10;stroke-dasharray:none;stroke-opacity:1"
             id="path104" />
          <path
             d="m 246,72.120003 3.5,7 -3.5,-1.75 -3.5,1.75 z"
             style="fill:#000000;fill-opacity:1;fill-rule:nonzero;stroke:none"
             id="path106" />
          <path
             d="m 246,72.120003 3.5,7 -3.5,-1.75 -3.5,1.75 z"
             style="fill:none;stroke:#000000;stroke-width:1;stroke-linecap:butt;stroke-linejoin:miter;stroke-miterlimit:10;stroke-dasharray:none;stroke-opacity:1"
             id="path108" />
          <path
             d="m 192,161 h 108 c 0.39395,0 0.78412,0.0384 1.1705,0.11528 0.38638,0.0769 0.76157,0.19067 1.12555,0.34143 0.36398,0.15077 0.70975,0.33559 1.03729,0.55446 0.32758,0.21886 0.63065,0.46759 0.90924,0.74617 0.27857,0.27856 0.52729,0.58163 0.74619,0.90921 0.21887,0.32756 0.40369,0.67334 0.55447,1.03732 0.15076,0.36399 0.26459,0.73918 0.34146,1.12558 0.0768,0.3864 0.11527,0.77658 0.1153,1.17055 v 28 c -3e-5,0.39395 -0.0385,0.78412 -0.1153,1.17052 -0.0769,0.3864 -0.1907,0.76158 -0.34146,1.12556 -0.15078,0.36398 -0.3356,0.70976 -0.55447,1.03732 -0.2189,0.32758 -0.46762,0.63067 -0.74619,0.90925 -0.27859,0.27857 -0.58166,0.52729 -0.90924,0.74617 -0.32754,0.21887 -0.67331,0.40368 -1.03729,0.55444 -0.36398,0.15077 -0.73917,0.26457 -1.12555,0.34143 -0.38638,0.0769 -0.77655,0.11529 -1.1705,0.11531 H 192 c -0.39398,-2e-5 -0.78418,-0.0385 -1.17058,-0.11531 -0.3864,-0.0769 -0.76159,-0.19066 -1.12556,-0.34143 -0.36397,-0.15076 -0.70975,-0.33557 -1.03733,-0.55446 -0.32756,-0.21886 -0.63061,-0.46758 -0.90919,-0.74615 -0.27858,-0.27858 -0.5273,-0.58167 -0.74619,-0.90923 -0.21888,-0.32758 -0.4037,-0.67336 -0.55445,-1.03734 -0.15076,-0.36398 -0.26456,-0.73916 -0.34142,-1.12555 C 186.03842,195.78413 186,195.39395 186,195 v -28 c 0,-0.39397 0.0384,-0.78415 0.11528,-1.17055 0.0769,-0.3864 0.19066,-0.76159 0.34142,-1.12558 0.15075,-0.36398 0.33557,-0.70976 0.55445,-1.03732 0.21889,-0.32758 0.46761,-0.63065 0.74619,-0.90921 0.27858,-0.27858 0.58163,-0.52731 0.90919,-0.74617 0.3276,-0.21887 0.67337,-0.40369 1.03734,-0.55446 0.36397,-0.15076 0.73917,-0.26457 1.12557,-0.34143 C 191.21584,161.03842 191.60602,161 192,161 Z"
             style="fill:#ffffff;fill-opacity:1;fill-rule:nonzero;stroke:none"
             id="path110" />
          <path
             d="m 192,161 h 108 c 0.39395,0 0.78412,0.0384 1.1705,0.11528 0.38638,0.0769 0.76157,0.19067 1.12555,0.34143 0.36398,0.15077 0.70975,0.33559 1.03729,0.55446 0.32758,0.21886 0.63065,0.46759 0.90924,0.74617 0.27857,0.27856 0.52729,0.58163 0.74619,0.90921 0.21887,0.32756 0.40369,0.67334 0.55447,1.03732 0.15076,0.36399 0.26459,0.73918 0.34146,1.12558 0.0768,0.3864 0.11527,0.77658 0.1153,1.17055 v 28 c -3e-5,0.39395 -0.0385,0.78412 -0.1153,1.17052 -0.0769,0.3864 -0.1907,0.76158 -0.34146,1.12556 -0.15078,0.36398 -0.3356,0.70976 -0.55447,1.03732 -0.2189,0.32758 -0.46762,0.63067 -0.74619,0.90925 -0.27859,0.27857 -0.58166,0.52729 -0.90924,0.74617 -0.32754,0.21887 -0.67331,0.40368 -1.03729,0.55444 -0.36398,0.15077 -0.73917,0.26457 -1.12555,0.34143 -0.38638,0.0769 -0.77655,0.11529 -1.1705,0.11531 H 192 c -0.39398,-2e-5 -0.78418,-0.0385 -1.17058,-0.11531 -0.3864,-0.0769 -0.76159,-0.19066 -1.12556,-0.34143 -0.36397,-0.15076 -0.70975,-0.33557 -1.03733,-0.55446 -0.32756,-0.21886 -0.63061,-0.46758 -0.90919,-0.74615 -0.27858,-0.27858 -0.5273,-0.58167 -0.74619,-0.90923 -0.21888,-0.32758 -0.4037,-0.67336 -0.55445,-1.03734 -0.15076,-0.36398 -0.26456,-0.73916 -0.34142,-1.12555 C 186.03842,195.78413 186,195.39395 186,195 v -28 c 0,-0.39397 0.0384,-0.78415 0.11528,-1.17055 0.0769,-0.3864 0.19066,-0.76159 0.34142,-1.12558 0.15075,-0.36398 0.33557,-0.70976 0.55445,-1.03732 0.21889,-0.32758 0.46761,-0.63065 0.74619,-0.90921 0.27858,-0.27858 0.58163,-0.52731 0.90919,-0.74617 0.3276,-0.21887 0.67337,-0.40369 1.03734,-0.55446 0.36397,-0.15076 0.73917,-0.26457 1.12557,-0.34143 C 191.21584,161.03842 191.60602,161 192,161 Z"
             style="fill:none;stroke:#000000;stroke-width:1;stroke-linecap:butt;stroke-linejoin:miter;stroke-miterlimit:10;stroke-dasharray:none;stroke-opacity:1"
             id="path112" />
        </g>
        <g
           id="g114"
           transform="scale(2.9937789)">
          <text
             xml:space="preserve"
             transform="translate(222.64063,186)"
             style="font-variant:normal;font-weight:normal;font-size:12px;font-family:Arial;-inkscape-font-specification:ArialMT;writing-mode:lr-tb;fill:#000000;fill-opacity:1;fill-rule:nonzero;stroke:none"
             id="text118"><tspan
               x="0 6.6738281 9.3398438 16.013672 19.347656 22.681641 29.355469 33.351562 40.025391"
               y="0"
               sodipodi:role="line"
               id="tspan116">giotto-ph</tspan></text>
        </g>
        <g
           id="g120"
           transform="matrix(2.9937789,0,0,2.9937789,1.4968895,1.4968895)">
          <path
             d="m 246,231 v -20 10 -13.63"
             style="fill:none;stroke:#000000;stroke-width:1;stroke-linecap:butt;stroke-linejoin:miter;stroke-miterlimit:10;stroke-dasharray:none;stroke-opacity:1"
             id="path122" />
          <path
             d="m 246,202.12 3.5,7 -3.5,-1.75 -3.5,1.75 z"
             style="fill:#000000;fill-opacity:1;fill-rule:nonzero;stroke:none"
             id="path124" />
          <path
             d="m 246,202.12 3.5,7 -3.5,-1.75 -3.5,1.75 z"
             style="fill:none;stroke:#000000;stroke-width:1;stroke-linecap:butt;stroke-linejoin:miter;stroke-miterlimit:10;stroke-dasharray:none;stroke-opacity:1"
             id="path126" />
          <path
             d="m 192,231 h 108 c 0.39395,0 0.78412,0.0384 1.1705,0.11528 0.38638,0.0769 0.76157,0.19067 1.12555,0.34143 0.36398,0.15077 0.70975,0.33559 1.03729,0.55446 0.32758,0.21887 0.63065,0.46761 0.90924,0.74618 0.27857,0.27858 0.52729,0.58165 0.74619,0.90921 0.21887,0.32757 0.40369,0.67334 0.55447,1.03731 0.15076,0.36399 0.26459,0.73918 0.34146,1.12558 0.0768,0.3864 0.11527,0.77658 0.1153,1.17055 v 28 c -3e-5,0.39395 -0.0385,0.78412 -0.1153,1.1705 -0.0769,0.38638 -0.1907,0.76157 -0.34146,1.12558 -0.15078,0.36398 -0.3356,0.70975 -0.55447,1.03732 -0.2189,0.32758 -0.46762,0.63065 -0.74619,0.90921 -0.27859,0.2786 -0.58166,0.52732 -0.90924,0.74616 -0.32754,0.21887 -0.67331,0.40369 -1.03729,0.55447 -0.36398,0.15079 -0.73917,0.26459 -1.12555,0.34143 -0.38638,0.0769 -0.77655,0.1153 -1.1705,0.11533 H 192 c -0.39398,-3e-5 -0.78418,-0.0385 -1.17058,-0.11533 -0.3864,-0.0768 -0.76159,-0.19064 -1.12556,-0.34143 -0.36397,-0.15078 -0.70975,-0.3356 -1.03733,-0.55447 -0.32756,-0.21884 -0.63061,-0.46756 -0.90919,-0.74616 -0.27858,-0.27856 -0.5273,-0.58163 -0.74619,-0.90921 -0.21888,-0.32757 -0.4037,-0.67334 -0.55445,-1.03732 -0.15076,-0.36401 -0.26456,-0.7392 -0.34142,-1.12558 C 186.03842,265.78412 186,265.39395 186,265 v -28 c 0,-0.39397 0.0384,-0.78415 0.11528,-1.17055 0.0769,-0.3864 0.19066,-0.76159 0.34142,-1.12559 0.15075,-0.36397 0.33557,-0.70975 0.55445,-1.03731 0.21889,-0.32756 0.46761,-0.63062 0.74619,-0.9092 0.27858,-0.27857 0.58163,-0.52731 0.90919,-0.7462 0.3276,-0.21885 0.67337,-0.40367 1.03734,-0.55444 0.36397,-0.15076 0.73917,-0.26457 1.12557,-0.34143 C 191.21584,231.03842 191.60602,231 192,231 Z"
             style="fill:#ffffff;fill-opacity:1;fill-rule:nonzero;stroke:none"
             id="path128" />
          <path
             d="m 192,231 h 108 c 0.39395,0 0.78412,0.0384 1.1705,0.11528 0.38638,0.0769 0.76157,0.19067 1.12555,0.34143 0.36398,0.15077 0.70975,0.33559 1.03729,0.55446 0.32758,0.21887 0.63065,0.46761 0.90924,0.74618 0.27857,0.27858 0.52729,0.58165 0.74619,0.90921 0.21887,0.32757 0.40369,0.67334 0.55447,1.03731 0.15076,0.36399 0.26459,0.73918 0.34146,1.12558 0.0768,0.3864 0.11527,0.77658 0.1153,1.17055 v 28 c -3e-5,0.39395 -0.0385,0.78412 -0.1153,1.1705 -0.0769,0.38638 -0.1907,0.76157 -0.34146,1.12558 -0.15078,0.36398 -0.3356,0.70975 -0.55447,1.03732 -0.2189,0.32758 -0.46762,0.63065 -0.74619,0.90921 -0.27859,0.2786 -0.58166,0.52732 -0.90924,0.74616 -0.32754,0.21887 -0.67331,0.40369 -1.03729,0.55447 -0.36398,0.15079 -0.73917,0.26459 -1.12555,0.34143 -0.38638,0.0769 -0.77655,0.1153 -1.1705,0.11533 H 192 c -0.39398,-3e-5 -0.78418,-0.0385 -1.17058,-0.11533 -0.3864,-0.0768 -0.76159,-0.19064 -1.12556,-0.34143 -0.36397,-0.15078 -0.70975,-0.3356 -1.03733,-0.55447 -0.32756,-0.21884 -0.63061,-0.46756 -0.90919,-0.74616 -0.27858,-0.27856 -0.5273,-0.58163 -0.74619,-0.90921 -0.21888,-0.32757 -0.4037,-0.67334 -0.55445,-1.03732 -0.15076,-0.36401 -0.26456,-0.7392 -0.34142,-1.12558 C 186.03842,265.78412 186,265.39395 186,265 v -28 c 0,-0.39397 0.0384,-0.78415 0.11528,-1.17055 0.0769,-0.3864 0.19066,-0.76159 0.34142,-1.12559 0.15075,-0.36397 0.33557,-0.70975 0.55445,-1.03731 0.21889,-0.32756 0.46761,-0.63062 0.74619,-0.9092 0.27858,-0.27857 0.58163,-0.52731 0.90919,-0.7462 0.3276,-0.21885 0.67337,-0.40367 1.03734,-0.55444 0.36397,-0.15076 0.73917,-0.26457 1.12557,-0.34143 C 191.21584,231.03842 191.60602,231 192,231 Z"
             style="fill:none;stroke:#000000;stroke-width:1;stroke-linecap:butt;stroke-linejoin:miter;stroke-miterlimit:10;stroke-dasharray:none;stroke-opacity:1"
             id="path130" />
        </g>
        <g
           id="g132"
           transform="scale(2.9937789)">
          <text
             xml:space="preserve"
             transform="translate(203.98438,256)"
             style="font-variant:normal;font-weight:normal;font-size:12px;font-family:Arial;-inkscape-font-specification:ArialMT;writing-mode:lr-tb;fill:#000000;fill-opacity:1;fill-rule:nonzero;stroke:none"
             id="text136"><tspan
               x="0 8.6660156 11.332031 18.005859 24.005859 30.679688 34.675781 38.009766 40.675781 47.349609 53.349609 59.349609 63.345703 66.679688 70.675781 77.349609"
               y="0"
               sodipodi:role="line"
               id="tspan134">Ripser lock-free</tspan></text>
        </g>
        <g
           id="g138"
           transform="matrix(2.9937789,0,0,2.9937789,1.4968895,1.4968895)">
          <path
             d="M 401,231 V 181 H 312.37"
             style="fill:none;stroke:#000000;stroke-width:1;stroke-linecap:butt;stroke-linejoin:miter;stroke-miterlimit:10;stroke-dasharray:none;stroke-opacity:1"
             id="path140" />
          <path
             d="m 307.12,181 7,-3.5 -1.75,3.5 1.75,3.5 z"
             style="fill:#000000;fill-opacity:1;fill-rule:nonzero;stroke:none"
             id="path142" />
          <path
             d="m 307.12,181 7,-3.5 -1.75,3.5 1.75,3.5 z"
             style="fill:none;stroke:#000000;stroke-width:1;stroke-linecap:butt;stroke-linejoin:miter;stroke-miterlimit:10;stroke-dasharray:none;stroke-opacity:1"
             id="path144" />
          <path
             d="m 347,231 h 108 c 0.39395,0 0.78412,0.0384 1.1705,0.11528 0.38638,0.0769 0.76154,0.19067 1.12552,0.34143 0.36398,0.15077 0.70975,0.33559 1.03729,0.55446 0.32761,0.21887 0.63068,0.46761 0.90927,0.74618 0.27857,0.27858 0.52729,0.58165 0.74616,0.90921 0.21887,0.32757 0.40369,0.67334 0.55447,1.03731 0.15076,0.36399 0.26459,0.73918 0.34146,1.12558 0.0769,0.3864 0.1153,0.77658 0.11533,1.17055 v 28 c -3e-5,0.39395 -0.0385,0.78412 -0.11533,1.1705 -0.0769,0.38638 -0.1907,0.76157 -0.34146,1.12558 -0.15078,0.36398 -0.3356,0.70975 -0.55447,1.03732 -0.21887,0.32758 -0.46759,0.63065 -0.74616,0.90921 -0.27859,0.2786 -0.58166,0.52732 -0.90927,0.74616 -0.32754,0.21887 -0.67331,0.40369 -1.03729,0.55447 -0.36398,0.15079 -0.73914,0.26459 -1.12552,0.34143 -0.38638,0.0769 -0.77655,0.1153 -1.1705,0.11533 H 347 c -0.39398,-3e-5 -0.78418,-0.0385 -1.17056,-0.11533 -0.38642,-0.0768 -0.7616,-0.19064 -1.12558,-0.34143 -0.36399,-0.15078 -0.70978,-0.3356 -1.03733,-0.55447 -0.32757,-0.21884 -0.63064,-0.46756 -0.90921,-0.74616 -0.27859,-0.27856 -0.52731,-0.58163 -0.74618,-0.90921 -0.2189,-0.32757 -0.40372,-0.67334 -0.55447,-1.03732 -0.15076,-0.36401 -0.26456,-0.7392 -0.34141,-1.12558 C 341.03839,265.78412 340.99997,265.39395 341,265 v -28 c -3e-5,-0.39397 0.0384,-0.78415 0.11526,-1.17055 0.0769,-0.3864 0.19065,-0.76159 0.34141,-1.12559 0.15075,-0.36397 0.33557,-0.70975 0.55447,-1.03731 0.21887,-0.32756 0.46759,-0.63062 0.74618,-0.9092 0.27857,-0.27857 0.58164,-0.52731 0.90921,-0.7462 0.32755,-0.21885 0.67334,-0.40367 1.03733,-0.55444 0.36398,-0.15076 0.73916,-0.26457 1.12558,-0.34143 C 346.21582,231.03842 346.60602,231 347,231 Z"
             style="fill:#ffffff;fill-opacity:1;fill-rule:nonzero;stroke:none"
             id="path146" />
          <path
             d="m 347,231 h 108 c 0.39395,0 0.78412,0.0384 1.1705,0.11528 0.38638,0.0769 0.76154,0.19067 1.12552,0.34143 0.36398,0.15077 0.70975,0.33559 1.03729,0.55446 0.32761,0.21887 0.63068,0.46761 0.90927,0.74618 0.27857,0.27858 0.52729,0.58165 0.74616,0.90921 0.21887,0.32757 0.40369,0.67334 0.55447,1.03731 0.15076,0.36399 0.26459,0.73918 0.34146,1.12558 0.0769,0.3864 0.1153,0.77658 0.11533,1.17055 v 28 c -3e-5,0.39395 -0.0385,0.78412 -0.11533,1.1705 -0.0769,0.38638 -0.1907,0.76157 -0.34146,1.12558 -0.15078,0.36398 -0.3356,0.70975 -0.55447,1.03732 -0.21887,0.32758 -0.46759,0.63065 -0.74616,0.90921 -0.27859,0.2786 -0.58166,0.52732 -0.90927,0.74616 -0.32754,0.21887 -0.67331,0.40369 -1.03729,0.55447 -0.36398,0.15079 -0.73914,0.26459 -1.12552,0.34143 -0.38638,0.0769 -0.77655,0.1153 -1.1705,0.11533 H 347 c -0.39398,-3e-5 -0.78418,-0.0385 -1.17056,-0.11533 -0.38642,-0.0768 -0.7616,-0.19064 -1.12558,-0.34143 -0.36399,-0.15078 -0.70978,-0.3356 -1.03733,-0.55447 -0.32757,-0.21884 -0.63064,-0.46756 -0.90921,-0.74616 -0.27859,-0.27856 -0.52731,-0.58163 -0.74618,-0.90921 -0.2189,-0.32757 -0.40372,-0.67334 -0.55447,-1.03732 -0.15076,-0.36401 -0.26456,-0.7392 -0.34141,-1.12558 C 341.03839,265.78412 340.99997,265.39395 341,265 v -28 c -3e-5,-0.39397 0.0384,-0.78415 0.11526,-1.17055 0.0769,-0.3864 0.19065,-0.76159 0.34141,-1.12559 0.15075,-0.36397 0.33557,-0.70975 0.55447,-1.03731 0.21887,-0.32756 0.46759,-0.63062 0.74618,-0.9092 0.27857,-0.27857 0.58164,-0.52731 0.90921,-0.7462 0.32755,-0.21885 0.67334,-0.40367 1.03733,-0.55444 0.36398,-0.15076 0.73916,-0.26457 1.12558,-0.34143 C 346.21582,231.03842 346.60602,231 347,231 Z"
             style="fill:none;stroke:#000000;stroke-width:1;stroke-linecap:butt;stroke-linejoin:miter;stroke-miterlimit:10;stroke-dasharray:none;stroke-opacity:1"
             id="path148" />
        </g>
        <g
           id="g150"
           transform="scale(2.9937789)">
          <text
             xml:space="preserve"
             transform="translate(370.64063,256)"
             style="font-variant:normal;font-weight:normal;font-size:12px;font-family:Arial;-inkscape-font-specification:ArialMT;writing-mode:lr-tb;fill:#000000;fill-opacity:1;fill-rule:nonzero;stroke:none"
             id="text154"><tspan
               x="0 8.6660156 11.332031 18.005859 24.005859 30.679688 34.675781 38.009766 44.009766 50.683594 54.017578"
               y="0"
               sodipodi:role="line"
               id="tspan152">Ripser v1.2</tspan></text>
        </g>
        <g
           id="g156"
           transform="matrix(2.9937789,0,0,2.9937789,1.4968895,1.4968895)">
          <path
             d="M 541,231 V 51 H 312.37"
             style="fill:none;stroke:#000000;stroke-width:1;stroke-linecap:butt;stroke-linejoin:miter;stroke-miterlimit:10;stroke-dasharray:none;stroke-opacity:1"
             id="path158" />
          <path
             d="m 307.12,51 7,-3.5 -1.75,3.5 1.75,3.5 z"
             style="fill:#000000;fill-opacity:1;fill-rule:nonzero;stroke:none"
             id="path160" />
          <path
             d="m 307.12,51 7,-3.5 -1.75,3.5 1.75,3.5 z"
             style="fill:none;stroke:#000000;stroke-width:1;stroke-linecap:butt;stroke-linejoin:miter;stroke-miterlimit:10;stroke-dasharray:none;stroke-opacity:1"
             id="path162" />
          <path
             d="M 541,301 V 277.37"
             style="fill:none;stroke:#000000;stroke-width:1;stroke-linecap:butt;stroke-linejoin:miter;stroke-miterlimit:10;stroke-dasharray:none;stroke-opacity:1"
             id="path164" />
          <path
             d="m 541,272.12 3.5,7 -3.5,-1.75 -3.5,1.75 z"
             style="fill:#000000;fill-opacity:1;fill-rule:nonzero;stroke:none"
             id="path166" />
          <path
             d="m 541,272.12 3.5,7 -3.5,-1.75 -3.5,1.75 z"
             style="fill:none;stroke:#000000;stroke-width:1;stroke-linecap:butt;stroke-linejoin:miter;stroke-miterlimit:10;stroke-dasharray:none;stroke-opacity:1"
             id="path168" />
          <path
             d="m 487,301 h 108 c 0.39398,0 0.78412,0.0384 1.17047,0.11526 0.38635,0.0769 0.76154,0.19068 1.12555,0.34144 0.36395,0.15078 0.70978,0.3356 1.03735,0.55444 0.32758,0.21887 0.63068,0.46759 0.90924,0.74618 0.27857,0.27857 0.52729,0.58164 0.74616,0.90918 0.21887,0.32758 0.40369,0.67337 0.55444,1.03736 0.15076,0.36398 0.26459,0.73919 0.34149,1.12558 0.0769,0.38641 0.11524,0.77661 0.1153,1.17056 v 28 c -6e-5,0.39398 -0.0385,0.78415 -0.1153,1.17053 -0.0769,0.38639 -0.19073,0.76154 -0.34149,1.12552 -0.15075,0.36398 -0.33557,0.70975 -0.55444,1.03732 -0.21887,0.32758 -0.46759,0.63065 -0.74616,0.90924 -0.27856,0.27857 -0.58166,0.52729 -0.90924,0.74616 -0.32757,0.21887 -0.6734,0.40369 -1.03735,0.55444 -0.36401,0.15079 -0.7392,0.26459 -1.12555,0.34146 -0.38635,0.0769 -0.77649,0.1153 -1.17047,0.11533 H 487 c -0.39401,-3e-5 -0.78421,-0.0385 -1.17059,-0.11533 -0.38642,-0.0769 -0.7616,-0.19067 -1.12558,-0.34146 -0.36399,-0.15075 -0.70975,-0.33557 -1.0373,-0.55444 -0.32757,-0.21887 -0.63064,-0.46759 -0.90921,-0.74616 -0.27859,-0.27859 -0.52731,-0.58166 -0.74618,-0.90924 -0.2189,-0.32757 -0.40372,-0.67334 -0.55447,-1.03732 -0.15076,-0.36398 -0.26456,-0.73913 -0.34144,-1.12552 C 481.03839,335.78415 480.99997,335.39398 481,335 v -28 c -3e-5,-0.39395 0.0384,-0.78415 0.11523,-1.17056 0.0769,-0.38639 0.19068,-0.7616 0.34144,-1.12558 0.15075,-0.36399 0.33557,-0.70978 0.55447,-1.03736 0.21887,-0.32754 0.46759,-0.63061 0.74618,-0.90918 0.27857,-0.27859 0.58164,-0.52731 0.90921,-0.74618 0.32755,-0.21884 0.67331,-0.40366 1.0373,-0.55444 0.36398,-0.15076 0.73916,-0.26456 1.12558,-0.34144 C 486.21579,301.03842 486.60599,301 487,301 Z"
             style="fill:#ffffff;fill-opacity:1;fill-rule:nonzero;stroke:none"
             id="path170" />
          <path
             d="m 487,301 h 108 c 0.39398,0 0.78412,0.0384 1.17047,0.11526 0.38635,0.0769 0.76154,0.19068 1.12555,0.34144 0.36395,0.15078 0.70978,0.3356 1.03735,0.55444 0.32758,0.21887 0.63068,0.46759 0.90924,0.74618 0.27857,0.27857 0.52729,0.58164 0.74616,0.90918 0.21887,0.32758 0.40369,0.67337 0.55444,1.03736 0.15076,0.36398 0.26459,0.73919 0.34149,1.12558 0.0769,0.38641 0.11524,0.77661 0.1153,1.17056 v 28 c -6e-5,0.39398 -0.0385,0.78415 -0.1153,1.17053 -0.0769,0.38639 -0.19073,0.76154 -0.34149,1.12552 -0.15075,0.36398 -0.33557,0.70975 -0.55444,1.03732 -0.21887,0.32758 -0.46759,0.63065 -0.74616,0.90924 -0.27856,0.27857 -0.58166,0.52729 -0.90924,0.74616 -0.32757,0.21887 -0.6734,0.40369 -1.03735,0.55444 -0.36401,0.15079 -0.7392,0.26459 -1.12555,0.34146 -0.38635,0.0769 -0.77649,0.1153 -1.17047,0.11533 H 487 c -0.39401,-3e-5 -0.78421,-0.0385 -1.17059,-0.11533 -0.38642,-0.0769 -0.7616,-0.19067 -1.12558,-0.34146 -0.36399,-0.15075 -0.70975,-0.33557 -1.0373,-0.55444 -0.32757,-0.21887 -0.63064,-0.46759 -0.90921,-0.74616 -0.27859,-0.27859 -0.52731,-0.58166 -0.74618,-0.90924 -0.2189,-0.32757 -0.40372,-0.67334 -0.55447,-1.03732 -0.15076,-0.36398 -0.26456,-0.73913 -0.34144,-1.12552 C 481.03839,335.78415 480.99997,335.39398 481,335 v -28 c -3e-5,-0.39395 0.0384,-0.78415 0.11523,-1.17056 0.0769,-0.38639 0.19068,-0.7616 0.34144,-1.12558 0.15075,-0.36399 0.33557,-0.70978 0.55447,-1.03736 0.21887,-0.32754 0.46759,-0.63061 0.74618,-0.90918 0.27857,-0.27859 0.58164,-0.52731 0.90921,-0.74618 0.32755,-0.21884 0.67331,-0.40366 1.0373,-0.55444 0.36398,-0.15076 0.73916,-0.26456 1.12558,-0.34144 C 486.21579,301.03842 486.60599,301 487,301 Z"
             style="fill:none;stroke:#000000;stroke-width:1;stroke-linecap:butt;stroke-linejoin:miter;stroke-miterlimit:10;stroke-dasharray:none;stroke-opacity:1"
             id="path172" />
        </g>
        <g
           id="g174"
           transform="scale(2.9937789)">
          <text
             xml:space="preserve"
             transform="translate(511.65625,326)"
             style="font-variant:normal;font-weight:normal;font-size:12px;font-family:Arial;-inkscape-font-specification:ArialMT;writing-mode:lr-tb;fill:#000000;fill-opacity:1;fill-rule:nonzero;stroke:none"
             id="text178"><tspan
               x="0 9.3339844 18 26.666016 35.332031 38.666016 42 50.003906"
               y="0"
               sodipodi:role="line"
               id="tspan176">GUDHI EC</tspan></text>
        </g>
        <g
           id="g180"
           transform="matrix(2.9937789,0,0,2.9937789,1.4968895,1.4968895)">
          <path
             d="m 401,301 v -20 10 -13.63"
             style="fill:none;stroke:#000000;stroke-width:1;stroke-linecap:butt;stroke-linejoin:miter;stroke-miterlimit:10;stroke-dasharray:none;stroke-opacity:1"
             id="path182" />
          <path
             d="m 401,272.12 3.5,7 -3.5,-1.75 -3.5,1.75 z"
             style="fill:#000000;fill-opacity:1;fill-rule:nonzero;stroke:none"
             id="path184" />
          <path
             d="m 401,272.12 3.5,7 -3.5,-1.75 -3.5,1.75 z"
             style="fill:none;stroke:#000000;stroke-width:1;stroke-linecap:butt;stroke-linejoin:miter;stroke-miterlimit:10;stroke-dasharray:none;stroke-opacity:1"
             id="path186" />
          <path
             d="M 341,321 H 91 V 77.370003"
             style="fill:none;stroke:#000000;stroke-width:1;stroke-linecap:butt;stroke-linejoin:miter;stroke-miterlimit:10;stroke-dasharray:none;stroke-opacity:1"
             id="path188" />
          <path
             d="m 91,72.120003 3.5,7 -3.5,-1.75 -3.5,1.75 z"
             style="fill:#000000;fill-opacity:1;fill-rule:nonzero;stroke:none"
             id="path190" />
          <path
             d="m 91,72.120003 3.5,7 -3.5,-1.75 -3.5,1.75 z"
             style="fill:none;stroke:#000000;stroke-width:1;stroke-linecap:butt;stroke-linejoin:miter;stroke-miterlimit:10;stroke-dasharray:none;stroke-opacity:1"
             id="path192" />
          <path
             d="M 341,321 H 246 V 277.37"
             style="fill:none;stroke:#000000;stroke-width:1;stroke-linecap:butt;stroke-linejoin:miter;stroke-miterlimit:10;stroke-dasharray:none;stroke-opacity:1"
             id="path194" />
          <path
             d="m 246,272.12 3.5,7 -3.5,-1.75 -3.5,1.75 z"
             style="fill:#000000;fill-opacity:1;fill-rule:nonzero;stroke:none"
             id="path196" />
          <path
             d="m 246,272.12 3.5,7 -3.5,-1.75 -3.5,1.75 z"
             style="fill:none;stroke:#000000;stroke-width:1;stroke-linecap:butt;stroke-linejoin:miter;stroke-miterlimit:10;stroke-dasharray:none;stroke-opacity:1"
             id="path198" />
          <path
             d="m 347,301 h 108 c 0.39395,0 0.78412,0.0384 1.1705,0.11526 0.38638,0.0769 0.76154,0.19068 1.12552,0.34144 0.36398,0.15078 0.70975,0.3356 1.03729,0.55444 0.32761,0.21887 0.63068,0.46759 0.90927,0.74618 0.27857,0.27857 0.52729,0.58164 0.74616,0.90918 0.21887,0.32758 0.40369,0.67337 0.55447,1.03736 0.15076,0.36398 0.26459,0.73919 0.34146,1.12558 0.0769,0.38641 0.1153,0.77661 0.11533,1.17056 v 28 c -3e-5,0.39398 -0.0385,0.78415 -0.11533,1.17053 -0.0769,0.38639 -0.1907,0.76154 -0.34146,1.12552 -0.15078,0.36398 -0.3356,0.70975 -0.55447,1.03732 -0.21887,0.32758 -0.46759,0.63065 -0.74616,0.90924 -0.27859,0.27857 -0.58166,0.52729 -0.90927,0.74616 -0.32754,0.21887 -0.67331,0.40369 -1.03729,0.55444 -0.36398,0.15079 -0.73914,0.26459 -1.12552,0.34146 -0.38638,0.0769 -0.77655,0.1153 -1.1705,0.11533 H 347 c -0.39398,-3e-5 -0.78418,-0.0385 -1.17056,-0.11533 -0.38642,-0.0769 -0.7616,-0.19067 -1.12558,-0.34146 -0.36399,-0.15075 -0.70978,-0.33557 -1.03733,-0.55444 -0.32757,-0.21887 -0.63064,-0.46759 -0.90921,-0.74616 -0.27859,-0.27859 -0.52731,-0.58166 -0.74618,-0.90924 -0.2189,-0.32757 -0.40372,-0.67334 -0.55447,-1.03732 -0.15076,-0.36398 -0.26456,-0.73913 -0.34141,-1.12552 C 341.03839,335.78415 340.99997,335.39398 341,335 v -28 c -3e-5,-0.39395 0.0384,-0.78415 0.11526,-1.17056 0.0769,-0.38639 0.19065,-0.7616 0.34141,-1.12558 0.15075,-0.36399 0.33557,-0.70978 0.55447,-1.03736 0.21887,-0.32754 0.46759,-0.63061 0.74618,-0.90918 0.27857,-0.27859 0.58164,-0.52731 0.90921,-0.74618 0.32755,-0.21884 0.67334,-0.40366 1.03733,-0.55444 0.36398,-0.15076 0.73916,-0.26456 1.12558,-0.34144 C 346.21582,301.03842 346.60602,301 347,301 Z"
             style="fill:#ffffff;fill-opacity:1;fill-rule:nonzero;stroke:none"
             id="path200" />
          <path
             d="m 347,301 h 108 c 0.39395,0 0.78412,0.0384 1.1705,0.11526 0.38638,0.0769 0.76154,0.19068 1.12552,0.34144 0.36398,0.15078 0.70975,0.3356 1.03729,0.55444 0.32761,0.21887 0.63068,0.46759 0.90927,0.74618 0.27857,0.27857 0.52729,0.58164 0.74616,0.90918 0.21887,0.32758 0.40369,0.67337 0.55447,1.03736 0.15076,0.36398 0.26459,0.73919 0.34146,1.12558 0.0769,0.38641 0.1153,0.77661 0.11533,1.17056 v 28 c -3e-5,0.39398 -0.0385,0.78415 -0.11533,1.17053 -0.0769,0.38639 -0.1907,0.76154 -0.34146,1.12552 -0.15078,0.36398 -0.3356,0.70975 -0.55447,1.03732 -0.21887,0.32758 -0.46759,0.63065 -0.74616,0.90924 -0.27859,0.27857 -0.58166,0.52729 -0.90927,0.74616 -0.32754,0.21887 -0.67331,0.40369 -1.03729,0.55444 -0.36398,0.15079 -0.73914,0.26459 -1.12552,0.34146 -0.38638,0.0769 -0.77655,0.1153 -1.1705,0.11533 H 347 c -0.39398,-3e-5 -0.78418,-0.0385 -1.17056,-0.11533 -0.38642,-0.0769 -0.7616,-0.19067 -1.12558,-0.34146 -0.36399,-0.15075 -0.70978,-0.33557 -1.03733,-0.55444 -0.32757,-0.21887 -0.63064,-0.46759 -0.90921,-0.74616 -0.27859,-0.27859 -0.52731,-0.58166 -0.74618,-0.90924 -0.2189,-0.32757 -0.40372,-0.67334 -0.55447,-1.03732 -0.15076,-0.36398 -0.26456,-0.73913 -0.34141,-1.12552 C 341.03839,335.78415 340.99997,335.39398 341,335 v -28 c -3e-5,-0.39395 0.0384,-0.78415 0.11526,-1.17056 0.0769,-0.38639 0.19065,-0.7616 0.34141,-1.12558 0.15075,-0.36399 0.33557,-0.70978 0.55447,-1.03736 0.21887,-0.32754 0.46759,-0.63061 0.74618,-0.90918 0.27857,-0.27859 0.58164,-0.52731 0.90921,-0.74618 0.32755,-0.21884 0.67334,-0.40366 1.03733,-0.55444 0.36398,-0.15076 0.73916,-0.26456 1.12558,-0.34144 C 346.21582,301.03842 346.60602,301 347,301 Z"
             style="fill:none;stroke:#000000;stroke-width:1;stroke-linecap:butt;stroke-linejoin:miter;stroke-miterlimit:10;stroke-dasharray:none;stroke-opacity:1"
             id="path202" />
        </g>
        <g
           id="g204"
           transform="scale(2.9937789)">
          <text
             xml:space="preserve"
             transform="translate(370.64063,326)"
             style="font-variant:normal;font-weight:normal;font-size:12px;font-family:Arial;-inkscape-font-specification:ArialMT;writing-mode:lr-tb;fill:#000000;fill-opacity:1;fill-rule:nonzero;stroke:none"
             id="text208"><tspan
               x="0 8.6660156 11.332031 18.005859 24.005859 30.679688 34.675781 38.009766 44.009766 50.683594 54.017578"
               y="0"
               sodipodi:role="line"
               id="tspan206">Ripser v1.1</tspan></text>
        </g>
        <g
           id="g210"
           transform="matrix(2.9937789,0,0,2.9937789,1.4968895,1.4968895)">
          <path
             d="m 487,231 h 108 c 0.39398,0 0.78412,0.0384 1.17047,0.11528 0.38635,0.0769 0.76154,0.19067 1.12555,0.34143 0.36395,0.15077 0.70978,0.33559 1.03735,0.55446 0.32758,0.21887 0.63068,0.46761 0.90924,0.74618 0.27857,0.27858 0.52729,0.58165 0.74616,0.90921 0.21887,0.32757 0.40369,0.67334 0.55444,1.03731 0.15076,0.36399 0.26459,0.73918 0.34149,1.12558 0.0769,0.3864 0.11524,0.77658 0.1153,1.17055 v 28 c -6e-5,0.39395 -0.0385,0.78412 -0.1153,1.1705 -0.0769,0.38638 -0.19073,0.76157 -0.34149,1.12558 -0.15075,0.36398 -0.33557,0.70975 -0.55444,1.03732 -0.21887,0.32758 -0.46759,0.63065 -0.74616,0.90921 -0.27856,0.2786 -0.58166,0.52732 -0.90924,0.74616 -0.32757,0.21887 -0.6734,0.40369 -1.03735,0.55447 -0.36401,0.15079 -0.7392,0.26459 -1.12555,0.34143 -0.38635,0.0769 -0.77649,0.1153 -1.17047,0.11533 H 487 c -0.39401,-3e-5 -0.78421,-0.0385 -1.17059,-0.11533 -0.38642,-0.0768 -0.7616,-0.19064 -1.12558,-0.34143 -0.36399,-0.15078 -0.70975,-0.3356 -1.0373,-0.55447 -0.32757,-0.21884 -0.63064,-0.46756 -0.90921,-0.74616 -0.27859,-0.27856 -0.52731,-0.58163 -0.74618,-0.90921 -0.2189,-0.32757 -0.40372,-0.67334 -0.55447,-1.03732 -0.15076,-0.36401 -0.26456,-0.7392 -0.34144,-1.12558 C 481.03839,265.78412 480.99997,265.39395 481,265 v -28 c -3e-5,-0.39397 0.0384,-0.78415 0.11523,-1.17055 0.0769,-0.3864 0.19068,-0.76159 0.34144,-1.12559 0.15075,-0.36397 0.33557,-0.70975 0.55447,-1.03731 0.21887,-0.32756 0.46759,-0.63062 0.74618,-0.9092 0.27857,-0.27857 0.58164,-0.52731 0.90921,-0.7462 0.32755,-0.21885 0.67331,-0.40367 1.0373,-0.55444 0.36398,-0.15076 0.73916,-0.26457 1.12558,-0.34143 C 486.21579,231.03842 486.60599,231 487,231 Z"
             style="fill:#ffffff;fill-opacity:1;fill-rule:nonzero;stroke:none"
             id="path212" />
          <path
             d="m 487,231 h 108 c 0.39398,0 0.78412,0.0384 1.17047,0.11528 0.38635,0.0769 0.76154,0.19067 1.12555,0.34143 0.36395,0.15077 0.70978,0.33559 1.03735,0.55446 0.32758,0.21887 0.63068,0.46761 0.90924,0.74618 0.27857,0.27858 0.52729,0.58165 0.74616,0.90921 0.21887,0.32757 0.40369,0.67334 0.55444,1.03731 0.15076,0.36399 0.26459,0.73918 0.34149,1.12558 0.0769,0.3864 0.11524,0.77658 0.1153,1.17055 v 28 c -6e-5,0.39395 -0.0385,0.78412 -0.1153,1.1705 -0.0769,0.38638 -0.19073,0.76157 -0.34149,1.12558 -0.15075,0.36398 -0.33557,0.70975 -0.55444,1.03732 -0.21887,0.32758 -0.46759,0.63065 -0.74616,0.90921 -0.27856,0.2786 -0.58166,0.52732 -0.90924,0.74616 -0.32757,0.21887 -0.6734,0.40369 -1.03735,0.55447 -0.36401,0.15079 -0.7392,0.26459 -1.12555,0.34143 -0.38635,0.0769 -0.77649,0.1153 -1.17047,0.11533 H 487 c -0.39401,-3e-5 -0.78421,-0.0385 -1.17059,-0.11533 -0.38642,-0.0768 -0.7616,-0.19064 -1.12558,-0.34143 -0.36399,-0.15078 -0.70975,-0.3356 -1.0373,-0.55447 -0.32757,-0.21884 -0.63064,-0.46756 -0.90921,-0.74616 -0.27859,-0.27856 -0.52731,-0.58163 -0.74618,-0.90921 -0.2189,-0.32757 -0.40372,-0.67334 -0.55447,-1.03732 -0.15076,-0.36401 -0.26456,-0.7392 -0.34144,-1.12558 C 481.03839,265.78412 480.99997,265.39395 481,265 v -28 c -3e-5,-0.39397 0.0384,-0.78415 0.11523,-1.17055 0.0769,-0.3864 0.19068,-0.76159 0.34144,-1.12559 0.15075,-0.36397 0.33557,-0.70975 0.55447,-1.03731 0.21887,-0.32756 0.46759,-0.63062 0.74618,-0.9092 0.27857,-0.27857 0.58164,-0.52731 0.90921,-0.7462 0.32755,-0.21885 0.67331,-0.40367 1.0373,-0.55444 0.36398,-0.15076 0.73916,-0.26457 1.12558,-0.34143 C 486.21579,231.03842 486.60599,231 487,231 Z"
             style="fill:none;stroke:#000000;stroke-width:1;stroke-linecap:butt;stroke-linejoin:miter;stroke-miterlimit:10;stroke-dasharray:none;stroke-opacity:1"
             id="path214" />
        </g>
        <g
           id="g216"
           transform="scale(2.9937789)">
          <text
             xml:space="preserve"
             transform="translate(507.64063,256)"
             style="font-variant:normal;font-weight:normal;font-size:12px;font-family:Arial;-inkscape-font-specification:ArialMT;writing-mode:lr-tb;fill:#000000;fill-opacity:1;fill-rule:nonzero;stroke:none"
             id="text220"><tspan
               x="0 6.6738281 9.3398438 16.013672 19.347656 22.681641 29.355469 33.351562 40.025391 46.699219 50.033203 58.037109"
               y="0"
               sodipodi:role="line"
               id="tspan218">giotto-ph EC</tspan></text>
        </g>
      </g>
    </g>
  </g>
</svg>
