<?xml version="1.0" encoding="utf-8" standalone="no"?>
<!DOCTYPE svg PUBLIC "-//W3C//DTD SVG 1.1//EN"
  "http://www.w3.org/Graphics/SVG/1.1/DTD/svg11.dtd">
<!-- Created with matplotlib (https://matplotlib.org/) -->
<svg height="345.6pt" version="1.1" viewBox="0 0 460.8 345.6" width="460.8pt" xmlns="http://www.w3.org/2000/svg" xmlns:xlink="http://www.w3.org/1999/xlink">
 <defs>
  <style type="text/css">
*{stroke-linecap:butt;stroke-linejoin:round;}
  </style>
 </defs>
 <g id="figure_1">
  <g id="patch_1">
   <path d="M 0 345.6 
L 460.8 345.6 
L 460.8 0 
L 0 0 
z
" style="fill:#ffffff;"/>
  </g>
  <g id="axes_1">
   <g id="patch_2">
    <path d="M 57.6 307.584 
L 414.72 307.584 
L 414.72 41.472 
L 57.6 41.472 
z
" style="fill:#ffffff;"/>
   </g>
   <g id="matplotlib.axis_1">
    <g id="xtick_1">
     <g id="line2d_1">
      <path clip-path="url(#pb9faf91c25)" d="M 66.925184 307.584 
L 66.925184 41.472 
" style="fill:none;stroke:#b0b0b0;stroke-linecap:square;stroke-width:0.8;"/>
     </g>
     <g id="line2d_2">
      <defs>
       <path d="M 0 0 
L 0 3.5 
" id="m33260ef7fd" style="stroke:#000000;stroke-width:0.8;"/>
      </defs>
      <g>
       <use style="stroke:#000000;stroke-width:0.8;" x="66.925184" xlink:href="#m33260ef7fd" y="307.584"/>
      </g>
     </g>
     <g id="text_1">
      <!-- 0 -->
      <defs>
       <path d="M 31.78125 66.40625 
Q 24.171875 66.40625 20.328125 58.90625 
Q 16.5 51.421875 16.5 36.375 
Q 16.5 21.390625 20.328125 13.890625 
Q 24.171875 6.390625 31.78125 6.390625 
Q 39.453125 6.390625 43.28125 13.890625 
Q 47.125 21.390625 47.125 36.375 
Q 47.125 51.421875 43.28125 58.90625 
Q 39.453125 66.40625 31.78125 66.40625 
z
M 31.78125 74.21875 
Q 44.046875 74.21875 50.515625 64.515625 
Q 56.984375 54.828125 56.984375 36.375 
Q 56.984375 17.96875 50.515625 8.265625 
Q 44.046875 -1.421875 31.78125 -1.421875 
Q 19.53125 -1.421875 13.0625 8.265625 
Q 6.59375 17.96875 6.59375 36.375 
Q 6.59375 54.828125 13.0625 64.515625 
Q 19.53125 74.21875 31.78125 74.21875 
z
" id="DejaVuSans-48"/>
      </defs>
      <g transform="translate(63.743934 322.182437)scale(0.1 -0.1)">
       <use xlink:href="#DejaVuSans-48"/>
      </g>
     </g>
    </g>
    <g id="xtick_2">
     <g id="line2d_3">
      <path clip-path="url(#pb9faf91c25)" d="M 136.000619 307.584 
L 136.000619 41.472 
" style="fill:none;stroke:#b0b0b0;stroke-linecap:square;stroke-width:0.8;"/>
     </g>
     <g id="line2d_4">
      <g>
       <use style="stroke:#000000;stroke-width:0.8;" x="136.000619" xlink:href="#m33260ef7fd" y="307.584"/>
      </g>
     </g>
     <g id="text_2">
      <!-- 10 -->
      <defs>
       <path d="M 12.40625 8.296875 
L 28.515625 8.296875 
L 28.515625 63.921875 
L 10.984375 60.40625 
L 10.984375 69.390625 
L 28.421875 72.90625 
L 38.28125 72.90625 
L 38.28125 8.296875 
L 54.390625 8.296875 
L 54.390625 0 
L 12.40625 0 
z
" id="DejaVuSans-49"/>
      </defs>
      <g transform="translate(129.638119 322.182437)scale(0.1 -0.1)">
       <use xlink:href="#DejaVuSans-49"/>
       <use x="63.623047" xlink:href="#DejaVuSans-48"/>
      </g>
     </g>
    </g>
    <g id="xtick_3">
     <g id="line2d_5">
      <path clip-path="url(#pb9faf91c25)" d="M 205.076054 307.584 
L 205.076054 41.472 
" style="fill:none;stroke:#b0b0b0;stroke-linecap:square;stroke-width:0.8;"/>
     </g>
     <g id="line2d_6">
      <g>
       <use style="stroke:#000000;stroke-width:0.8;" x="205.076054" xlink:href="#m33260ef7fd" y="307.584"/>
      </g>
     </g>
     <g id="text_3">
      <!-- 20 -->
      <defs>
       <path d="M 19.1875 8.296875 
L 53.609375 8.296875 
L 53.609375 0 
L 7.328125 0 
L 7.328125 8.296875 
Q 12.9375 14.109375 22.625 23.890625 
Q 32.328125 33.6875 34.8125 36.53125 
Q 39.546875 41.84375 41.421875 45.53125 
Q 43.3125 49.21875 43.3125 52.78125 
Q 43.3125 58.59375 39.234375 62.25 
Q 35.15625 65.921875 28.609375 65.921875 
Q 23.96875 65.921875 18.8125 64.3125 
Q 13.671875 62.703125 7.8125 59.421875 
L 7.8125 69.390625 
Q 13.765625 71.78125 18.9375 73 
Q 24.125 74.21875 28.421875 74.21875 
Q 39.75 74.21875 46.484375 68.546875 
Q 53.21875 62.890625 53.21875 53.421875 
Q 53.21875 48.921875 51.53125 44.890625 
Q 49.859375 40.875 45.40625 35.40625 
Q 44.1875 33.984375 37.640625 27.21875 
Q 31.109375 20.453125 19.1875 8.296875 
z
" id="DejaVuSans-50"/>
      </defs>
      <g transform="translate(198.713554 322.182437)scale(0.1 -0.1)">
       <use xlink:href="#DejaVuSans-50"/>
       <use x="63.623047" xlink:href="#DejaVuSans-48"/>
      </g>
     </g>
    </g>
    <g id="xtick_4">
     <g id="line2d_7">
      <path clip-path="url(#pb9faf91c25)" d="M 274.151489 307.584 
L 274.151489 41.472 
" style="fill:none;stroke:#b0b0b0;stroke-linecap:square;stroke-width:0.8;"/>
     </g>
     <g id="line2d_8">
      <g>
       <use style="stroke:#000000;stroke-width:0.8;" x="274.151489" xlink:href="#m33260ef7fd" y="307.584"/>
      </g>
     </g>
     <g id="text_4">
      <!-- 30 -->
      <defs>
       <path d="M 40.578125 39.3125 
Q 47.65625 37.796875 51.625 33 
Q 55.609375 28.21875 55.609375 21.1875 
Q 55.609375 10.40625 48.1875 4.484375 
Q 40.765625 -1.421875 27.09375 -1.421875 
Q 22.515625 -1.421875 17.65625 -0.515625 
Q 12.796875 0.390625 7.625 2.203125 
L 7.625 11.71875 
Q 11.71875 9.328125 16.59375 8.109375 
Q 21.484375 6.890625 26.8125 6.890625 
Q 36.078125 6.890625 40.9375 10.546875 
Q 45.796875 14.203125 45.796875 21.1875 
Q 45.796875 27.640625 41.28125 31.265625 
Q 36.765625 34.90625 28.71875 34.90625 
L 20.21875 34.90625 
L 20.21875 43.015625 
L 29.109375 43.015625 
Q 36.375 43.015625 40.234375 45.921875 
Q 44.09375 48.828125 44.09375 54.296875 
Q 44.09375 59.90625 40.109375 62.90625 
Q 36.140625 65.921875 28.71875 65.921875 
Q 24.65625 65.921875 20.015625 65.03125 
Q 15.375 64.15625 9.8125 62.3125 
L 9.8125 71.09375 
Q 15.4375 72.65625 20.34375 73.4375 
Q 25.25 74.21875 29.59375 74.21875 
Q 40.828125 74.21875 47.359375 69.109375 
Q 53.90625 64.015625 53.90625 55.328125 
Q 53.90625 49.265625 50.4375 45.09375 
Q 46.96875 40.921875 40.578125 39.3125 
z
" id="DejaVuSans-51"/>
      </defs>
      <g transform="translate(267.788989 322.182437)scale(0.1 -0.1)">
       <use xlink:href="#DejaVuSans-51"/>
       <use x="63.623047" xlink:href="#DejaVuSans-48"/>
      </g>
     </g>
    </g>
    <g id="xtick_5">
     <g id="line2d_9">
      <path clip-path="url(#pb9faf91c25)" d="M 343.226925 307.584 
L 343.226925 41.472 
" style="fill:none;stroke:#b0b0b0;stroke-linecap:square;stroke-width:0.8;"/>
     </g>
     <g id="line2d_10">
      <g>
       <use style="stroke:#000000;stroke-width:0.8;" x="343.226925" xlink:href="#m33260ef7fd" y="307.584"/>
      </g>
     </g>
     <g id="text_5">
      <!-- 40 -->
      <defs>
       <path d="M 37.796875 64.3125 
L 12.890625 25.390625 
L 37.796875 25.390625 
z
M 35.203125 72.90625 
L 47.609375 72.90625 
L 47.609375 25.390625 
L 58.015625 25.390625 
L 58.015625 17.1875 
L 47.609375 17.1875 
L 47.609375 0 
L 37.796875 0 
L 37.796875 17.1875 
L 4.890625 17.1875 
L 4.890625 26.703125 
z
" id="DejaVuSans-52"/>
      </defs>
      <g transform="translate(336.864425 322.182437)scale(0.1 -0.1)">
       <use xlink:href="#DejaVuSans-52"/>
       <use x="63.623047" xlink:href="#DejaVuSans-48"/>
      </g>
     </g>
    </g>
    <g id="xtick_6">
     <g id="line2d_11">
      <path clip-path="url(#pb9faf91c25)" d="M 412.30236 307.584 
L 412.30236 41.472 
" style="fill:none;stroke:#b0b0b0;stroke-linecap:square;stroke-width:0.8;"/>
     </g>
     <g id="line2d_12">
      <g>
       <use style="stroke:#000000;stroke-width:0.8;" x="412.30236" xlink:href="#m33260ef7fd" y="307.584"/>
      </g>
     </g>
     <g id="text_6">
      <!-- 50 -->
      <defs>
       <path d="M 10.796875 72.90625 
L 49.515625 72.90625 
L 49.515625 64.59375 
L 19.828125 64.59375 
L 19.828125 46.734375 
Q 21.96875 47.46875 24.109375 47.828125 
Q 26.265625 48.1875 28.421875 48.1875 
Q 40.625 48.1875 47.75 41.5 
Q 54.890625 34.8125 54.890625 23.390625 
Q 54.890625 11.625 47.5625 5.09375 
Q 40.234375 -1.421875 26.90625 -1.421875 
Q 22.3125 -1.421875 17.546875 -0.640625 
Q 12.796875 0.140625 7.71875 1.703125 
L 7.71875 11.625 
Q 12.109375 9.234375 16.796875 8.0625 
Q 21.484375 6.890625 26.703125 6.890625 
Q 35.15625 6.890625 40.078125 11.328125 
Q 45.015625 15.765625 45.015625 23.390625 
Q 45.015625 31 40.078125 35.4375 
Q 35.15625 39.890625 26.703125 39.890625 
Q 22.75 39.890625 18.8125 39.015625 
Q 14.890625 38.140625 10.796875 36.28125 
z
" id="DejaVuSans-53"/>
      </defs>
      <g transform="translate(405.93986 322.182437)scale(0.1 -0.1)">
       <use xlink:href="#DejaVuSans-53"/>
       <use x="63.623047" xlink:href="#DejaVuSans-48"/>
      </g>
     </g>
    </g>
    <g id="text_7">
     <!-- number of threads -->
     <defs>
      <path d="M 54.890625 33.015625 
L 54.890625 0 
L 45.90625 0 
L 45.90625 32.71875 
Q 45.90625 40.484375 42.875 44.328125 
Q 39.84375 48.1875 33.796875 48.1875 
Q 26.515625 48.1875 22.3125 43.546875 
Q 18.109375 38.921875 18.109375 30.90625 
L 18.109375 0 
L 9.078125 0 
L 9.078125 54.6875 
L 18.109375 54.6875 
L 18.109375 46.1875 
Q 21.34375 51.125 25.703125 53.5625 
Q 30.078125 56 35.796875 56 
Q 45.21875 56 50.046875 50.171875 
Q 54.890625 44.34375 54.890625 33.015625 
z
" id="DejaVuSans-110"/>
      <path d="M 8.5 21.578125 
L 8.5 54.6875 
L 17.484375 54.6875 
L 17.484375 21.921875 
Q 17.484375 14.15625 20.5 10.265625 
Q 23.53125 6.390625 29.59375 6.390625 
Q 36.859375 6.390625 41.078125 11.03125 
Q 45.3125 15.671875 45.3125 23.6875 
L 45.3125 54.6875 
L 54.296875 54.6875 
L 54.296875 0 
L 45.3125 0 
L 45.3125 8.40625 
Q 42.046875 3.421875 37.71875 1 
Q 33.40625 -1.421875 27.6875 -1.421875 
Q 18.265625 -1.421875 13.375 4.4375 
Q 8.5 10.296875 8.5 21.578125 
z
M 31.109375 56 
z
" id="DejaVuSans-117"/>
      <path d="M 52 44.1875 
Q 55.375 50.25 60.0625 53.125 
Q 64.75 56 71.09375 56 
Q 79.640625 56 84.28125 50.015625 
Q 88.921875 44.046875 88.921875 33.015625 
L 88.921875 0 
L 79.890625 0 
L 79.890625 32.71875 
Q 79.890625 40.578125 77.09375 44.375 
Q 74.3125 48.1875 68.609375 48.1875 
Q 61.625 48.1875 57.5625 43.546875 
Q 53.515625 38.921875 53.515625 30.90625 
L 53.515625 0 
L 44.484375 0 
L 44.484375 32.71875 
Q 44.484375 40.625 41.703125 44.40625 
Q 38.921875 48.1875 33.109375 48.1875 
Q 26.21875 48.1875 22.15625 43.53125 
Q 18.109375 38.875 18.109375 30.90625 
L 18.109375 0 
L 9.078125 0 
L 9.078125 54.6875 
L 18.109375 54.6875 
L 18.109375 46.1875 
Q 21.1875 51.21875 25.484375 53.609375 
Q 29.78125 56 35.6875 56 
Q 41.65625 56 45.828125 52.96875 
Q 50 49.953125 52 44.1875 
z
" id="DejaVuSans-109"/>
      <path d="M 48.6875 27.296875 
Q 48.6875 37.203125 44.609375 42.84375 
Q 40.53125 48.484375 33.40625 48.484375 
Q 26.265625 48.484375 22.1875 42.84375 
Q 18.109375 37.203125 18.109375 27.296875 
Q 18.109375 17.390625 22.1875 11.75 
Q 26.265625 6.109375 33.40625 6.109375 
Q 40.53125 6.109375 44.609375 11.75 
Q 48.6875 17.390625 48.6875 27.296875 
z
M 18.109375 46.390625 
Q 20.953125 51.265625 25.265625 53.625 
Q 29.59375 56 35.59375 56 
Q 45.5625 56 51.78125 48.09375 
Q 58.015625 40.1875 58.015625 27.296875 
Q 58.015625 14.40625 51.78125 6.484375 
Q 45.5625 -1.421875 35.59375 -1.421875 
Q 29.59375 -1.421875 25.265625 0.953125 
Q 20.953125 3.328125 18.109375 8.203125 
L 18.109375 0 
L 9.078125 0 
L 9.078125 75.984375 
L 18.109375 75.984375 
z
" id="DejaVuSans-98"/>
      <path d="M 56.203125 29.59375 
L 56.203125 25.203125 
L 14.890625 25.203125 
Q 15.484375 15.921875 20.484375 11.0625 
Q 25.484375 6.203125 34.421875 6.203125 
Q 39.59375 6.203125 44.453125 7.46875 
Q 49.3125 8.734375 54.109375 11.28125 
L 54.109375 2.78125 
Q 49.265625 0.734375 44.1875 -0.34375 
Q 39.109375 -1.421875 33.890625 -1.421875 
Q 20.796875 -1.421875 13.15625 6.1875 
Q 5.515625 13.8125 5.515625 26.8125 
Q 5.515625 40.234375 12.765625 48.109375 
Q 20.015625 56 32.328125 56 
Q 43.359375 56 49.78125 48.890625 
Q 56.203125 41.796875 56.203125 29.59375 
z
M 47.21875 32.234375 
Q 47.125 39.59375 43.09375 43.984375 
Q 39.0625 48.390625 32.421875 48.390625 
Q 24.90625 48.390625 20.390625 44.140625 
Q 15.875 39.890625 15.1875 32.171875 
z
" id="DejaVuSans-101"/>
      <path d="M 41.109375 46.296875 
Q 39.59375 47.171875 37.8125 47.578125 
Q 36.03125 48 33.890625 48 
Q 26.265625 48 22.1875 43.046875 
Q 18.109375 38.09375 18.109375 28.8125 
L 18.109375 0 
L 9.078125 0 
L 9.078125 54.6875 
L 18.109375 54.6875 
L 18.109375 46.1875 
Q 20.953125 51.171875 25.484375 53.578125 
Q 30.03125 56 36.53125 56 
Q 37.453125 56 38.578125 55.875 
Q 39.703125 55.765625 41.0625 55.515625 
z
" id="DejaVuSans-114"/>
      <path id="DejaVuSans-32"/>
      <path d="M 30.609375 48.390625 
Q 23.390625 48.390625 19.1875 42.75 
Q 14.984375 37.109375 14.984375 27.296875 
Q 14.984375 17.484375 19.15625 11.84375 
Q 23.34375 6.203125 30.609375 6.203125 
Q 37.796875 6.203125 41.984375 11.859375 
Q 46.1875 17.53125 46.1875 27.296875 
Q 46.1875 37.015625 41.984375 42.703125 
Q 37.796875 48.390625 30.609375 48.390625 
z
M 30.609375 56 
Q 42.328125 56 49.015625 48.375 
Q 55.71875 40.765625 55.71875 27.296875 
Q 55.71875 13.875 49.015625 6.21875 
Q 42.328125 -1.421875 30.609375 -1.421875 
Q 18.84375 -1.421875 12.171875 6.21875 
Q 5.515625 13.875 5.515625 27.296875 
Q 5.515625 40.765625 12.171875 48.375 
Q 18.84375 56 30.609375 56 
z
" id="DejaVuSans-111"/>
      <path d="M 37.109375 75.984375 
L 37.109375 68.5 
L 28.515625 68.5 
Q 23.6875 68.5 21.796875 66.546875 
Q 19.921875 64.59375 19.921875 59.515625 
L 19.921875 54.6875 
L 34.71875 54.6875 
L 34.71875 47.703125 
L 19.921875 47.703125 
L 19.921875 0 
L 10.890625 0 
L 10.890625 47.703125 
L 2.296875 47.703125 
L 2.296875 54.6875 
L 10.890625 54.6875 
L 10.890625 58.5 
Q 10.890625 67.625 15.140625 71.796875 
Q 19.390625 75.984375 28.609375 75.984375 
z
" id="DejaVuSans-102"/>
      <path d="M 18.3125 70.21875 
L 18.3125 54.6875 
L 36.8125 54.6875 
L 36.8125 47.703125 
L 18.3125 47.703125 
L 18.3125 18.015625 
Q 18.3125 11.328125 20.140625 9.421875 
Q 21.96875 7.515625 27.59375 7.515625 
L 36.8125 7.515625 
L 36.8125 0 
L 27.59375 0 
Q 17.1875 0 13.234375 3.875 
Q 9.28125 7.765625 9.28125 18.015625 
L 9.28125 47.703125 
L 2.6875 47.703125 
L 2.6875 54.6875 
L 9.28125 54.6875 
L 9.28125 70.21875 
z
" id="DejaVuSans-116"/>
      <path d="M 54.890625 33.015625 
L 54.890625 0 
L 45.90625 0 
L 45.90625 32.71875 
Q 45.90625 40.484375 42.875 44.328125 
Q 39.84375 48.1875 33.796875 48.1875 
Q 26.515625 48.1875 22.3125 43.546875 
Q 18.109375 38.921875 18.109375 30.90625 
L 18.109375 0 
L 9.078125 0 
L 9.078125 75.984375 
L 18.109375 75.984375 
L 18.109375 46.1875 
Q 21.34375 51.125 25.703125 53.5625 
Q 30.078125 56 35.796875 56 
Q 45.21875 56 50.046875 50.171875 
Q 54.890625 44.34375 54.890625 33.015625 
z
" id="DejaVuSans-104"/>
      <path d="M 34.28125 27.484375 
Q 23.390625 27.484375 19.1875 25 
Q 14.984375 22.515625 14.984375 16.5 
Q 14.984375 11.71875 18.140625 8.90625 
Q 21.296875 6.109375 26.703125 6.109375 
Q 34.1875 6.109375 38.703125 11.40625 
Q 43.21875 16.703125 43.21875 25.484375 
L 43.21875 27.484375 
z
M 52.203125 31.203125 
L 52.203125 0 
L 43.21875 0 
L 43.21875 8.296875 
Q 40.140625 3.328125 35.546875 0.953125 
Q 30.953125 -1.421875 24.3125 -1.421875 
Q 15.921875 -1.421875 10.953125 3.296875 
Q 6 8.015625 6 15.921875 
Q 6 25.140625 12.171875 29.828125 
Q 18.359375 34.515625 30.609375 34.515625 
L 43.21875 34.515625 
L 43.21875 35.40625 
Q 43.21875 41.609375 39.140625 45 
Q 35.0625 48.390625 27.6875 48.390625 
Q 23 48.390625 18.546875 47.265625 
Q 14.109375 46.140625 10.015625 43.890625 
L 10.015625 52.203125 
Q 14.9375 54.109375 19.578125 55.046875 
Q 24.21875 56 28.609375 56 
Q 40.484375 56 46.34375 49.84375 
Q 52.203125 43.703125 52.203125 31.203125 
z
" id="DejaVuSans-97"/>
      <path d="M 45.40625 46.390625 
L 45.40625 75.984375 
L 54.390625 75.984375 
L 54.390625 0 
L 45.40625 0 
L 45.40625 8.203125 
Q 42.578125 3.328125 38.25 0.953125 
Q 33.9375 -1.421875 27.875 -1.421875 
Q 17.96875 -1.421875 11.734375 6.484375 
Q 5.515625 14.40625 5.515625 27.296875 
Q 5.515625 40.1875 11.734375 48.09375 
Q 17.96875 56 27.875 56 
Q 33.9375 56 38.25 53.625 
Q 42.578125 51.265625 45.40625 46.390625 
z
M 14.796875 27.296875 
Q 14.796875 17.390625 18.875 11.75 
Q 22.953125 6.109375 30.078125 6.109375 
Q 37.203125 6.109375 41.296875 11.75 
Q 45.40625 17.390625 45.40625 27.296875 
Q 45.40625 37.203125 41.296875 42.84375 
Q 37.203125 48.484375 30.078125 48.484375 
Q 22.953125 48.484375 18.875 42.84375 
Q 14.796875 37.203125 14.796875 27.296875 
z
" id="DejaVuSans-100"/>
      <path d="M 44.28125 53.078125 
L 44.28125 44.578125 
Q 40.484375 46.53125 36.375 47.5 
Q 32.28125 48.484375 27.875 48.484375 
Q 21.1875 48.484375 17.84375 46.4375 
Q 14.5 44.390625 14.5 40.28125 
Q 14.5 37.15625 16.890625 35.375 
Q 19.28125 33.59375 26.515625 31.984375 
L 29.59375 31.296875 
Q 39.15625 29.25 43.1875 25.515625 
Q 47.21875 21.78125 47.21875 15.09375 
Q 47.21875 7.46875 41.1875 3.015625 
Q 35.15625 -1.421875 24.609375 -1.421875 
Q 20.21875 -1.421875 15.453125 -0.5625 
Q 10.6875 0.296875 5.421875 2 
L 5.421875 11.28125 
Q 10.40625 8.6875 15.234375 7.390625 
Q 20.0625 6.109375 24.8125 6.109375 
Q 31.15625 6.109375 34.5625 8.28125 
Q 37.984375 10.453125 37.984375 14.40625 
Q 37.984375 18.0625 35.515625 20.015625 
Q 33.0625 21.96875 24.703125 23.78125 
L 21.578125 24.515625 
Q 13.234375 26.265625 9.515625 29.90625 
Q 5.8125 33.546875 5.8125 39.890625 
Q 5.8125 47.609375 11.28125 51.796875 
Q 16.75 56 26.8125 56 
Q 31.78125 56 36.171875 55.265625 
Q 40.578125 54.546875 44.28125 53.078125 
z
" id="DejaVuSans-115"/>
     </defs>
     <g transform="translate(189.656875 335.860562)scale(0.1 -0.1)">
      <use xlink:href="#DejaVuSans-110"/>
      <use x="63.378906" xlink:href="#DejaVuSans-117"/>
      <use x="126.757812" xlink:href="#DejaVuSans-109"/>
      <use x="224.169922" xlink:href="#DejaVuSans-98"/>
      <use x="287.646484" xlink:href="#DejaVuSans-101"/>
      <use x="349.169922" xlink:href="#DejaVuSans-114"/>
      <use x="390.283203" xlink:href="#DejaVuSans-32"/>
      <use x="422.070312" xlink:href="#DejaVuSans-111"/>
      <use x="483.251953" xlink:href="#DejaVuSans-102"/>
      <use x="518.457031" xlink:href="#DejaVuSans-32"/>
      <use x="550.244141" xlink:href="#DejaVuSans-116"/>
      <use x="589.453125" xlink:href="#DejaVuSans-104"/>
      <use x="652.832031" xlink:href="#DejaVuSans-114"/>
      <use x="691.695312" xlink:href="#DejaVuSans-101"/>
      <use x="753.21875" xlink:href="#DejaVuSans-97"/>
      <use x="814.498047" xlink:href="#DejaVuSans-100"/>
      <use x="877.974609" xlink:href="#DejaVuSans-115"/>
     </g>
    </g>
   </g>
   <g id="matplotlib.axis_2">
    <g id="ytick_1">
     <g id="line2d_13">
      <path clip-path="url(#pb9faf91c25)" d="M 57.6 276.03547 
L 414.72 276.03547 
" style="fill:none;stroke:#b0b0b0;stroke-linecap:square;stroke-width:0.8;"/>
     </g>
     <g id="line2d_14">
      <defs>
       <path d="M 0 0 
L -3.5 0 
" id="mbc3a7f0392" style="stroke:#000000;stroke-width:0.8;"/>
      </defs>
      <g>
       <use style="stroke:#000000;stroke-width:0.8;" x="57.6" xlink:href="#mbc3a7f0392" y="276.03547"/>
      </g>
     </g>
     <g id="text_8">
      <!-- 1 -->
      <g transform="translate(44.2375 279.834689)scale(0.1 -0.1)">
       <use xlink:href="#DejaVuSans-49"/>
      </g>
     </g>
    </g>
    <g id="ytick_2">
     <g id="line2d_15">
      <path clip-path="url(#pb9faf91c25)" d="M 57.6 242.501771 
L 414.72 242.501771 
" style="fill:none;stroke:#b0b0b0;stroke-linecap:square;stroke-width:0.8;"/>
     </g>
     <g id="line2d_16">
      <g>
       <use style="stroke:#000000;stroke-width:0.8;" x="57.6" xlink:href="#mbc3a7f0392" y="242.501771"/>
      </g>
     </g>
     <g id="text_9">
      <!-- 2 -->
      <g transform="translate(44.2375 246.300989)scale(0.1 -0.1)">
       <use xlink:href="#DejaVuSans-50"/>
      </g>
     </g>
    </g>
    <g id="ytick_3">
     <g id="line2d_17">
      <path clip-path="url(#pb9faf91c25)" d="M 57.6 208.968071 
L 414.72 208.968071 
" style="fill:none;stroke:#b0b0b0;stroke-linecap:square;stroke-width:0.8;"/>
     </g>
     <g id="line2d_18">
      <g>
       <use style="stroke:#000000;stroke-width:0.8;" x="57.6" xlink:href="#mbc3a7f0392" y="208.968071"/>
      </g>
     </g>
     <g id="text_10">
      <!-- 3 -->
      <g transform="translate(44.2375 212.76729)scale(0.1 -0.1)">
       <use xlink:href="#DejaVuSans-51"/>
      </g>
     </g>
    </g>
    <g id="ytick_4">
     <g id="line2d_19">
      <path clip-path="url(#pb9faf91c25)" d="M 57.6 175.434372 
L 414.72 175.434372 
" style="fill:none;stroke:#b0b0b0;stroke-linecap:square;stroke-width:0.8;"/>
     </g>
     <g id="line2d_20">
      <g>
       <use style="stroke:#000000;stroke-width:0.8;" x="57.6" xlink:href="#mbc3a7f0392" y="175.434372"/>
      </g>
     </g>
     <g id="text_11">
      <!-- 4 -->
      <g transform="translate(44.2375 179.23359)scale(0.1 -0.1)">
       <use xlink:href="#DejaVuSans-52"/>
      </g>
     </g>
    </g>
    <g id="ytick_5">
     <g id="line2d_21">
      <path clip-path="url(#pb9faf91c25)" d="M 57.6 141.900672 
L 414.72 141.900672 
" style="fill:none;stroke:#b0b0b0;stroke-linecap:square;stroke-width:0.8;"/>
     </g>
     <g id="line2d_22">
      <g>
       <use style="stroke:#000000;stroke-width:0.8;" x="57.6" xlink:href="#mbc3a7f0392" y="141.900672"/>
      </g>
     </g>
     <g id="text_12">
      <!-- 5 -->
      <g transform="translate(44.2375 145.699891)scale(0.1 -0.1)">
       <use xlink:href="#DejaVuSans-53"/>
      </g>
     </g>
    </g>
    <g id="ytick_6">
     <g id="line2d_23">
      <path clip-path="url(#pb9faf91c25)" d="M 57.6 108.366972 
L 414.72 108.366972 
" style="fill:none;stroke:#b0b0b0;stroke-linecap:square;stroke-width:0.8;"/>
     </g>
     <g id="line2d_24">
      <g>
       <use style="stroke:#000000;stroke-width:0.8;" x="57.6" xlink:href="#mbc3a7f0392" y="108.366972"/>
      </g>
     </g>
     <g id="text_13">
      <!-- 6 -->
      <defs>
       <path d="M 33.015625 40.375 
Q 26.375 40.375 22.484375 35.828125 
Q 18.609375 31.296875 18.609375 23.390625 
Q 18.609375 15.53125 22.484375 10.953125 
Q 26.375 6.390625 33.015625 6.390625 
Q 39.65625 6.390625 43.53125 10.953125 
Q 47.40625 15.53125 47.40625 23.390625 
Q 47.40625 31.296875 43.53125 35.828125 
Q 39.65625 40.375 33.015625 40.375 
z
M 52.59375 71.296875 
L 52.59375 62.3125 
Q 48.875 64.0625 45.09375 64.984375 
Q 41.3125 65.921875 37.59375 65.921875 
Q 27.828125 65.921875 22.671875 59.328125 
Q 17.53125 52.734375 16.796875 39.40625 
Q 19.671875 43.65625 24.015625 45.921875 
Q 28.375 48.1875 33.59375 48.1875 
Q 44.578125 48.1875 50.953125 41.515625 
Q 57.328125 34.859375 57.328125 23.390625 
Q 57.328125 12.15625 50.6875 5.359375 
Q 44.046875 -1.421875 33.015625 -1.421875 
Q 20.359375 -1.421875 13.671875 8.265625 
Q 6.984375 17.96875 6.984375 36.375 
Q 6.984375 53.65625 15.1875 63.9375 
Q 23.390625 74.21875 37.203125 74.21875 
Q 40.921875 74.21875 44.703125 73.484375 
Q 48.484375 72.75 52.59375 71.296875 
z
" id="DejaVuSans-54"/>
      </defs>
      <g transform="translate(44.2375 112.166191)scale(0.1 -0.1)">
       <use xlink:href="#DejaVuSans-54"/>
      </g>
     </g>
    </g>
    <g id="ytick_7">
     <g id="line2d_25">
      <path clip-path="url(#pb9faf91c25)" d="M 57.6 74.833273 
L 414.72 74.833273 
" style="fill:none;stroke:#b0b0b0;stroke-linecap:square;stroke-width:0.8;"/>
     </g>
     <g id="line2d_26">
      <g>
       <use style="stroke:#000000;stroke-width:0.8;" x="57.6" xlink:href="#mbc3a7f0392" y="74.833273"/>
      </g>
     </g>
     <g id="text_14">
      <!-- 7 -->
      <defs>
       <path d="M 8.203125 72.90625 
L 55.078125 72.90625 
L 55.078125 68.703125 
L 28.609375 0 
L 18.3125 0 
L 43.21875 64.59375 
L 8.203125 64.59375 
z
" id="DejaVuSans-55"/>
      </defs>
      <g transform="translate(44.2375 78.632492)scale(0.1 -0.1)">
       <use xlink:href="#DejaVuSans-55"/>
      </g>
     </g>
    </g>
    <g id="text_15">
     <!-- speed-up -->
     <defs>
      <path d="M 18.109375 8.203125 
L 18.109375 -20.796875 
L 9.078125 -20.796875 
L 9.078125 54.6875 
L 18.109375 54.6875 
L 18.109375 46.390625 
Q 20.953125 51.265625 25.265625 53.625 
Q 29.59375 56 35.59375 56 
Q 45.5625 56 51.78125 48.09375 
Q 58.015625 40.1875 58.015625 27.296875 
Q 58.015625 14.40625 51.78125 6.484375 
Q 45.5625 -1.421875 35.59375 -1.421875 
Q 29.59375 -1.421875 25.265625 0.953125 
Q 20.953125 3.328125 18.109375 8.203125 
z
M 48.6875 27.296875 
Q 48.6875 37.203125 44.609375 42.84375 
Q 40.53125 48.484375 33.40625 48.484375 
Q 26.265625 48.484375 22.1875 42.84375 
Q 18.109375 37.203125 18.109375 27.296875 
Q 18.109375 17.390625 22.1875 11.75 
Q 26.265625 6.109375 33.40625 6.109375 
Q 40.53125 6.109375 44.609375 11.75 
Q 48.6875 17.390625 48.6875 27.296875 
z
" id="DejaVuSans-112"/>
      <path d="M 4.890625 31.390625 
L 31.203125 31.390625 
L 31.203125 23.390625 
L 4.890625 23.390625 
z
" id="DejaVuSans-45"/>
     </defs>
     <g transform="translate(38.157812 197.781125)rotate(-90)scale(0.1 -0.1)">
      <use xlink:href="#DejaVuSans-115"/>
      <use x="52.099609" xlink:href="#DejaVuSans-112"/>
      <use x="115.576172" xlink:href="#DejaVuSans-101"/>
      <use x="177.099609" xlink:href="#DejaVuSans-101"/>
      <use x="238.623047" xlink:href="#DejaVuSans-100"/>
      <use x="302.099609" xlink:href="#DejaVuSans-45"/>
      <use x="338.183594" xlink:href="#DejaVuSans-117"/>
      <use x="401.5625" xlink:href="#DejaVuSans-112"/>
     </g>
    </g>
   </g>
   <g id="line2d_27">
    <path clip-path="url(#pb9faf91c25)" d="M 73.832727 267.842578 
L 80.740271 268.123708 
L 87.647814 268.480447 
L 94.555358 269.913135 
L 101.462901 268.407633 
L 108.370445 269.164423 
L 115.277988 269.16068 
L 122.185532 269.421025 
L 129.093075 277.755147 
L 136.000619 272.827899 
L 142.908162 269.816779 
L 149.815706 269.663271 
L 156.72325 269.952985 
L 163.630793 270.778406 
L 170.538337 270.486729 
L 177.44588 270.47339 
L 184.353424 270.52752 
L 191.260967 270.189401 
L 198.168511 270.160953 
L 205.076054 270.608519 
L 211.983598 270.514183 
L 218.891141 270.296206 
L 225.798685 270.214217 
L 232.706228 270.310204 
L 239.613772 270.103219 
L 246.521315 270.256604 
L 253.428859 269.938434 
L 260.336402 270.391994 
L 267.243946 271.049644 
L 274.151489 270.901124 
L 281.059033 270.99341 
L 287.966576 270.647562 
L 294.87412 270.8209 
L 301.781663 271.290894 
L 308.689207 271.486481 
L 315.59675 271.198879 
L 322.504294 270.749171 
L 329.411838 271.025616 
L 336.319381 270.817319 
L 343.226925 270.770517 
L 350.134468 270.723602 
L 357.042012 270.92016 
L 363.949555 270.954607 
L 370.857099 270.582174 
L 377.764642 270.534803 
L 384.672186 270.405725 
L 391.579729 270.684782 
L 398.487273 270.146625 
" style="fill:none;stroke:#1f77b4;stroke-linecap:square;stroke-width:1.5;"/>
    <defs>
     <path d="M 0 1.5 
C 0.397805 1.5 0.77937 1.341951 1.06066 1.06066 
C 1.341951 0.77937 1.5 0.397805 1.5 0 
C 1.5 -0.397805 1.341951 -0.77937 1.06066 -1.06066 
C 0.77937 -1.341951 0.397805 -1.5 0 -1.5 
C -0.397805 -1.5 -0.77937 -1.341951 -1.06066 -1.06066 
C -1.341951 -0.77937 -1.5 -0.397805 -1.5 0 
C -1.5 0.397805 -1.341951 0.77937 -1.06066 1.06066 
C -0.77937 1.341951 -0.397805 1.5 0 1.5 
z
" id="ma4e43916c1" style="stroke:#1f77b4;"/>
    </defs>
    <g clip-path="url(#pb9faf91c25)">
     <use style="fill:#1f77b4;stroke:#1f77b4;" x="73.832727" xlink:href="#ma4e43916c1" y="267.842578"/>
     <use style="fill:#1f77b4;stroke:#1f77b4;" x="80.740271" xlink:href="#ma4e43916c1" y="268.123708"/>
     <use style="fill:#1f77b4;stroke:#1f77b4;" x="87.647814" xlink:href="#ma4e43916c1" y="268.480447"/>
     <use style="fill:#1f77b4;stroke:#1f77b4;" x="94.555358" xlink:href="#ma4e43916c1" y="269.913135"/>
     <use style="fill:#1f77b4;stroke:#1f77b4;" x="101.462901" xlink:href="#ma4e43916c1" y="268.407633"/>
     <use style="fill:#1f77b4;stroke:#1f77b4;" x="108.370445" xlink:href="#ma4e43916c1" y="269.164423"/>
     <use style="fill:#1f77b4;stroke:#1f77b4;" x="115.277988" xlink:href="#ma4e43916c1" y="269.16068"/>
     <use style="fill:#1f77b4;stroke:#1f77b4;" x="122.185532" xlink:href="#ma4e43916c1" y="269.421025"/>
     <use style="fill:#1f77b4;stroke:#1f77b4;" x="129.093075" xlink:href="#ma4e43916c1" y="277.755147"/>
     <use style="fill:#1f77b4;stroke:#1f77b4;" x="136.000619" xlink:href="#ma4e43916c1" y="272.827899"/>
     <use style="fill:#1f77b4;stroke:#1f77b4;" x="142.908162" xlink:href="#ma4e43916c1" y="269.816779"/>
     <use style="fill:#1f77b4;stroke:#1f77b4;" x="149.815706" xlink:href="#ma4e43916c1" y="269.663271"/>
     <use style="fill:#1f77b4;stroke:#1f77b4;" x="156.72325" xlink:href="#ma4e43916c1" y="269.952985"/>
     <use style="fill:#1f77b4;stroke:#1f77b4;" x="163.630793" xlink:href="#ma4e43916c1" y="270.778406"/>
     <use style="fill:#1f77b4;stroke:#1f77b4;" x="170.538337" xlink:href="#ma4e43916c1" y="270.486729"/>
     <use style="fill:#1f77b4;stroke:#1f77b4;" x="177.44588" xlink:href="#ma4e43916c1" y="270.47339"/>
     <use style="fill:#1f77b4;stroke:#1f77b4;" x="184.353424" xlink:href="#ma4e43916c1" y="270.52752"/>
     <use style="fill:#1f77b4;stroke:#1f77b4;" x="191.260967" xlink:href="#ma4e43916c1" y="270.189401"/>
     <use style="fill:#1f77b4;stroke:#1f77b4;" x="198.168511" xlink:href="#ma4e43916c1" y="270.160953"/>
     <use style="fill:#1f77b4;stroke:#1f77b4;" x="205.076054" xlink:href="#ma4e43916c1" y="270.608519"/>
     <use style="fill:#1f77b4;stroke:#1f77b4;" x="211.983598" xlink:href="#ma4e43916c1" y="270.514183"/>
     <use style="fill:#1f77b4;stroke:#1f77b4;" x="218.891141" xlink:href="#ma4e43916c1" y="270.296206"/>
     <use style="fill:#1f77b4;stroke:#1f77b4;" x="225.798685" xlink:href="#ma4e43916c1" y="270.214217"/>
     <use style="fill:#1f77b4;stroke:#1f77b4;" x="232.706228" xlink:href="#ma4e43916c1" y="270.310204"/>
     <use style="fill:#1f77b4;stroke:#1f77b4;" x="239.613772" xlink:href="#ma4e43916c1" y="270.103219"/>
     <use style="fill:#1f77b4;stroke:#1f77b4;" x="246.521315" xlink:href="#ma4e43916c1" y="270.256604"/>
     <use style="fill:#1f77b4;stroke:#1f77b4;" x="253.428859" xlink:href="#ma4e43916c1" y="269.938434"/>
     <use style="fill:#1f77b4;stroke:#1f77b4;" x="260.336402" xlink:href="#ma4e43916c1" y="270.391994"/>
     <use style="fill:#1f77b4;stroke:#1f77b4;" x="267.243946" xlink:href="#ma4e43916c1" y="271.049644"/>
     <use style="fill:#1f77b4;stroke:#1f77b4;" x="274.151489" xlink:href="#ma4e43916c1" y="270.901124"/>
     <use style="fill:#1f77b4;stroke:#1f77b4;" x="281.059033" xlink:href="#ma4e43916c1" y="270.99341"/>
     <use style="fill:#1f77b4;stroke:#1f77b4;" x="287.966576" xlink:href="#ma4e43916c1" y="270.647562"/>
     <use style="fill:#1f77b4;stroke:#1f77b4;" x="294.87412" xlink:href="#ma4e43916c1" y="270.8209"/>
     <use style="fill:#1f77b4;stroke:#1f77b4;" x="301.781663" xlink:href="#ma4e43916c1" y="271.290894"/>
     <use style="fill:#1f77b4;stroke:#1f77b4;" x="308.689207" xlink:href="#ma4e43916c1" y="271.486481"/>
     <use style="fill:#1f77b4;stroke:#1f77b4;" x="315.59675" xlink:href="#ma4e43916c1" y="271.198879"/>
     <use style="fill:#1f77b4;stroke:#1f77b4;" x="322.504294" xlink:href="#ma4e43916c1" y="270.749171"/>
     <use style="fill:#1f77b4;stroke:#1f77b4;" x="329.411838" xlink:href="#ma4e43916c1" y="271.025616"/>
     <use style="fill:#1f77b4;stroke:#1f77b4;" x="336.319381" xlink:href="#ma4e43916c1" y="270.817319"/>
     <use style="fill:#1f77b4;stroke:#1f77b4;" x="343.226925" xlink:href="#ma4e43916c1" y="270.770517"/>
     <use style="fill:#1f77b4;stroke:#1f77b4;" x="350.134468" xlink:href="#ma4e43916c1" y="270.723602"/>
     <use style="fill:#1f77b4;stroke:#1f77b4;" x="357.042012" xlink:href="#ma4e43916c1" y="270.92016"/>
     <use style="fill:#1f77b4;stroke:#1f77b4;" x="363.949555" xlink:href="#ma4e43916c1" y="270.954607"/>
     <use style="fill:#1f77b4;stroke:#1f77b4;" x="370.857099" xlink:href="#ma4e43916c1" y="270.582174"/>
     <use style="fill:#1f77b4;stroke:#1f77b4;" x="377.764642" xlink:href="#ma4e43916c1" y="270.534803"/>
     <use style="fill:#1f77b4;stroke:#1f77b4;" x="384.672186" xlink:href="#ma4e43916c1" y="270.405725"/>
     <use style="fill:#1f77b4;stroke:#1f77b4;" x="391.579729" xlink:href="#ma4e43916c1" y="270.684782"/>
     <use style="fill:#1f77b4;stroke:#1f77b4;" x="398.487273" xlink:href="#ma4e43916c1" y="270.146625"/>
    </g>
   </g>
   <g id="line2d_28">
    <path clip-path="url(#pb9faf91c25)" d="M 73.832727 274.019592 
L 80.740271 279.190815 
L 87.647814 277.719811 
L 94.555358 277.759165 
L 101.462901 279.074379 
L 108.370445 283.446904 
L 115.277988 288.283516 
L 122.185532 286.075229 
L 129.093075 286.332229 
L 136.000619 282.440199 
L 142.908162 283.007299 
L 149.815706 286.602278 
L 156.72325 292.325936 
L 163.630793 287.920126 
L 170.538337 290.172592 
L 177.44588 289.836882 
L 184.353424 288.722386 
L 191.260967 290.707627 
L 198.168511 292.950045 
L 205.076054 292.783813 
L 211.983598 292.968328 
L 218.891141 288.483446 
L 225.798685 288.41629 
L 232.706228 290.684499 
L 239.613772 293.06141 
L 246.521315 291.284873 
L 253.428859 289.700829 
L 260.336402 294.416491 
L 267.243946 293.885257 
L 274.151489 291.151601 
L 281.059033 290.729803 
L 287.966576 291.337075 
L 294.87412 288.875443 
L 301.781663 290.508302 
L 308.689207 294.319808 
L 315.59675 292.941502 
L 322.504294 291.301785 
L 329.411838 291.631682 
L 336.319381 292.560132 
L 343.226925 288.011791 
L 350.134468 288.300714 
L 357.042012 293.174503 
L 363.949555 294.959513 
L 370.857099 293.372113 
L 377.764642 291.07426 
L 384.672186 295.488 
L 391.579729 292.234426 
L 398.487273 291.70316 
" style="fill:none;stroke:#ff7f0e;stroke-dasharray:5.55,2.4;stroke-dashoffset:0;stroke-width:1.5;"/>
   </g>
   <g id="line2d_29">
    <path clip-path="url(#pb9faf91c25)" d="M 73.832727 285.295993 
L 80.740271 282.515909 
L 87.647814 281.171923 
L 94.555358 277.895734 
L 101.462901 278.344348 
L 108.370445 275.651497 
L 115.277988 273.925975 
L 122.185532 271.407332 
L 129.093075 268.532073 
L 136.000619 269.309785 
L 142.908162 270.233452 
L 149.815706 270.642624 
L 156.72325 271.316656 
L 163.630793 272.354942 
L 170.538337 273.479548 
L 177.44588 271.047863 
L 184.353424 267.710671 
L 191.260967 269.609151 
L 198.168511 271.164021 
L 205.076054 271.063232 
L 211.983598 271.110941 
L 218.891141 270.307294 
L 225.798685 270.932516 
L 232.706228 271.122108 
L 239.613772 270.734187 
L 246.521315 269.402431 
L 253.428859 265.530938 
L 260.336402 270.343403 
L 267.243946 270.382279 
L 274.151489 269.32873 
L 281.059033 270.404812 
L 287.966576 267.155004 
L 294.87412 268.355997 
L 301.781663 270.510761 
L 308.689207 269.115818 
L 315.59675 271.503889 
L 322.504294 270.44652 
L 329.411838 271.445306 
L 336.319381 270.319499 
L 343.226925 270.685736 
L 350.134468 268.276693 
L 357.042012 269.80589 
L 363.949555 272.294659 
L 370.857099 269.84049 
L 377.764642 269.383036 
L 384.672186 270.56058 
L 391.579729 268.583537 
L 398.487273 267.547687 
" style="fill:none;stroke:#2ca02c;stroke-dasharray:1.5,2.475;stroke-dashoffset:0;stroke-width:1.5;"/>
    <defs>
     <path d="M -0.49999 0.49999 
L 0.50001 0.49999 
L 0.50001 -0.50001 
L -0.49999 -0.50001 
z
" id="mfaa04ba653"/>
    </defs>
    <g clip-path="url(#pb9faf91c25)">
     <use style="fill:#2ca02c;" x="73.832727" xlink:href="#mfaa04ba653" y="285.295993"/>
     <use style="fill:#2ca02c;" x="80.740271" xlink:href="#mfaa04ba653" y="282.515909"/>
     <use style="fill:#2ca02c;" x="87.647814" xlink:href="#mfaa04ba653" y="281.171923"/>
     <use style="fill:#2ca02c;" x="94.555358" xlink:href="#mfaa04ba653" y="277.895734"/>
     <use style="fill:#2ca02c;" x="101.462901" xlink:href="#mfaa04ba653" y="278.344348"/>
     <use style="fill:#2ca02c;" x="108.370445" xlink:href="#mfaa04ba653" y="275.651497"/>
     <use style="fill:#2ca02c;" x="115.277988" xlink:href="#mfaa04ba653" y="273.925975"/>
     <use style="fill:#2ca02c;" x="122.185532" xlink:href="#mfaa04ba653" y="271.407332"/>
     <use style="fill:#2ca02c;" x="129.093075" xlink:href="#mfaa04ba653" y="268.532073"/>
     <use style="fill:#2ca02c;" x="136.000619" xlink:href="#mfaa04ba653" y="269.309785"/>
     <use style="fill:#2ca02c;" x="142.908162" xlink:href="#mfaa04ba653" y="270.233452"/>
     <use style="fill:#2ca02c;" x="149.815706" xlink:href="#mfaa04ba653" y="270.642624"/>
     <use style="fill:#2ca02c;" x="156.72325" xlink:href="#mfaa04ba653" y="271.316656"/>
     <use style="fill:#2ca02c;" x="163.630793" xlink:href="#mfaa04ba653" y="272.354942"/>
     <use style="fill:#2ca02c;" x="170.538337" xlink:href="#mfaa04ba653" y="273.479548"/>
     <use style="fill:#2ca02c;" x="177.44588" xlink:href="#mfaa04ba653" y="271.047863"/>
     <use style="fill:#2ca02c;" x="184.353424" xlink:href="#mfaa04ba653" y="267.710671"/>
     <use style="fill:#2ca02c;" x="191.260967" xlink:href="#mfaa04ba653" y="269.609151"/>
     <use style="fill:#2ca02c;" x="198.168511" xlink:href="#mfaa04ba653" y="271.164021"/>
     <use style="fill:#2ca02c;" x="205.076054" xlink:href="#mfaa04ba653" y="271.063232"/>
     <use style="fill:#2ca02c;" x="211.983598" xlink:href="#mfaa04ba653" y="271.110941"/>
     <use style="fill:#2ca02c;" x="218.891141" xlink:href="#mfaa04ba653" y="270.307294"/>
     <use style="fill:#2ca02c;" x="225.798685" xlink:href="#mfaa04ba653" y="270.932516"/>
     <use style="fill:#2ca02c;" x="232.706228" xlink:href="#mfaa04ba653" y="271.122108"/>
     <use style="fill:#2ca02c;" x="239.613772" xlink:href="#mfaa04ba653" y="270.734187"/>
     <use style="fill:#2ca02c;" x="246.521315" xlink:href="#mfaa04ba653" y="269.402431"/>
     <use style="fill:#2ca02c;" x="253.428859" xlink:href="#mfaa04ba653" y="265.530938"/>
     <use style="fill:#2ca02c;" x="260.336402" xlink:href="#mfaa04ba653" y="270.343403"/>
     <use style="fill:#2ca02c;" x="267.243946" xlink:href="#mfaa04ba653" y="270.382279"/>
     <use style="fill:#2ca02c;" x="274.151489" xlink:href="#mfaa04ba653" y="269.32873"/>
     <use style="fill:#2ca02c;" x="281.059033" xlink:href="#mfaa04ba653" y="270.404812"/>
     <use style="fill:#2ca02c;" x="287.966576" xlink:href="#mfaa04ba653" y="267.155004"/>
     <use style="fill:#2ca02c;" x="294.87412" xlink:href="#mfaa04ba653" y="268.355997"/>
     <use style="fill:#2ca02c;" x="301.781663" xlink:href="#mfaa04ba653" y="270.510761"/>
     <use style="fill:#2ca02c;" x="308.689207" xlink:href="#mfaa04ba653" y="269.115818"/>
     <use style="fill:#2ca02c;" x="315.59675" xlink:href="#mfaa04ba653" y="271.503889"/>
     <use style="fill:#2ca02c;" x="322.504294" xlink:href="#mfaa04ba653" y="270.44652"/>
     <use style="fill:#2ca02c;" x="329.411838" xlink:href="#mfaa04ba653" y="271.445306"/>
     <use style="fill:#2ca02c;" x="336.319381" xlink:href="#mfaa04ba653" y="270.319499"/>
     <use style="fill:#2ca02c;" x="343.226925" xlink:href="#mfaa04ba653" y="270.685736"/>
     <use style="fill:#2ca02c;" x="350.134468" xlink:href="#mfaa04ba653" y="268.276693"/>
     <use style="fill:#2ca02c;" x="357.042012" xlink:href="#mfaa04ba653" y="269.80589"/>
     <use style="fill:#2ca02c;" x="363.949555" xlink:href="#mfaa04ba653" y="272.294659"/>
     <use style="fill:#2ca02c;" x="370.857099" xlink:href="#mfaa04ba653" y="269.84049"/>
     <use style="fill:#2ca02c;" x="377.764642" xlink:href="#mfaa04ba653" y="269.383036"/>
     <use style="fill:#2ca02c;" x="384.672186" xlink:href="#mfaa04ba653" y="270.56058"/>
     <use style="fill:#2ca02c;" x="391.579729" xlink:href="#mfaa04ba653" y="268.583537"/>
     <use style="fill:#2ca02c;" x="398.487273" xlink:href="#mfaa04ba653" y="267.547687"/>
    </g>
   </g>
   <g id="line2d_30">
    <path clip-path="url(#pb9faf91c25)" d="M 73.832727 280.128554 
L 80.740271 276.65392 
L 87.647814 267.632085 
L 94.555358 263.390471 
L 101.462901 263.841398 
L 108.370445 264.663172 
L 115.277988 267.592164 
L 122.185532 268.31349 
L 129.093075 270.382647 
L 136.000619 273.537552 
L 142.908162 278.421522 
L 149.815706 276.323932 
L 156.72325 278.952902 
L 163.630793 280.666314 
L 170.538337 280.269523 
L 177.44588 276.468163 
L 184.353424 268.289658 
L 191.260967 274.45979 
L 198.168511 268.21094 
L 205.076054 257.56252 
L 211.983598 257.707569 
L 218.891141 261.351774 
L 225.798685 267.061663 
L 232.706228 264.643875 
L 239.613772 269.002708 
L 246.521315 260.752899 
L 253.428859 254.3727 
L 260.336402 266.876266 
L 267.243946 259.442071 
L 274.151489 264.569108 
L 281.059033 265.92531 
L 287.966576 268.577976 
L 294.87412 268.038973 
L 301.781663 267.941129 
L 308.689207 263.092639 
L 315.59675 261.241191 
L 322.504294 263.778325 
L 329.411838 259.939294 
L 336.319381 258.503817 
L 343.226925 255.141396 
L 350.134468 251.809083 
L 357.042012 251.063566 
L 363.949555 228.572388 
L 370.857099 242.980823 
L 377.764642 242.969683 
L 384.672186 239.567572 
L 391.579729 246.296373 
L 398.487273 226.278711 
" style="fill:none;stroke:#d62728;stroke-dasharray:9.6,2.4,1.5,2.4;stroke-dashoffset:0;stroke-width:1.5;"/>
    <defs>
     <path d="M 0 1.5 
C 0.397805 1.5 0.77937 1.341951 1.06066 1.06066 
C 1.341951 0.77937 1.5 0.397805 1.5 0 
C 1.5 -0.397805 1.341951 -0.77937 1.06066 -1.06066 
C 0.77937 -1.341951 0.397805 -1.5 0 -1.5 
C -0.397805 -1.5 -0.77937 -1.341951 -1.06066 -1.06066 
C -1.341951 -0.77937 -1.5 -0.397805 -1.5 0 
C -1.5 0.397805 -1.341951 0.77937 -1.06066 1.06066 
C -0.77937 1.341951 -0.397805 1.5 0 1.5 
z
" id="mea6316d202" style="stroke:#d62728;"/>
    </defs>
    <g clip-path="url(#pb9faf91c25)">
     <use style="fill:#d62728;stroke:#d62728;" x="73.832727" xlink:href="#mea6316d202" y="280.128554"/>
     <use style="fill:#d62728;stroke:#d62728;" x="80.740271" xlink:href="#mea6316d202" y="276.65392"/>
     <use style="fill:#d62728;stroke:#d62728;" x="87.647814" xlink:href="#mea6316d202" y="267.632085"/>
     <use style="fill:#d62728;stroke:#d62728;" x="94.555358" xlink:href="#mea6316d202" y="263.390471"/>
     <use style="fill:#d62728;stroke:#d62728;" x="101.462901" xlink:href="#mea6316d202" y="263.841398"/>
     <use style="fill:#d62728;stroke:#d62728;" x="108.370445" xlink:href="#mea6316d202" y="264.663172"/>
     <use style="fill:#d62728;stroke:#d62728;" x="115.277988" xlink:href="#mea6316d202" y="267.592164"/>
     <use style="fill:#d62728;stroke:#d62728;" x="122.185532" xlink:href="#mea6316d202" y="268.31349"/>
     <use style="fill:#d62728;stroke:#d62728;" x="129.093075" xlink:href="#mea6316d202" y="270.382647"/>
     <use style="fill:#d62728;stroke:#d62728;" x="136.000619" xlink:href="#mea6316d202" y="273.537552"/>
     <use style="fill:#d62728;stroke:#d62728;" x="142.908162" xlink:href="#mea6316d202" y="278.421522"/>
     <use style="fill:#d62728;stroke:#d62728;" x="149.815706" xlink:href="#mea6316d202" y="276.323932"/>
     <use style="fill:#d62728;stroke:#d62728;" x="156.72325" xlink:href="#mea6316d202" y="278.952902"/>
     <use style="fill:#d62728;stroke:#d62728;" x="163.630793" xlink:href="#mea6316d202" y="280.666314"/>
     <use style="fill:#d62728;stroke:#d62728;" x="170.538337" xlink:href="#mea6316d202" y="280.269523"/>
     <use style="fill:#d62728;stroke:#d62728;" x="177.44588" xlink:href="#mea6316d202" y="276.468163"/>
     <use style="fill:#d62728;stroke:#d62728;" x="184.353424" xlink:href="#mea6316d202" y="268.289658"/>
     <use style="fill:#d62728;stroke:#d62728;" x="191.260967" xlink:href="#mea6316d202" y="274.45979"/>
     <use style="fill:#d62728;stroke:#d62728;" x="198.168511" xlink:href="#mea6316d202" y="268.21094"/>
     <use style="fill:#d62728;stroke:#d62728;" x="205.076054" xlink:href="#mea6316d202" y="257.56252"/>
     <use style="fill:#d62728;stroke:#d62728;" x="211.983598" xlink:href="#mea6316d202" y="257.707569"/>
     <use style="fill:#d62728;stroke:#d62728;" x="218.891141" xlink:href="#mea6316d202" y="261.351774"/>
     <use style="fill:#d62728;stroke:#d62728;" x="225.798685" xlink:href="#mea6316d202" y="267.061663"/>
     <use style="fill:#d62728;stroke:#d62728;" x="232.706228" xlink:href="#mea6316d202" y="264.643875"/>
     <use style="fill:#d62728;stroke:#d62728;" x="239.613772" xlink:href="#mea6316d202" y="269.002708"/>
     <use style="fill:#d62728;stroke:#d62728;" x="246.521315" xlink:href="#mea6316d202" y="260.752899"/>
     <use style="fill:#d62728;stroke:#d62728;" x="253.428859" xlink:href="#mea6316d202" y="254.3727"/>
     <use style="fill:#d62728;stroke:#d62728;" x="260.336402" xlink:href="#mea6316d202" y="266.876266"/>
     <use style="fill:#d62728;stroke:#d62728;" x="267.243946" xlink:href="#mea6316d202" y="259.442071"/>
     <use style="fill:#d62728;stroke:#d62728;" x="274.151489" xlink:href="#mea6316d202" y="264.569108"/>
     <use style="fill:#d62728;stroke:#d62728;" x="281.059033" xlink:href="#mea6316d202" y="265.92531"/>
     <use style="fill:#d62728;stroke:#d62728;" x="287.966576" xlink:href="#mea6316d202" y="268.577976"/>
     <use style="fill:#d62728;stroke:#d62728;" x="294.87412" xlink:href="#mea6316d202" y="268.038973"/>
     <use style="fill:#d62728;stroke:#d62728;" x="301.781663" xlink:href="#mea6316d202" y="267.941129"/>
     <use style="fill:#d62728;stroke:#d62728;" x="308.689207" xlink:href="#mea6316d202" y="263.092639"/>
     <use style="fill:#d62728;stroke:#d62728;" x="315.59675" xlink:href="#mea6316d202" y="261.241191"/>
     <use style="fill:#d62728;stroke:#d62728;" x="322.504294" xlink:href="#mea6316d202" y="263.778325"/>
     <use style="fill:#d62728;stroke:#d62728;" x="329.411838" xlink:href="#mea6316d202" y="259.939294"/>
     <use style="fill:#d62728;stroke:#d62728;" x="336.319381" xlink:href="#mea6316d202" y="258.503817"/>
     <use style="fill:#d62728;stroke:#d62728;" x="343.226925" xlink:href="#mea6316d202" y="255.141396"/>
     <use style="fill:#d62728;stroke:#d62728;" x="350.134468" xlink:href="#mea6316d202" y="251.809083"/>
     <use style="fill:#d62728;stroke:#d62728;" x="357.042012" xlink:href="#mea6316d202" y="251.063566"/>
     <use style="fill:#d62728;stroke:#d62728;" x="363.949555" xlink:href="#mea6316d202" y="228.572388"/>
     <use style="fill:#d62728;stroke:#d62728;" x="370.857099" xlink:href="#mea6316d202" y="242.980823"/>
     <use style="fill:#d62728;stroke:#d62728;" x="377.764642" xlink:href="#mea6316d202" y="242.969683"/>
     <use style="fill:#d62728;stroke:#d62728;" x="384.672186" xlink:href="#mea6316d202" y="239.567572"/>
     <use style="fill:#d62728;stroke:#d62728;" x="391.579729" xlink:href="#mea6316d202" y="246.296373"/>
     <use style="fill:#d62728;stroke:#d62728;" x="398.487273" xlink:href="#mea6316d202" y="226.278711"/>
    </g>
   </g>
   <g id="line2d_31">
    <path clip-path="url(#pb9faf91c25)" d="M 73.832727 246.630942 
L 80.740271 231.57697 
L 87.647814 217.058369 
L 94.555358 210.110018 
L 101.462901 202.288266 
L 108.370445 189.313686 
L 115.277988 188.891496 
L 122.185532 180.353741 
L 129.093075 176.841063 
L 136.000619 171.45411 
L 142.908162 168.317895 
L 149.815706 160.905039 
L 156.72325 162.218512 
L 163.630793 154.064857 
L 170.538337 147.188143 
L 177.44588 146.092384 
L 184.353424 140.358893 
L 191.260967 142.382017 
L 198.168511 129.691395 
L 205.076054 127.392569 
L 211.983598 128.505173 
L 218.891141 117.894653 
L 225.798685 117.110716 
L 232.706228 107.471414 
L 239.613772 106.219998 
L 246.521315 102.881522 
L 253.428859 103.965674 
L 260.336402 100.408025 
L 267.243946 101.703224 
L 274.151489 102.052185 
L 281.059033 98.549541 
L 287.966576 98.317786 
L 294.87412 97.671839 
L 301.781663 97.377888 
L 308.689207 93.488539 
L 315.59675 88.082602 
L 322.504294 84.14156 
L 329.411838 85.086382 
L 336.319381 80.340632 
L 343.226925 80.049626 
L 350.134468 73.824741 
L 357.042012 75.468381 
L 363.949555 73.285564 
L 370.857099 73.789422 
L 377.764642 63.964643 
L 384.672186 66.149247 
L 391.579729 61.852486 
L 398.487273 53.568 
" style="fill:none;stroke:#9467bd;stroke-linecap:square;stroke-width:1.5;"/>
   </g>
   <g id="line2d_32">
    <path clip-path="url(#pb9faf91c25)" d="M 73.832727 280.663825 
L 80.740271 273.45905 
L 87.647814 271.287853 
L 94.555358 267.536145 
L 101.462901 268.822984 
L 108.370445 269.210864 
L 115.277988 263.869331 
L 122.185532 264.598201 
L 129.093075 264.526022 
L 136.000619 265.45318 
L 142.908162 263.435356 
L 149.815706 260.952654 
L 156.72325 262.589715 
L 163.630793 258.557471 
L 170.538337 258.165784 
L 177.44588 254.548241 
L 184.353424 255.273378 
L 191.260967 259.306692 
L 198.168511 257.924791 
L 205.076054 255.59837 
L 211.983598 252.049625 
L 218.891141 255.929441 
L 225.798685 256.516258 
L 232.706228 251.215637 
L 239.613772 258.058549 
L 246.521315 259.978373 
L 253.428859 255.486728 
L 260.336402 257.268237 
L 267.243946 259.294629 
L 274.151489 266.081919 
L 281.059033 257.616463 
L 287.966576 255.151119 
L 294.87412 254.735094 
L 301.781663 258.591891 
L 308.689207 258.750058 
L 315.59675 253.771454 
L 322.504294 254.905047 
L 329.411838 258.547564 
L 336.319381 254.13207 
L 343.226925 255.587116 
L 350.134468 258.483709 
L 357.042012 257.275625 
L 363.949555 259.038938 
L 370.857099 252.514005 
L 377.764642 255.63718 
L 384.672186 253.827245 
L 391.579729 253.106355 
L 398.487273 252.258545 
" style="fill:none;stroke:#8c564b;stroke-dasharray:5.55,2.4;stroke-dashoffset:0;stroke-width:1.5;"/>
    <defs>
     <path d="M -0.49999 0.49999 
L 0.50001 0.49999 
L 0.50001 -0.50001 
L -0.49999 -0.50001 
z
" id="mcc9953b74f"/>
    </defs>
    <g clip-path="url(#pb9faf91c25)">
     <use style="fill:#8c564b;" x="73.832727" xlink:href="#mcc9953b74f" y="280.663825"/>
     <use style="fill:#8c564b;" x="80.740271" xlink:href="#mcc9953b74f" y="273.45905"/>
     <use style="fill:#8c564b;" x="87.647814" xlink:href="#mcc9953b74f" y="271.287853"/>
     <use style="fill:#8c564b;" x="94.555358" xlink:href="#mcc9953b74f" y="267.536145"/>
     <use style="fill:#8c564b;" x="101.462901" xlink:href="#mcc9953b74f" y="268.822984"/>
     <use style="fill:#8c564b;" x="108.370445" xlink:href="#mcc9953b74f" y="269.210864"/>
     <use style="fill:#8c564b;" x="115.277988" xlink:href="#mcc9953b74f" y="263.869331"/>
     <use style="fill:#8c564b;" x="122.185532" xlink:href="#mcc9953b74f" y="264.598201"/>
     <use style="fill:#8c564b;" x="129.093075" xlink:href="#mcc9953b74f" y="264.526022"/>
     <use style="fill:#8c564b;" x="136.000619" xlink:href="#mcc9953b74f" y="265.45318"/>
     <use style="fill:#8c564b;" x="142.908162" xlink:href="#mcc9953b74f" y="263.435356"/>
     <use style="fill:#8c564b;" x="149.815706" xlink:href="#mcc9953b74f" y="260.952654"/>
     <use style="fill:#8c564b;" x="156.72325" xlink:href="#mcc9953b74f" y="262.589715"/>
     <use style="fill:#8c564b;" x="163.630793" xlink:href="#mcc9953b74f" y="258.557471"/>
     <use style="fill:#8c564b;" x="170.538337" xlink:href="#mcc9953b74f" y="258.165784"/>
     <use style="fill:#8c564b;" x="177.44588" xlink:href="#mcc9953b74f" y="254.548241"/>
     <use style="fill:#8c564b;" x="184.353424" xlink:href="#mcc9953b74f" y="255.273378"/>
     <use style="fill:#8c564b;" x="191.260967" xlink:href="#mcc9953b74f" y="259.306692"/>
     <use style="fill:#8c564b;" x="198.168511" xlink:href="#mcc9953b74f" y="257.924791"/>
     <use style="fill:#8c564b;" x="205.076054" xlink:href="#mcc9953b74f" y="255.59837"/>
     <use style="fill:#8c564b;" x="211.983598" xlink:href="#mcc9953b74f" y="252.049625"/>
     <use style="fill:#8c564b;" x="218.891141" xlink:href="#mcc9953b74f" y="255.929441"/>
     <use style="fill:#8c564b;" x="225.798685" xlink:href="#mcc9953b74f" y="256.516258"/>
     <use style="fill:#8c564b;" x="232.706228" xlink:href="#mcc9953b74f" y="251.215637"/>
     <use style="fill:#8c564b;" x="239.613772" xlink:href="#mcc9953b74f" y="258.058549"/>
     <use style="fill:#8c564b;" x="246.521315" xlink:href="#mcc9953b74f" y="259.978373"/>
     <use style="fill:#8c564b;" x="253.428859" xlink:href="#mcc9953b74f" y="255.486728"/>
     <use style="fill:#8c564b;" x="260.336402" xlink:href="#mcc9953b74f" y="257.268237"/>
     <use style="fill:#8c564b;" x="267.243946" xlink:href="#mcc9953b74f" y="259.294629"/>
     <use style="fill:#8c564b;" x="274.151489" xlink:href="#mcc9953b74f" y="266.081919"/>
     <use style="fill:#8c564b;" x="281.059033" xlink:href="#mcc9953b74f" y="257.616463"/>
     <use style="fill:#8c564b;" x="287.966576" xlink:href="#mcc9953b74f" y="255.151119"/>
     <use style="fill:#8c564b;" x="294.87412" xlink:href="#mcc9953b74f" y="254.735094"/>
     <use style="fill:#8c564b;" x="301.781663" xlink:href="#mcc9953b74f" y="258.591891"/>
     <use style="fill:#8c564b;" x="308.689207" xlink:href="#mcc9953b74f" y="258.750058"/>
     <use style="fill:#8c564b;" x="315.59675" xlink:href="#mcc9953b74f" y="253.771454"/>
     <use style="fill:#8c564b;" x="322.504294" xlink:href="#mcc9953b74f" y="254.905047"/>
     <use style="fill:#8c564b;" x="329.411838" xlink:href="#mcc9953b74f" y="258.547564"/>
     <use style="fill:#8c564b;" x="336.319381" xlink:href="#mcc9953b74f" y="254.13207"/>
     <use style="fill:#8c564b;" x="343.226925" xlink:href="#mcc9953b74f" y="255.587116"/>
     <use style="fill:#8c564b;" x="350.134468" xlink:href="#mcc9953b74f" y="258.483709"/>
     <use style="fill:#8c564b;" x="357.042012" xlink:href="#mcc9953b74f" y="257.275625"/>
     <use style="fill:#8c564b;" x="363.949555" xlink:href="#mcc9953b74f" y="259.038938"/>
     <use style="fill:#8c564b;" x="370.857099" xlink:href="#mcc9953b74f" y="252.514005"/>
     <use style="fill:#8c564b;" x="377.764642" xlink:href="#mcc9953b74f" y="255.63718"/>
     <use style="fill:#8c564b;" x="384.672186" xlink:href="#mcc9953b74f" y="253.827245"/>
     <use style="fill:#8c564b;" x="391.579729" xlink:href="#mcc9953b74f" y="253.106355"/>
     <use style="fill:#8c564b;" x="398.487273" xlink:href="#mcc9953b74f" y="252.258545"/>
    </g>
   </g>
   <g id="line2d_33">
    <path clip-path="url(#pb9faf91c25)" d="M 73.832727 272.866602 
L 80.740271 268.853761 
L 87.647814 266.872354 
L 94.555358 267.574298 
L 101.462901 267.710756 
L 108.370445 264.967178 
L 115.277988 265.997378 
L 122.185532 269.284545 
L 129.093075 269.109616 
L 136.000619 266.388316 
L 142.908162 268.987392 
L 149.815706 267.256397 
L 156.72325 263.942499 
L 163.630793 266.468108 
L 170.538337 267.064373 
L 177.44588 266.452877 
L 184.353424 268.419165 
L 191.260967 267.768575 
L 198.168511 264.538369 
L 205.076054 264.217003 
L 211.983598 265.780718 
L 218.891141 265.276922 
L 225.798685 265.831734 
L 232.706228 263.382665 
L 239.613772 264.844983 
L 246.521315 264.125048 
L 253.428859 266.176067 
L 260.336402 266.21535 
L 267.243946 264.144363 
L 274.151489 266.0288 
L 281.059033 270.512273 
L 287.966576 266.43459 
L 294.87412 262.617728 
L 301.781663 263.956847 
L 308.689207 263.698724 
L 315.59675 264.627977 
L 322.504294 267.26073 
L 329.411838 264.426284 
L 336.319381 263.688153 
L 343.226925 262.46514 
L 350.134468 260.508969 
L 357.042012 263.612287 
L 363.949555 264.233066 
L 370.857099 263.003699 
L 377.764642 262.986259 
L 384.672186 262.173173 
L 391.579729 266.944475 
L 398.487273 262.364782 
" style="fill:none;stroke:#e377c2;stroke-dasharray:1.5,2.475;stroke-dashoffset:0;stroke-width:1.5;"/>
    <defs>
     <path d="M 0 1.5 
C 0.397805 1.5 0.77937 1.341951 1.06066 1.06066 
C 1.341951 0.77937 1.5 0.397805 1.5 0 
C 1.5 -0.397805 1.341951 -0.77937 1.06066 -1.06066 
C 0.77937 -1.341951 0.397805 -1.5 0 -1.5 
C -0.397805 -1.5 -0.77937 -1.341951 -1.06066 -1.06066 
C -1.341951 -0.77937 -1.5 -0.397805 -1.5 0 
C -1.5 0.397805 -1.341951 0.77937 -1.06066 1.06066 
C -0.77937 1.341951 -0.397805 1.5 0 1.5 
z
" id="mcf2b6d5e48" style="stroke:#e377c2;"/>
    </defs>
    <g clip-path="url(#pb9faf91c25)">
     <use style="fill:#e377c2;stroke:#e377c2;" x="73.832727" xlink:href="#mcf2b6d5e48" y="272.866602"/>
     <use style="fill:#e377c2;stroke:#e377c2;" x="80.740271" xlink:href="#mcf2b6d5e48" y="268.853761"/>
     <use style="fill:#e377c2;stroke:#e377c2;" x="87.647814" xlink:href="#mcf2b6d5e48" y="266.872354"/>
     <use style="fill:#e377c2;stroke:#e377c2;" x="94.555358" xlink:href="#mcf2b6d5e48" y="267.574298"/>
     <use style="fill:#e377c2;stroke:#e377c2;" x="101.462901" xlink:href="#mcf2b6d5e48" y="267.710756"/>
     <use style="fill:#e377c2;stroke:#e377c2;" x="108.370445" xlink:href="#mcf2b6d5e48" y="264.967178"/>
     <use style="fill:#e377c2;stroke:#e377c2;" x="115.277988" xlink:href="#mcf2b6d5e48" y="265.997378"/>
     <use style="fill:#e377c2;stroke:#e377c2;" x="122.185532" xlink:href="#mcf2b6d5e48" y="269.284545"/>
     <use style="fill:#e377c2;stroke:#e377c2;" x="129.093075" xlink:href="#mcf2b6d5e48" y="269.109616"/>
     <use style="fill:#e377c2;stroke:#e377c2;" x="136.000619" xlink:href="#mcf2b6d5e48" y="266.388316"/>
     <use style="fill:#e377c2;stroke:#e377c2;" x="142.908162" xlink:href="#mcf2b6d5e48" y="268.987392"/>
     <use style="fill:#e377c2;stroke:#e377c2;" x="149.815706" xlink:href="#mcf2b6d5e48" y="267.256397"/>
     <use style="fill:#e377c2;stroke:#e377c2;" x="156.72325" xlink:href="#mcf2b6d5e48" y="263.942499"/>
     <use style="fill:#e377c2;stroke:#e377c2;" x="163.630793" xlink:href="#mcf2b6d5e48" y="266.468108"/>
     <use style="fill:#e377c2;stroke:#e377c2;" x="170.538337" xlink:href="#mcf2b6d5e48" y="267.064373"/>
     <use style="fill:#e377c2;stroke:#e377c2;" x="177.44588" xlink:href="#mcf2b6d5e48" y="266.452877"/>
     <use style="fill:#e377c2;stroke:#e377c2;" x="184.353424" xlink:href="#mcf2b6d5e48" y="268.419165"/>
     <use style="fill:#e377c2;stroke:#e377c2;" x="191.260967" xlink:href="#mcf2b6d5e48" y="267.768575"/>
     <use style="fill:#e377c2;stroke:#e377c2;" x="198.168511" xlink:href="#mcf2b6d5e48" y="264.538369"/>
     <use style="fill:#e377c2;stroke:#e377c2;" x="205.076054" xlink:href="#mcf2b6d5e48" y="264.217003"/>
     <use style="fill:#e377c2;stroke:#e377c2;" x="211.983598" xlink:href="#mcf2b6d5e48" y="265.780718"/>
     <use style="fill:#e377c2;stroke:#e377c2;" x="218.891141" xlink:href="#mcf2b6d5e48" y="265.276922"/>
     <use style="fill:#e377c2;stroke:#e377c2;" x="225.798685" xlink:href="#mcf2b6d5e48" y="265.831734"/>
     <use style="fill:#e377c2;stroke:#e377c2;" x="232.706228" xlink:href="#mcf2b6d5e48" y="263.382665"/>
     <use style="fill:#e377c2;stroke:#e377c2;" x="239.613772" xlink:href="#mcf2b6d5e48" y="264.844983"/>
     <use style="fill:#e377c2;stroke:#e377c2;" x="246.521315" xlink:href="#mcf2b6d5e48" y="264.125048"/>
     <use style="fill:#e377c2;stroke:#e377c2;" x="253.428859" xlink:href="#mcf2b6d5e48" y="266.176067"/>
     <use style="fill:#e377c2;stroke:#e377c2;" x="260.336402" xlink:href="#mcf2b6d5e48" y="266.21535"/>
     <use style="fill:#e377c2;stroke:#e377c2;" x="267.243946" xlink:href="#mcf2b6d5e48" y="264.144363"/>
     <use style="fill:#e377c2;stroke:#e377c2;" x="274.151489" xlink:href="#mcf2b6d5e48" y="266.0288"/>
     <use style="fill:#e377c2;stroke:#e377c2;" x="281.059033" xlink:href="#mcf2b6d5e48" y="270.512273"/>
     <use style="fill:#e377c2;stroke:#e377c2;" x="287.966576" xlink:href="#mcf2b6d5e48" y="266.43459"/>
     <use style="fill:#e377c2;stroke:#e377c2;" x="294.87412" xlink:href="#mcf2b6d5e48" y="262.617728"/>
     <use style="fill:#e377c2;stroke:#e377c2;" x="301.781663" xlink:href="#mcf2b6d5e48" y="263.956847"/>
     <use style="fill:#e377c2;stroke:#e377c2;" x="308.689207" xlink:href="#mcf2b6d5e48" y="263.698724"/>
     <use style="fill:#e377c2;stroke:#e377c2;" x="315.59675" xlink:href="#mcf2b6d5e48" y="264.627977"/>
     <use style="fill:#e377c2;stroke:#e377c2;" x="322.504294" xlink:href="#mcf2b6d5e48" y="267.26073"/>
     <use style="fill:#e377c2;stroke:#e377c2;" x="329.411838" xlink:href="#mcf2b6d5e48" y="264.426284"/>
     <use style="fill:#e377c2;stroke:#e377c2;" x="336.319381" xlink:href="#mcf2b6d5e48" y="263.688153"/>
     <use style="fill:#e377c2;stroke:#e377c2;" x="343.226925" xlink:href="#mcf2b6d5e48" y="262.46514"/>
     <use style="fill:#e377c2;stroke:#e377c2;" x="350.134468" xlink:href="#mcf2b6d5e48" y="260.508969"/>
     <use style="fill:#e377c2;stroke:#e377c2;" x="357.042012" xlink:href="#mcf2b6d5e48" y="263.612287"/>
     <use style="fill:#e377c2;stroke:#e377c2;" x="363.949555" xlink:href="#mcf2b6d5e48" y="264.233066"/>
     <use style="fill:#e377c2;stroke:#e377c2;" x="370.857099" xlink:href="#mcf2b6d5e48" y="263.003699"/>
     <use style="fill:#e377c2;stroke:#e377c2;" x="377.764642" xlink:href="#mcf2b6d5e48" y="262.986259"/>
     <use style="fill:#e377c2;stroke:#e377c2;" x="384.672186" xlink:href="#mcf2b6d5e48" y="262.173173"/>
     <use style="fill:#e377c2;stroke:#e377c2;" x="391.579729" xlink:href="#mcf2b6d5e48" y="266.944475"/>
     <use style="fill:#e377c2;stroke:#e377c2;" x="398.487273" xlink:href="#mcf2b6d5e48" y="262.364782"/>
    </g>
   </g>
   <g id="patch_3">
    <path d="M 57.6 307.584 
L 57.6 41.472 
" style="fill:none;stroke:#000000;stroke-linecap:square;stroke-linejoin:miter;stroke-width:0.8;"/>
   </g>
   <g id="patch_4">
    <path d="M 414.72 307.584 
L 414.72 41.472 
" style="fill:none;stroke:#000000;stroke-linecap:square;stroke-linejoin:miter;stroke-width:0.8;"/>
   </g>
   <g id="patch_5">
    <path d="M 57.6 307.584 
L 414.72 307.584 
" style="fill:none;stroke:#000000;stroke-linecap:square;stroke-linejoin:miter;stroke-width:0.8;"/>
   </g>
   <g id="patch_6">
    <path d="M 57.6 41.472 
L 414.72 41.472 
" style="fill:none;stroke:#000000;stroke-linecap:square;stroke-linejoin:miter;stroke-width:0.8;"/>
   </g>
   <g id="legend_1">
    <g id="patch_7">
     <path d="M 64.6 152.775125 
L 148.109375 152.775125 
Q 150.109375 152.775125 150.109375 150.775125 
L 150.109375 48.472 
Q 150.109375 46.472 148.109375 46.472 
L 64.6 46.472 
Q 62.6 46.472 62.6 48.472 
L 62.6 150.775125 
Q 62.6 152.775125 64.6 152.775125 
z
" style="fill:#ffffff;opacity:0.8;stroke:#cccccc;stroke-linejoin:miter;"/>
    </g>
    <g id="line2d_34">
     <path d="M 66.6 54.570438 
L 86.6 54.570438 
" style="fill:none;stroke:#1f77b4;stroke-linecap:square;stroke-width:1.5;"/>
    </g>
    <g id="line2d_35">
     <g>
      <use style="fill:#1f77b4;stroke:#1f77b4;" x="76.6" xlink:href="#ma4e43916c1" y="54.570438"/>
     </g>
    </g>
    <g id="text_16">
     <!-- sphere3 -->
     <g transform="translate(94.6 58.070438)scale(0.1 -0.1)">
      <use xlink:href="#DejaVuSans-115"/>
      <use x="52.099609" xlink:href="#DejaVuSans-112"/>
      <use x="115.576172" xlink:href="#DejaVuSans-104"/>
      <use x="178.955078" xlink:href="#DejaVuSans-101"/>
      <use x="240.478516" xlink:href="#DejaVuSans-114"/>
      <use x="279.341797" xlink:href="#DejaVuSans-101"/>
      <use x="340.865234" xlink:href="#DejaVuSans-51"/>
     </g>
    </g>
    <g id="line2d_36">
     <path d="M 66.6 69.248563 
L 86.6 69.248563 
" style="fill:none;stroke:#ff7f0e;stroke-dasharray:5.55,2.4;stroke-dashoffset:0;stroke-width:1.5;"/>
    </g>
    <g id="line2d_37"/>
    <g id="text_17">
     <!-- dragon -->
     <defs>
      <path d="M 45.40625 27.984375 
Q 45.40625 37.75 41.375 43.109375 
Q 37.359375 48.484375 30.078125 48.484375 
Q 22.859375 48.484375 18.828125 43.109375 
Q 14.796875 37.75 14.796875 27.984375 
Q 14.796875 18.265625 18.828125 12.890625 
Q 22.859375 7.515625 30.078125 7.515625 
Q 37.359375 7.515625 41.375 12.890625 
Q 45.40625 18.265625 45.40625 27.984375 
z
M 54.390625 6.78125 
Q 54.390625 -7.171875 48.1875 -13.984375 
Q 42 -20.796875 29.203125 -20.796875 
Q 24.46875 -20.796875 20.265625 -20.09375 
Q 16.0625 -19.390625 12.109375 -17.921875 
L 12.109375 -9.1875 
Q 16.0625 -11.328125 19.921875 -12.34375 
Q 23.78125 -13.375 27.78125 -13.375 
Q 36.625 -13.375 41.015625 -8.765625 
Q 45.40625 -4.15625 45.40625 5.171875 
L 45.40625 9.625 
Q 42.625 4.78125 38.28125 2.390625 
Q 33.9375 0 27.875 0 
Q 17.828125 0 11.671875 7.65625 
Q 5.515625 15.328125 5.515625 27.984375 
Q 5.515625 40.671875 11.671875 48.328125 
Q 17.828125 56 27.875 56 
Q 33.9375 56 38.28125 53.609375 
Q 42.625 51.21875 45.40625 46.390625 
L 45.40625 54.6875 
L 54.390625 54.6875 
z
" id="DejaVuSans-103"/>
     </defs>
     <g transform="translate(94.6 72.748563)scale(0.1 -0.1)">
      <use xlink:href="#DejaVuSans-100"/>
      <use x="63.476562" xlink:href="#DejaVuSans-114"/>
      <use x="104.589844" xlink:href="#DejaVuSans-97"/>
      <use x="165.869141" xlink:href="#DejaVuSans-103"/>
      <use x="229.345703" xlink:href="#DejaVuSans-111"/>
      <use x="290.527344" xlink:href="#DejaVuSans-110"/>
     </g>
    </g>
    <g id="line2d_38">
     <path d="M 66.6 83.926688 
L 86.6 83.926688 
" style="fill:none;stroke:#2ca02c;stroke-dasharray:1.5,2.475;stroke-dashoffset:0;stroke-width:1.5;"/>
    </g>
    <g id="line2d_39">
     <g>
      <use style="fill:#2ca02c;" x="76.6" xlink:href="#mfaa04ba653" y="83.926688"/>
     </g>
    </g>
    <g id="text_18">
     <!-- o3_1024 -->
     <defs>
      <path d="M 50.984375 -16.609375 
L 50.984375 -23.578125 
L -0.984375 -23.578125 
L -0.984375 -16.609375 
z
" id="DejaVuSans-95"/>
     </defs>
     <g transform="translate(94.6 87.426688)scale(0.1 -0.1)">
      <use xlink:href="#DejaVuSans-111"/>
      <use x="61.181641" xlink:href="#DejaVuSans-51"/>
      <use x="124.804688" xlink:href="#DejaVuSans-95"/>
      <use x="174.804688" xlink:href="#DejaVuSans-49"/>
      <use x="238.427734" xlink:href="#DejaVuSans-48"/>
      <use x="302.050781" xlink:href="#DejaVuSans-50"/>
      <use x="365.673828" xlink:href="#DejaVuSans-52"/>
     </g>
    </g>
    <g id="line2d_40">
     <path d="M 66.6 98.882938 
L 86.6 98.882938 
" style="fill:none;stroke:#d62728;stroke-dasharray:9.6,2.4,1.5,2.4;stroke-dashoffset:0;stroke-width:1.5;"/>
    </g>
    <g id="line2d_41">
     <g>
      <use style="fill:#d62728;stroke:#d62728;" x="76.6" xlink:href="#mea6316d202" y="98.882938"/>
     </g>
    </g>
    <g id="text_19">
     <!-- random16 -->
     <g transform="translate(94.6 102.382938)scale(0.1 -0.1)">
      <use xlink:href="#DejaVuSans-114"/>
      <use x="41.113281" xlink:href="#DejaVuSans-97"/>
      <use x="102.392578" xlink:href="#DejaVuSans-110"/>
      <use x="165.771484" xlink:href="#DejaVuSans-100"/>
      <use x="229.248047" xlink:href="#DejaVuSans-111"/>
      <use x="290.429688" xlink:href="#DejaVuSans-109"/>
      <use x="387.841797" xlink:href="#DejaVuSans-49"/>
      <use x="451.464844" xlink:href="#DejaVuSans-54"/>
     </g>
    </g>
    <g id="line2d_42">
     <path d="M 66.6 113.561063 
L 86.6 113.561063 
" style="fill:none;stroke:#9467bd;stroke-linecap:square;stroke-width:1.5;"/>
    </g>
    <g id="line2d_43"/>
    <g id="text_20">
     <!-- fractal -->
     <defs>
      <path d="M 48.78125 52.59375 
L 48.78125 44.1875 
Q 44.96875 46.296875 41.140625 47.34375 
Q 37.3125 48.390625 33.40625 48.390625 
Q 24.65625 48.390625 19.8125 42.84375 
Q 14.984375 37.3125 14.984375 27.296875 
Q 14.984375 17.28125 19.8125 11.734375 
Q 24.65625 6.203125 33.40625 6.203125 
Q 37.3125 6.203125 41.140625 7.25 
Q 44.96875 8.296875 48.78125 10.40625 
L 48.78125 2.09375 
Q 45.015625 0.34375 40.984375 -0.53125 
Q 36.96875 -1.421875 32.421875 -1.421875 
Q 20.0625 -1.421875 12.78125 6.34375 
Q 5.515625 14.109375 5.515625 27.296875 
Q 5.515625 40.671875 12.859375 48.328125 
Q 20.21875 56 33.015625 56 
Q 37.15625 56 41.109375 55.140625 
Q 45.0625 54.296875 48.78125 52.59375 
z
" id="DejaVuSans-99"/>
      <path d="M 9.421875 75.984375 
L 18.40625 75.984375 
L 18.40625 0 
L 9.421875 0 
z
" id="DejaVuSans-108"/>
     </defs>
     <g transform="translate(94.6 117.061063)scale(0.1 -0.1)">
      <use xlink:href="#DejaVuSans-102"/>
      <use x="35.205078" xlink:href="#DejaVuSans-114"/>
      <use x="76.318359" xlink:href="#DejaVuSans-97"/>
      <use x="137.597656" xlink:href="#DejaVuSans-99"/>
      <use x="192.578125" xlink:href="#DejaVuSans-116"/>
      <use x="231.787109" xlink:href="#DejaVuSans-97"/>
      <use x="293.066406" xlink:href="#DejaVuSans-108"/>
     </g>
    </g>
    <g id="line2d_44">
     <path d="M 66.6 128.239188 
L 86.6 128.239188 
" style="fill:none;stroke:#8c564b;stroke-dasharray:5.55,2.4;stroke-dashoffset:0;stroke-width:1.5;"/>
    </g>
    <g id="line2d_45">
     <g>
      <use style="fill:#8c564b;" x="76.6" xlink:href="#mcc9953b74f" y="128.239188"/>
     </g>
    </g>
    <g id="text_21">
     <!-- o3_4096 -->
     <defs>
      <path d="M 10.984375 1.515625 
L 10.984375 10.5 
Q 14.703125 8.734375 18.5 7.8125 
Q 22.3125 6.890625 25.984375 6.890625 
Q 35.75 6.890625 40.890625 13.453125 
Q 46.046875 20.015625 46.78125 33.40625 
Q 43.953125 29.203125 39.59375 26.953125 
Q 35.25 24.703125 29.984375 24.703125 
Q 19.046875 24.703125 12.671875 31.3125 
Q 6.296875 37.9375 6.296875 49.421875 
Q 6.296875 60.640625 12.9375 67.421875 
Q 19.578125 74.21875 30.609375 74.21875 
Q 43.265625 74.21875 49.921875 64.515625 
Q 56.59375 54.828125 56.59375 36.375 
Q 56.59375 19.140625 48.40625 8.859375 
Q 40.234375 -1.421875 26.421875 -1.421875 
Q 22.703125 -1.421875 18.890625 -0.6875 
Q 15.09375 0.046875 10.984375 1.515625 
z
M 30.609375 32.421875 
Q 37.25 32.421875 41.125 36.953125 
Q 45.015625 41.5 45.015625 49.421875 
Q 45.015625 57.28125 41.125 61.84375 
Q 37.25 66.40625 30.609375 66.40625 
Q 23.96875 66.40625 20.09375 61.84375 
Q 16.21875 57.28125 16.21875 49.421875 
Q 16.21875 41.5 20.09375 36.953125 
Q 23.96875 32.421875 30.609375 32.421875 
z
" id="DejaVuSans-57"/>
     </defs>
     <g transform="translate(94.6 131.739188)scale(0.1 -0.1)">
      <use xlink:href="#DejaVuSans-111"/>
      <use x="61.181641" xlink:href="#DejaVuSans-51"/>
      <use x="124.804688" xlink:href="#DejaVuSans-95"/>
      <use x="174.804688" xlink:href="#DejaVuSans-52"/>
      <use x="238.427734" xlink:href="#DejaVuSans-48"/>
      <use x="302.050781" xlink:href="#DejaVuSans-57"/>
      <use x="365.673828" xlink:href="#DejaVuSans-54"/>
     </g>
    </g>
    <g id="line2d_46">
     <path d="M 66.6 143.195438 
L 86.6 143.195438 
" style="fill:none;stroke:#e377c2;stroke-dasharray:1.5,2.475;stroke-dashoffset:0;stroke-width:1.5;"/>
    </g>
    <g id="line2d_47">
     <g>
      <use style="fill:#e377c2;stroke:#e377c2;" x="76.6" xlink:href="#mcf2b6d5e48" y="143.195438"/>
     </g>
    </g>
    <g id="text_22">
     <!-- torus4 -->
     <g transform="translate(94.6 146.695438)scale(0.1 -0.1)">
      <use xlink:href="#DejaVuSans-116"/>
      <use x="39.208984" xlink:href="#DejaVuSans-111"/>
      <use x="100.390625" xlink:href="#DejaVuSans-114"/>
      <use x="141.503906" xlink:href="#DejaVuSans-117"/>
      <use x="204.882812" xlink:href="#DejaVuSans-115"/>
      <use x="256.982422" xlink:href="#DejaVuSans-52"/>
     </g>
    </g>
   </g>
  </g>
 </g>
 <defs>
  <clipPath id="pb9faf91c25">
   <rect height="266.112" width="357.12" x="57.6" y="41.472"/>
  </clipPath>
 </defs>
</svg>
