<?xml version="1.0" encoding="utf-8" standalone="no"?>
<!DOCTYPE svg PUBLIC "-//W3C//DTD SVG 1.1//EN"
  "http://www.w3.org/Graphics/SVG/1.1/DTD/svg11.dtd">
<!-- Created with matplotlib (https://matplotlib.org/) -->
<svg height="345.6pt" version="1.1" viewBox="0 0 460.8 345.6" width="460.8pt" xmlns="http://www.w3.org/2000/svg" xmlns:xlink="http://www.w3.org/1999/xlink">
 <defs>
  <style type="text/css">
*{stroke-linecap:butt;stroke-linejoin:round;}
  </style>
 </defs>
 <g id="figure_1">
  <g id="patch_1">
   <path d="M 0 345.6 
L 460.8 345.6 
L 460.8 0 
L 0 0 
z
" style="fill:#ffffff;"/>
  </g>
  <g id="axes_1">
   <g id="patch_2">
    <path d="M 57.6 307.584 
L 414.72 307.584 
L 414.72 41.472 
L 57.6 41.472 
z
" style="fill:#ffffff;"/>
   </g>
   <g id="matplotlib.axis_1">
    <g id="xtick_1">
     <g id="line2d_1">
      <path clip-path="url(#p541212b470)" d="M 66.925184 307.584 
L 66.925184 41.472 
" style="fill:none;stroke:#b0b0b0;stroke-linecap:square;stroke-width:0.8;"/>
     </g>
     <g id="line2d_2">
      <defs>
       <path d="M 0 0 
L 0 3.5 
" id="me9ee77459f" style="stroke:#000000;stroke-width:0.8;"/>
      </defs>
      <g>
       <use style="stroke:#000000;stroke-width:0.8;" x="66.925184" xlink:href="#me9ee77459f" y="307.584"/>
      </g>
     </g>
     <g id="text_1">
      <!-- 0 -->
      <defs>
       <path d="M 31.78125 66.40625 
Q 24.171875 66.40625 20.328125 58.90625 
Q 16.5 51.421875 16.5 36.375 
Q 16.5 21.390625 20.328125 13.890625 
Q 24.171875 6.390625 31.78125 6.390625 
Q 39.453125 6.390625 43.28125 13.890625 
Q 47.125 21.390625 47.125 36.375 
Q 47.125 51.421875 43.28125 58.90625 
Q 39.453125 66.40625 31.78125 66.40625 
z
M 31.78125 74.21875 
Q 44.046875 74.21875 50.515625 64.515625 
Q 56.984375 54.828125 56.984375 36.375 
Q 56.984375 17.96875 50.515625 8.265625 
Q 44.046875 -1.421875 31.78125 -1.421875 
Q 19.53125 -1.421875 13.0625 8.265625 
Q 6.59375 17.96875 6.59375 36.375 
Q 6.59375 54.828125 13.0625 64.515625 
Q 19.53125 74.21875 31.78125 74.21875 
z
" id="DejaVuSans-48"/>
      </defs>
      <g transform="translate(63.743934 322.182437)scale(0.1 -0.1)">
       <use xlink:href="#DejaVuSans-48"/>
      </g>
     </g>
    </g>
    <g id="xtick_2">
     <g id="line2d_3">
      <path clip-path="url(#p541212b470)" d="M 136.000619 307.584 
L 136.000619 41.472 
" style="fill:none;stroke:#b0b0b0;stroke-linecap:square;stroke-width:0.8;"/>
     </g>
     <g id="line2d_4">
      <g>
       <use style="stroke:#000000;stroke-width:0.8;" x="136.000619" xlink:href="#me9ee77459f" y="307.584"/>
      </g>
     </g>
     <g id="text_2">
      <!-- 10 -->
      <defs>
       <path d="M 12.40625 8.296875 
L 28.515625 8.296875 
L 28.515625 63.921875 
L 10.984375 60.40625 
L 10.984375 69.390625 
L 28.421875 72.90625 
L 38.28125 72.90625 
L 38.28125 8.296875 
L 54.390625 8.296875 
L 54.390625 0 
L 12.40625 0 
z
" id="DejaVuSans-49"/>
      </defs>
      <g transform="translate(129.638119 322.182437)scale(0.1 -0.1)">
       <use xlink:href="#DejaVuSans-49"/>
       <use x="63.623047" xlink:href="#DejaVuSans-48"/>
      </g>
     </g>
    </g>
    <g id="xtick_3">
     <g id="line2d_5">
      <path clip-path="url(#p541212b470)" d="M 205.076054 307.584 
L 205.076054 41.472 
" style="fill:none;stroke:#b0b0b0;stroke-linecap:square;stroke-width:0.8;"/>
     </g>
     <g id="line2d_6">
      <g>
       <use style="stroke:#000000;stroke-width:0.8;" x="205.076054" xlink:href="#me9ee77459f" y="307.584"/>
      </g>
     </g>
     <g id="text_3">
      <!-- 20 -->
      <defs>
       <path d="M 19.1875 8.296875 
L 53.609375 8.296875 
L 53.609375 0 
L 7.328125 0 
L 7.328125 8.296875 
Q 12.9375 14.109375 22.625 23.890625 
Q 32.328125 33.6875 34.8125 36.53125 
Q 39.546875 41.84375 41.421875 45.53125 
Q 43.3125 49.21875 43.3125 52.78125 
Q 43.3125 58.59375 39.234375 62.25 
Q 35.15625 65.921875 28.609375 65.921875 
Q 23.96875 65.921875 18.8125 64.3125 
Q 13.671875 62.703125 7.8125 59.421875 
L 7.8125 69.390625 
Q 13.765625 71.78125 18.9375 73 
Q 24.125 74.21875 28.421875 74.21875 
Q 39.75 74.21875 46.484375 68.546875 
Q 53.21875 62.890625 53.21875 53.421875 
Q 53.21875 48.921875 51.53125 44.890625 
Q 49.859375 40.875 45.40625 35.40625 
Q 44.1875 33.984375 37.640625 27.21875 
Q 31.109375 20.453125 19.1875 8.296875 
z
" id="DejaVuSans-50"/>
      </defs>
      <g transform="translate(198.713554 322.182437)scale(0.1 -0.1)">
       <use xlink:href="#DejaVuSans-50"/>
       <use x="63.623047" xlink:href="#DejaVuSans-48"/>
      </g>
     </g>
    </g>
    <g id="xtick_4">
     <g id="line2d_7">
      <path clip-path="url(#p541212b470)" d="M 274.151489 307.584 
L 274.151489 41.472 
" style="fill:none;stroke:#b0b0b0;stroke-linecap:square;stroke-width:0.8;"/>
     </g>
     <g id="line2d_8">
      <g>
       <use style="stroke:#000000;stroke-width:0.8;" x="274.151489" xlink:href="#me9ee77459f" y="307.584"/>
      </g>
     </g>
     <g id="text_4">
      <!-- 30 -->
      <defs>
       <path d="M 40.578125 39.3125 
Q 47.65625 37.796875 51.625 33 
Q 55.609375 28.21875 55.609375 21.1875 
Q 55.609375 10.40625 48.1875 4.484375 
Q 40.765625 -1.421875 27.09375 -1.421875 
Q 22.515625 -1.421875 17.65625 -0.515625 
Q 12.796875 0.390625 7.625 2.203125 
L 7.625 11.71875 
Q 11.71875 9.328125 16.59375 8.109375 
Q 21.484375 6.890625 26.8125 6.890625 
Q 36.078125 6.890625 40.9375 10.546875 
Q 45.796875 14.203125 45.796875 21.1875 
Q 45.796875 27.640625 41.28125 31.265625 
Q 36.765625 34.90625 28.71875 34.90625 
L 20.21875 34.90625 
L 20.21875 43.015625 
L 29.109375 43.015625 
Q 36.375 43.015625 40.234375 45.921875 
Q 44.09375 48.828125 44.09375 54.296875 
Q 44.09375 59.90625 40.109375 62.90625 
Q 36.140625 65.921875 28.71875 65.921875 
Q 24.65625 65.921875 20.015625 65.03125 
Q 15.375 64.15625 9.8125 62.3125 
L 9.8125 71.09375 
Q 15.4375 72.65625 20.34375 73.4375 
Q 25.25 74.21875 29.59375 74.21875 
Q 40.828125 74.21875 47.359375 69.109375 
Q 53.90625 64.015625 53.90625 55.328125 
Q 53.90625 49.265625 50.4375 45.09375 
Q 46.96875 40.921875 40.578125 39.3125 
z
" id="DejaVuSans-51"/>
      </defs>
      <g transform="translate(267.788989 322.182437)scale(0.1 -0.1)">
       <use xlink:href="#DejaVuSans-51"/>
       <use x="63.623047" xlink:href="#DejaVuSans-48"/>
      </g>
     </g>
    </g>
    <g id="xtick_5">
     <g id="line2d_9">
      <path clip-path="url(#p541212b470)" d="M 343.226925 307.584 
L 343.226925 41.472 
" style="fill:none;stroke:#b0b0b0;stroke-linecap:square;stroke-width:0.8;"/>
     </g>
     <g id="line2d_10">
      <g>
       <use style="stroke:#000000;stroke-width:0.8;" x="343.226925" xlink:href="#me9ee77459f" y="307.584"/>
      </g>
     </g>
     <g id="text_5">
      <!-- 40 -->
      <defs>
       <path d="M 37.796875 64.3125 
L 12.890625 25.390625 
L 37.796875 25.390625 
z
M 35.203125 72.90625 
L 47.609375 72.90625 
L 47.609375 25.390625 
L 58.015625 25.390625 
L 58.015625 17.1875 
L 47.609375 17.1875 
L 47.609375 0 
L 37.796875 0 
L 37.796875 17.1875 
L 4.890625 17.1875 
L 4.890625 26.703125 
z
" id="DejaVuSans-52"/>
      </defs>
      <g transform="translate(336.864425 322.182437)scale(0.1 -0.1)">
       <use xlink:href="#DejaVuSans-52"/>
       <use x="63.623047" xlink:href="#DejaVuSans-48"/>
      </g>
     </g>
    </g>
    <g id="xtick_6">
     <g id="line2d_11">
      <path clip-path="url(#p541212b470)" d="M 412.30236 307.584 
L 412.30236 41.472 
" style="fill:none;stroke:#b0b0b0;stroke-linecap:square;stroke-width:0.8;"/>
     </g>
     <g id="line2d_12">
      <g>
       <use style="stroke:#000000;stroke-width:0.8;" x="412.30236" xlink:href="#me9ee77459f" y="307.584"/>
      </g>
     </g>
     <g id="text_6">
      <!-- 50 -->
      <defs>
       <path d="M 10.796875 72.90625 
L 49.515625 72.90625 
L 49.515625 64.59375 
L 19.828125 64.59375 
L 19.828125 46.734375 
Q 21.96875 47.46875 24.109375 47.828125 
Q 26.265625 48.1875 28.421875 48.1875 
Q 40.625 48.1875 47.75 41.5 
Q 54.890625 34.8125 54.890625 23.390625 
Q 54.890625 11.625 47.5625 5.09375 
Q 40.234375 -1.421875 26.90625 -1.421875 
Q 22.3125 -1.421875 17.546875 -0.640625 
Q 12.796875 0.140625 7.71875 1.703125 
L 7.71875 11.625 
Q 12.109375 9.234375 16.796875 8.0625 
Q 21.484375 6.890625 26.703125 6.890625 
Q 35.15625 6.890625 40.078125 11.328125 
Q 45.015625 15.765625 45.015625 23.390625 
Q 45.015625 31 40.078125 35.4375 
Q 35.15625 39.890625 26.703125 39.890625 
Q 22.75 39.890625 18.8125 39.015625 
Q 14.890625 38.140625 10.796875 36.28125 
z
" id="DejaVuSans-53"/>
      </defs>
      <g transform="translate(405.93986 322.182437)scale(0.1 -0.1)">
       <use xlink:href="#DejaVuSans-53"/>
       <use x="63.623047" xlink:href="#DejaVuSans-48"/>
      </g>
     </g>
    </g>
    <g id="text_7">
     <!-- number of threads -->
     <defs>
      <path d="M 54.890625 33.015625 
L 54.890625 0 
L 45.90625 0 
L 45.90625 32.71875 
Q 45.90625 40.484375 42.875 44.328125 
Q 39.84375 48.1875 33.796875 48.1875 
Q 26.515625 48.1875 22.3125 43.546875 
Q 18.109375 38.921875 18.109375 30.90625 
L 18.109375 0 
L 9.078125 0 
L 9.078125 54.6875 
L 18.109375 54.6875 
L 18.109375 46.1875 
Q 21.34375 51.125 25.703125 53.5625 
Q 30.078125 56 35.796875 56 
Q 45.21875 56 50.046875 50.171875 
Q 54.890625 44.34375 54.890625 33.015625 
z
" id="DejaVuSans-110"/>
      <path d="M 8.5 21.578125 
L 8.5 54.6875 
L 17.484375 54.6875 
L 17.484375 21.921875 
Q 17.484375 14.15625 20.5 10.265625 
Q 23.53125 6.390625 29.59375 6.390625 
Q 36.859375 6.390625 41.078125 11.03125 
Q 45.3125 15.671875 45.3125 23.6875 
L 45.3125 54.6875 
L 54.296875 54.6875 
L 54.296875 0 
L 45.3125 0 
L 45.3125 8.40625 
Q 42.046875 3.421875 37.71875 1 
Q 33.40625 -1.421875 27.6875 -1.421875 
Q 18.265625 -1.421875 13.375 4.4375 
Q 8.5 10.296875 8.5 21.578125 
z
M 31.109375 56 
z
" id="DejaVuSans-117"/>
      <path d="M 52 44.1875 
Q 55.375 50.25 60.0625 53.125 
Q 64.75 56 71.09375 56 
Q 79.640625 56 84.28125 50.015625 
Q 88.921875 44.046875 88.921875 33.015625 
L 88.921875 0 
L 79.890625 0 
L 79.890625 32.71875 
Q 79.890625 40.578125 77.09375 44.375 
Q 74.3125 48.1875 68.609375 48.1875 
Q 61.625 48.1875 57.5625 43.546875 
Q 53.515625 38.921875 53.515625 30.90625 
L 53.515625 0 
L 44.484375 0 
L 44.484375 32.71875 
Q 44.484375 40.625 41.703125 44.40625 
Q 38.921875 48.1875 33.109375 48.1875 
Q 26.21875 48.1875 22.15625 43.53125 
Q 18.109375 38.875 18.109375 30.90625 
L 18.109375 0 
L 9.078125 0 
L 9.078125 54.6875 
L 18.109375 54.6875 
L 18.109375 46.1875 
Q 21.1875 51.21875 25.484375 53.609375 
Q 29.78125 56 35.6875 56 
Q 41.65625 56 45.828125 52.96875 
Q 50 49.953125 52 44.1875 
z
" id="DejaVuSans-109"/>
      <path d="M 48.6875 27.296875 
Q 48.6875 37.203125 44.609375 42.84375 
Q 40.53125 48.484375 33.40625 48.484375 
Q 26.265625 48.484375 22.1875 42.84375 
Q 18.109375 37.203125 18.109375 27.296875 
Q 18.109375 17.390625 22.1875 11.75 
Q 26.265625 6.109375 33.40625 6.109375 
Q 40.53125 6.109375 44.609375 11.75 
Q 48.6875 17.390625 48.6875 27.296875 
z
M 18.109375 46.390625 
Q 20.953125 51.265625 25.265625 53.625 
Q 29.59375 56 35.59375 56 
Q 45.5625 56 51.78125 48.09375 
Q 58.015625 40.1875 58.015625 27.296875 
Q 58.015625 14.40625 51.78125 6.484375 
Q 45.5625 -1.421875 35.59375 -1.421875 
Q 29.59375 -1.421875 25.265625 0.953125 
Q 20.953125 3.328125 18.109375 8.203125 
L 18.109375 0 
L 9.078125 0 
L 9.078125 75.984375 
L 18.109375 75.984375 
z
" id="DejaVuSans-98"/>
      <path d="M 56.203125 29.59375 
L 56.203125 25.203125 
L 14.890625 25.203125 
Q 15.484375 15.921875 20.484375 11.0625 
Q 25.484375 6.203125 34.421875 6.203125 
Q 39.59375 6.203125 44.453125 7.46875 
Q 49.3125 8.734375 54.109375 11.28125 
L 54.109375 2.78125 
Q 49.265625 0.734375 44.1875 -0.34375 
Q 39.109375 -1.421875 33.890625 -1.421875 
Q 20.796875 -1.421875 13.15625 6.1875 
Q 5.515625 13.8125 5.515625 26.8125 
Q 5.515625 40.234375 12.765625 48.109375 
Q 20.015625 56 32.328125 56 
Q 43.359375 56 49.78125 48.890625 
Q 56.203125 41.796875 56.203125 29.59375 
z
M 47.21875 32.234375 
Q 47.125 39.59375 43.09375 43.984375 
Q 39.0625 48.390625 32.421875 48.390625 
Q 24.90625 48.390625 20.390625 44.140625 
Q 15.875 39.890625 15.1875 32.171875 
z
" id="DejaVuSans-101"/>
      <path d="M 41.109375 46.296875 
Q 39.59375 47.171875 37.8125 47.578125 
Q 36.03125 48 33.890625 48 
Q 26.265625 48 22.1875 43.046875 
Q 18.109375 38.09375 18.109375 28.8125 
L 18.109375 0 
L 9.078125 0 
L 9.078125 54.6875 
L 18.109375 54.6875 
L 18.109375 46.1875 
Q 20.953125 51.171875 25.484375 53.578125 
Q 30.03125 56 36.53125 56 
Q 37.453125 56 38.578125 55.875 
Q 39.703125 55.765625 41.0625 55.515625 
z
" id="DejaVuSans-114"/>
      <path id="DejaVuSans-32"/>
      <path d="M 30.609375 48.390625 
Q 23.390625 48.390625 19.1875 42.75 
Q 14.984375 37.109375 14.984375 27.296875 
Q 14.984375 17.484375 19.15625 11.84375 
Q 23.34375 6.203125 30.609375 6.203125 
Q 37.796875 6.203125 41.984375 11.859375 
Q 46.1875 17.53125 46.1875 27.296875 
Q 46.1875 37.015625 41.984375 42.703125 
Q 37.796875 48.390625 30.609375 48.390625 
z
M 30.609375 56 
Q 42.328125 56 49.015625 48.375 
Q 55.71875 40.765625 55.71875 27.296875 
Q 55.71875 13.875 49.015625 6.21875 
Q 42.328125 -1.421875 30.609375 -1.421875 
Q 18.84375 -1.421875 12.171875 6.21875 
Q 5.515625 13.875 5.515625 27.296875 
Q 5.515625 40.765625 12.171875 48.375 
Q 18.84375 56 30.609375 56 
z
" id="DejaVuSans-111"/>
      <path d="M 37.109375 75.984375 
L 37.109375 68.5 
L 28.515625 68.5 
Q 23.6875 68.5 21.796875 66.546875 
Q 19.921875 64.59375 19.921875 59.515625 
L 19.921875 54.6875 
L 34.71875 54.6875 
L 34.71875 47.703125 
L 19.921875 47.703125 
L 19.921875 0 
L 10.890625 0 
L 10.890625 47.703125 
L 2.296875 47.703125 
L 2.296875 54.6875 
L 10.890625 54.6875 
L 10.890625 58.5 
Q 10.890625 67.625 15.140625 71.796875 
Q 19.390625 75.984375 28.609375 75.984375 
z
" id="DejaVuSans-102"/>
      <path d="M 18.3125 70.21875 
L 18.3125 54.6875 
L 36.8125 54.6875 
L 36.8125 47.703125 
L 18.3125 47.703125 
L 18.3125 18.015625 
Q 18.3125 11.328125 20.140625 9.421875 
Q 21.96875 7.515625 27.59375 7.515625 
L 36.8125 7.515625 
L 36.8125 0 
L 27.59375 0 
Q 17.1875 0 13.234375 3.875 
Q 9.28125 7.765625 9.28125 18.015625 
L 9.28125 47.703125 
L 2.6875 47.703125 
L 2.6875 54.6875 
L 9.28125 54.6875 
L 9.28125 70.21875 
z
" id="DejaVuSans-116"/>
      <path d="M 54.890625 33.015625 
L 54.890625 0 
L 45.90625 0 
L 45.90625 32.71875 
Q 45.90625 40.484375 42.875 44.328125 
Q 39.84375 48.1875 33.796875 48.1875 
Q 26.515625 48.1875 22.3125 43.546875 
Q 18.109375 38.921875 18.109375 30.90625 
L 18.109375 0 
L 9.078125 0 
L 9.078125 75.984375 
L 18.109375 75.984375 
L 18.109375 46.1875 
Q 21.34375 51.125 25.703125 53.5625 
Q 30.078125 56 35.796875 56 
Q 45.21875 56 50.046875 50.171875 
Q 54.890625 44.34375 54.890625 33.015625 
z
" id="DejaVuSans-104"/>
      <path d="M 34.28125 27.484375 
Q 23.390625 27.484375 19.1875 25 
Q 14.984375 22.515625 14.984375 16.5 
Q 14.984375 11.71875 18.140625 8.90625 
Q 21.296875 6.109375 26.703125 6.109375 
Q 34.1875 6.109375 38.703125 11.40625 
Q 43.21875 16.703125 43.21875 25.484375 
L 43.21875 27.484375 
z
M 52.203125 31.203125 
L 52.203125 0 
L 43.21875 0 
L 43.21875 8.296875 
Q 40.140625 3.328125 35.546875 0.953125 
Q 30.953125 -1.421875 24.3125 -1.421875 
Q 15.921875 -1.421875 10.953125 3.296875 
Q 6 8.015625 6 15.921875 
Q 6 25.140625 12.171875 29.828125 
Q 18.359375 34.515625 30.609375 34.515625 
L 43.21875 34.515625 
L 43.21875 35.40625 
Q 43.21875 41.609375 39.140625 45 
Q 35.0625 48.390625 27.6875 48.390625 
Q 23 48.390625 18.546875 47.265625 
Q 14.109375 46.140625 10.015625 43.890625 
L 10.015625 52.203125 
Q 14.9375 54.109375 19.578125 55.046875 
Q 24.21875 56 28.609375 56 
Q 40.484375 56 46.34375 49.84375 
Q 52.203125 43.703125 52.203125 31.203125 
z
" id="DejaVuSans-97"/>
      <path d="M 45.40625 46.390625 
L 45.40625 75.984375 
L 54.390625 75.984375 
L 54.390625 0 
L 45.40625 0 
L 45.40625 8.203125 
Q 42.578125 3.328125 38.25 0.953125 
Q 33.9375 -1.421875 27.875 -1.421875 
Q 17.96875 -1.421875 11.734375 6.484375 
Q 5.515625 14.40625 5.515625 27.296875 
Q 5.515625 40.1875 11.734375 48.09375 
Q 17.96875 56 27.875 56 
Q 33.9375 56 38.25 53.625 
Q 42.578125 51.265625 45.40625 46.390625 
z
M 14.796875 27.296875 
Q 14.796875 17.390625 18.875 11.75 
Q 22.953125 6.109375 30.078125 6.109375 
Q 37.203125 6.109375 41.296875 11.75 
Q 45.40625 17.390625 45.40625 27.296875 
Q 45.40625 37.203125 41.296875 42.84375 
Q 37.203125 48.484375 30.078125 48.484375 
Q 22.953125 48.484375 18.875 42.84375 
Q 14.796875 37.203125 14.796875 27.296875 
z
" id="DejaVuSans-100"/>
      <path d="M 44.28125 53.078125 
L 44.28125 44.578125 
Q 40.484375 46.53125 36.375 47.5 
Q 32.28125 48.484375 27.875 48.484375 
Q 21.1875 48.484375 17.84375 46.4375 
Q 14.5 44.390625 14.5 40.28125 
Q 14.5 37.15625 16.890625 35.375 
Q 19.28125 33.59375 26.515625 31.984375 
L 29.59375 31.296875 
Q 39.15625 29.25 43.1875 25.515625 
Q 47.21875 21.78125 47.21875 15.09375 
Q 47.21875 7.46875 41.1875 3.015625 
Q 35.15625 -1.421875 24.609375 -1.421875 
Q 20.21875 -1.421875 15.453125 -0.5625 
Q 10.6875 0.296875 5.421875 2 
L 5.421875 11.28125 
Q 10.40625 8.6875 15.234375 7.390625 
Q 20.0625 6.109375 24.8125 6.109375 
Q 31.15625 6.109375 34.5625 8.28125 
Q 37.984375 10.453125 37.984375 14.40625 
Q 37.984375 18.0625 35.515625 20.015625 
Q 33.0625 21.96875 24.703125 23.78125 
L 21.578125 24.515625 
Q 13.234375 26.265625 9.515625 29.90625 
Q 5.8125 33.546875 5.8125 39.890625 
Q 5.8125 47.609375 11.28125 51.796875 
Q 16.75 56 26.8125 56 
Q 31.78125 56 36.171875 55.265625 
Q 40.578125 54.546875 44.28125 53.078125 
z
" id="DejaVuSans-115"/>
     </defs>
     <g transform="translate(189.656875 335.860562)scale(0.1 -0.1)">
      <use xlink:href="#DejaVuSans-110"/>
      <use x="63.378906" xlink:href="#DejaVuSans-117"/>
      <use x="126.757812" xlink:href="#DejaVuSans-109"/>
      <use x="224.169922" xlink:href="#DejaVuSans-98"/>
      <use x="287.646484" xlink:href="#DejaVuSans-101"/>
      <use x="349.169922" xlink:href="#DejaVuSans-114"/>
      <use x="390.283203" xlink:href="#DejaVuSans-32"/>
      <use x="422.070312" xlink:href="#DejaVuSans-111"/>
      <use x="483.251953" xlink:href="#DejaVuSans-102"/>
      <use x="518.457031" xlink:href="#DejaVuSans-32"/>
      <use x="550.244141" xlink:href="#DejaVuSans-116"/>
      <use x="589.453125" xlink:href="#DejaVuSans-104"/>
      <use x="652.832031" xlink:href="#DejaVuSans-114"/>
      <use x="691.695312" xlink:href="#DejaVuSans-101"/>
      <use x="753.21875" xlink:href="#DejaVuSans-97"/>
      <use x="814.498047" xlink:href="#DejaVuSans-100"/>
      <use x="877.974609" xlink:href="#DejaVuSans-115"/>
     </g>
    </g>
   </g>
   <g id="matplotlib.axis_2">
    <g id="ytick_1">
     <g id="line2d_13">
      <path clip-path="url(#p541212b470)" d="M 57.6 306.143742 
L 414.72 306.143742 
" style="fill:none;stroke:#b0b0b0;stroke-linecap:square;stroke-width:0.8;"/>
     </g>
     <g id="line2d_14">
      <defs>
       <path d="M 0 0 
L -3.5 0 
" id="m189501fb6a" style="stroke:#000000;stroke-width:0.8;"/>
      </defs>
      <g>
       <use style="stroke:#000000;stroke-width:0.8;" x="57.6" xlink:href="#m189501fb6a" y="306.143742"/>
      </g>
     </g>
     <g id="text_8">
      <!-- 0.0 -->
      <defs>
       <path d="M 10.6875 12.40625 
L 21 12.40625 
L 21 0 
L 10.6875 0 
z
" id="DejaVuSans-46"/>
      </defs>
      <g transform="translate(34.696875 309.942961)scale(0.1 -0.1)">
       <use xlink:href="#DejaVuSans-48"/>
       <use x="63.623047" xlink:href="#DejaVuSans-46"/>
       <use x="95.410156" xlink:href="#DejaVuSans-48"/>
      </g>
     </g>
    </g>
    <g id="ytick_2">
     <g id="line2d_15">
      <path clip-path="url(#p541212b470)" d="M 57.6 275.686079 
L 414.72 275.686079 
" style="fill:none;stroke:#b0b0b0;stroke-linecap:square;stroke-width:0.8;"/>
     </g>
     <g id="line2d_16">
      <g>
       <use style="stroke:#000000;stroke-width:0.8;" x="57.6" xlink:href="#m189501fb6a" y="275.686079"/>
      </g>
     </g>
     <g id="text_9">
      <!-- 2.5 -->
      <g transform="translate(34.696875 279.485298)scale(0.1 -0.1)">
       <use xlink:href="#DejaVuSans-50"/>
       <use x="63.623047" xlink:href="#DejaVuSans-46"/>
       <use x="95.410156" xlink:href="#DejaVuSans-53"/>
      </g>
     </g>
    </g>
    <g id="ytick_3">
     <g id="line2d_17">
      <path clip-path="url(#p541212b470)" d="M 57.6 245.228416 
L 414.72 245.228416 
" style="fill:none;stroke:#b0b0b0;stroke-linecap:square;stroke-width:0.8;"/>
     </g>
     <g id="line2d_18">
      <g>
       <use style="stroke:#000000;stroke-width:0.8;" x="57.6" xlink:href="#m189501fb6a" y="245.228416"/>
      </g>
     </g>
     <g id="text_10">
      <!-- 5.0 -->
      <g transform="translate(34.696875 249.027635)scale(0.1 -0.1)">
       <use xlink:href="#DejaVuSans-53"/>
       <use x="63.623047" xlink:href="#DejaVuSans-46"/>
       <use x="95.410156" xlink:href="#DejaVuSans-48"/>
      </g>
     </g>
    </g>
    <g id="ytick_4">
     <g id="line2d_19">
      <path clip-path="url(#p541212b470)" d="M 57.6 214.770753 
L 414.72 214.770753 
" style="fill:none;stroke:#b0b0b0;stroke-linecap:square;stroke-width:0.8;"/>
     </g>
     <g id="line2d_20">
      <g>
       <use style="stroke:#000000;stroke-width:0.8;" x="57.6" xlink:href="#m189501fb6a" y="214.770753"/>
      </g>
     </g>
     <g id="text_11">
      <!-- 7.5 -->
      <defs>
       <path d="M 8.203125 72.90625 
L 55.078125 72.90625 
L 55.078125 68.703125 
L 28.609375 0 
L 18.3125 0 
L 43.21875 64.59375 
L 8.203125 64.59375 
z
" id="DejaVuSans-55"/>
      </defs>
      <g transform="translate(34.696875 218.569972)scale(0.1 -0.1)">
       <use xlink:href="#DejaVuSans-55"/>
       <use x="63.623047" xlink:href="#DejaVuSans-46"/>
       <use x="95.410156" xlink:href="#DejaVuSans-53"/>
      </g>
     </g>
    </g>
    <g id="ytick_5">
     <g id="line2d_21">
      <path clip-path="url(#p541212b470)" d="M 57.6 184.31309 
L 414.72 184.31309 
" style="fill:none;stroke:#b0b0b0;stroke-linecap:square;stroke-width:0.8;"/>
     </g>
     <g id="line2d_22">
      <g>
       <use style="stroke:#000000;stroke-width:0.8;" x="57.6" xlink:href="#m189501fb6a" y="184.31309"/>
      </g>
     </g>
     <g id="text_12">
      <!-- 10.0 -->
      <g transform="translate(28.334375 188.112309)scale(0.1 -0.1)">
       <use xlink:href="#DejaVuSans-49"/>
       <use x="63.623047" xlink:href="#DejaVuSans-48"/>
       <use x="127.246094" xlink:href="#DejaVuSans-46"/>
       <use x="159.033203" xlink:href="#DejaVuSans-48"/>
      </g>
     </g>
    </g>
    <g id="ytick_6">
     <g id="line2d_23">
      <path clip-path="url(#p541212b470)" d="M 57.6 153.855427 
L 414.72 153.855427 
" style="fill:none;stroke:#b0b0b0;stroke-linecap:square;stroke-width:0.8;"/>
     </g>
     <g id="line2d_24">
      <g>
       <use style="stroke:#000000;stroke-width:0.8;" x="57.6" xlink:href="#m189501fb6a" y="153.855427"/>
      </g>
     </g>
     <g id="text_13">
      <!-- 12.5 -->
      <g transform="translate(28.334375 157.654646)scale(0.1 -0.1)">
       <use xlink:href="#DejaVuSans-49"/>
       <use x="63.623047" xlink:href="#DejaVuSans-50"/>
       <use x="127.246094" xlink:href="#DejaVuSans-46"/>
       <use x="159.033203" xlink:href="#DejaVuSans-53"/>
      </g>
     </g>
    </g>
    <g id="ytick_7">
     <g id="line2d_25">
      <path clip-path="url(#p541212b470)" d="M 57.6 123.397764 
L 414.72 123.397764 
" style="fill:none;stroke:#b0b0b0;stroke-linecap:square;stroke-width:0.8;"/>
     </g>
     <g id="line2d_26">
      <g>
       <use style="stroke:#000000;stroke-width:0.8;" x="57.6" xlink:href="#m189501fb6a" y="123.397764"/>
      </g>
     </g>
     <g id="text_14">
      <!-- 15.0 -->
      <g transform="translate(28.334375 127.196983)scale(0.1 -0.1)">
       <use xlink:href="#DejaVuSans-49"/>
       <use x="63.623047" xlink:href="#DejaVuSans-53"/>
       <use x="127.246094" xlink:href="#DejaVuSans-46"/>
       <use x="159.033203" xlink:href="#DejaVuSans-48"/>
      </g>
     </g>
    </g>
    <g id="ytick_8">
     <g id="line2d_27">
      <path clip-path="url(#p541212b470)" d="M 57.6 92.940101 
L 414.72 92.940101 
" style="fill:none;stroke:#b0b0b0;stroke-linecap:square;stroke-width:0.8;"/>
     </g>
     <g id="line2d_28">
      <g>
       <use style="stroke:#000000;stroke-width:0.8;" x="57.6" xlink:href="#m189501fb6a" y="92.940101"/>
      </g>
     </g>
     <g id="text_15">
      <!-- 17.5 -->
      <g transform="translate(28.334375 96.73932)scale(0.1 -0.1)">
       <use xlink:href="#DejaVuSans-49"/>
       <use x="63.623047" xlink:href="#DejaVuSans-55"/>
       <use x="127.246094" xlink:href="#DejaVuSans-46"/>
       <use x="159.033203" xlink:href="#DejaVuSans-53"/>
      </g>
     </g>
    </g>
    <g id="ytick_9">
     <g id="line2d_29">
      <path clip-path="url(#p541212b470)" d="M 57.6 62.482438 
L 414.72 62.482438 
" style="fill:none;stroke:#b0b0b0;stroke-linecap:square;stroke-width:0.8;"/>
     </g>
     <g id="line2d_30">
      <g>
       <use style="stroke:#000000;stroke-width:0.8;" x="57.6" xlink:href="#m189501fb6a" y="62.482438"/>
      </g>
     </g>
     <g id="text_16">
      <!-- 20.0 -->
      <g transform="translate(28.334375 66.281657)scale(0.1 -0.1)">
       <use xlink:href="#DejaVuSans-50"/>
       <use x="63.623047" xlink:href="#DejaVuSans-48"/>
       <use x="127.246094" xlink:href="#DejaVuSans-46"/>
       <use x="159.033203" xlink:href="#DejaVuSans-48"/>
      </g>
     </g>
    </g>
    <g id="text_17">
     <!-- speed-up -->
     <defs>
      <path d="M 18.109375 8.203125 
L 18.109375 -20.796875 
L 9.078125 -20.796875 
L 9.078125 54.6875 
L 18.109375 54.6875 
L 18.109375 46.390625 
Q 20.953125 51.265625 25.265625 53.625 
Q 29.59375 56 35.59375 56 
Q 45.5625 56 51.78125 48.09375 
Q 58.015625 40.1875 58.015625 27.296875 
Q 58.015625 14.40625 51.78125 6.484375 
Q 45.5625 -1.421875 35.59375 -1.421875 
Q 29.59375 -1.421875 25.265625 0.953125 
Q 20.953125 3.328125 18.109375 8.203125 
z
M 48.6875 27.296875 
Q 48.6875 37.203125 44.609375 42.84375 
Q 40.53125 48.484375 33.40625 48.484375 
Q 26.265625 48.484375 22.1875 42.84375 
Q 18.109375 37.203125 18.109375 27.296875 
Q 18.109375 17.390625 22.1875 11.75 
Q 26.265625 6.109375 33.40625 6.109375 
Q 40.53125 6.109375 44.609375 11.75 
Q 48.6875 17.390625 48.6875 27.296875 
z
" id="DejaVuSans-112"/>
      <path d="M 4.890625 31.390625 
L 31.203125 31.390625 
L 31.203125 23.390625 
L 4.890625 23.390625 
z
" id="DejaVuSans-45"/>
     </defs>
     <g transform="translate(22.254687 197.781125)rotate(-90)scale(0.1 -0.1)">
      <use xlink:href="#DejaVuSans-115"/>
      <use x="52.099609" xlink:href="#DejaVuSans-112"/>
      <use x="115.576172" xlink:href="#DejaVuSans-101"/>
      <use x="177.099609" xlink:href="#DejaVuSans-101"/>
      <use x="238.623047" xlink:href="#DejaVuSans-100"/>
      <use x="302.099609" xlink:href="#DejaVuSans-45"/>
      <use x="338.183594" xlink:href="#DejaVuSans-117"/>
      <use x="401.5625" xlink:href="#DejaVuSans-112"/>
     </g>
    </g>
   </g>
   <g id="line2d_31">
    <path clip-path="url(#p541212b470)" d="M 73.832727 294.029899 
L 80.740271 290.666164 
L 87.647814 289.289699 
L 94.555358 288.450494 
L 101.462901 287.843 
L 108.370445 287.150099 
L 115.277988 286.717442 
L 122.185532 286.583775 
L 129.093075 290.524428 
L 136.000619 287.604295 
L 142.908162 286.124621 
L 149.815706 285.886864 
L 156.72325 285.790173 
L 163.630793 285.886864 
L 170.538337 285.692554 
L 177.44588 285.643392 
L 184.353424 285.544357 
L 191.260967 285.494479 
L 198.168511 285.393996 
L 205.076054 285.544357 
L 211.983598 285.494479 
L 218.891141 285.29253 
L 225.798685 285.29253 
L 232.706228 285.343387 
L 239.613772 285.190067 
L 246.521315 285.44436 
L 253.428859 285.190067 
L 260.336402 285.343387 
L 267.243946 285.692554 
L 274.151489 285.74148 
L 281.059033 285.790173 
L 287.966576 285.692554 
L 294.87412 285.74148 
L 301.781663 285.692554 
L 308.689207 285.668002 
L 315.59675 285.643392 
L 322.504294 285.618723 
L 329.411838 285.593994 
L 336.319381 285.569205 
L 343.226925 285.544357 
L 350.134468 285.519448 
L 357.042012 285.494479 
L 363.949555 285.46945 
L 370.857099 285.44436 
L 377.764642 285.419208 
L 384.672186 285.393996 
L 391.579729 285.368722 
L 398.487273 285.343387 
" style="fill:none;stroke:#1f77b4;stroke-linecap:square;stroke-width:1.5;"/>
    <defs>
     <path d="M 0 1.5 
C 0.397805 1.5 0.77937 1.341951 1.06066 1.06066 
C 1.341951 0.77937 1.5 0.397805 1.5 0 
C 1.5 -0.397805 1.341951 -0.77937 1.06066 -1.06066 
C 0.77937 -1.341951 0.397805 -1.5 0 -1.5 
C -0.397805 -1.5 -0.77937 -1.341951 -1.06066 -1.06066 
C -1.341951 -0.77937 -1.5 -0.397805 -1.5 0 
C -1.5 0.397805 -1.341951 0.77937 -1.06066 1.06066 
C -0.77937 1.341951 -0.397805 1.5 0 1.5 
z
" id="m900268cb49" style="stroke:#1f77b4;"/>
    </defs>
    <g clip-path="url(#p541212b470)">
     <use style="fill:#1f77b4;stroke:#1f77b4;" x="73.832727" xlink:href="#m900268cb49" y="294.029899"/>
     <use style="fill:#1f77b4;stroke:#1f77b4;" x="80.740271" xlink:href="#m900268cb49" y="290.666164"/>
     <use style="fill:#1f77b4;stroke:#1f77b4;" x="87.647814" xlink:href="#m900268cb49" y="289.289699"/>
     <use style="fill:#1f77b4;stroke:#1f77b4;" x="94.555358" xlink:href="#m900268cb49" y="288.450494"/>
     <use style="fill:#1f77b4;stroke:#1f77b4;" x="101.462901" xlink:href="#m900268cb49" y="287.843"/>
     <use style="fill:#1f77b4;stroke:#1f77b4;" x="108.370445" xlink:href="#m900268cb49" y="287.150099"/>
     <use style="fill:#1f77b4;stroke:#1f77b4;" x="115.277988" xlink:href="#m900268cb49" y="286.717442"/>
     <use style="fill:#1f77b4;stroke:#1f77b4;" x="122.185532" xlink:href="#m900268cb49" y="286.583775"/>
     <use style="fill:#1f77b4;stroke:#1f77b4;" x="129.093075" xlink:href="#m900268cb49" y="290.524428"/>
     <use style="fill:#1f77b4;stroke:#1f77b4;" x="136.000619" xlink:href="#m900268cb49" y="287.604295"/>
     <use style="fill:#1f77b4;stroke:#1f77b4;" x="142.908162" xlink:href="#m900268cb49" y="286.124621"/>
     <use style="fill:#1f77b4;stroke:#1f77b4;" x="149.815706" xlink:href="#m900268cb49" y="285.886864"/>
     <use style="fill:#1f77b4;stroke:#1f77b4;" x="156.72325" xlink:href="#m900268cb49" y="285.790173"/>
     <use style="fill:#1f77b4;stroke:#1f77b4;" x="163.630793" xlink:href="#m900268cb49" y="285.886864"/>
     <use style="fill:#1f77b4;stroke:#1f77b4;" x="170.538337" xlink:href="#m900268cb49" y="285.692554"/>
     <use style="fill:#1f77b4;stroke:#1f77b4;" x="177.44588" xlink:href="#m900268cb49" y="285.643392"/>
     <use style="fill:#1f77b4;stroke:#1f77b4;" x="184.353424" xlink:href="#m900268cb49" y="285.544357"/>
     <use style="fill:#1f77b4;stroke:#1f77b4;" x="191.260967" xlink:href="#m900268cb49" y="285.494479"/>
     <use style="fill:#1f77b4;stroke:#1f77b4;" x="198.168511" xlink:href="#m900268cb49" y="285.393996"/>
     <use style="fill:#1f77b4;stroke:#1f77b4;" x="205.076054" xlink:href="#m900268cb49" y="285.544357"/>
     <use style="fill:#1f77b4;stroke:#1f77b4;" x="211.983598" xlink:href="#m900268cb49" y="285.494479"/>
     <use style="fill:#1f77b4;stroke:#1f77b4;" x="218.891141" xlink:href="#m900268cb49" y="285.29253"/>
     <use style="fill:#1f77b4;stroke:#1f77b4;" x="225.798685" xlink:href="#m900268cb49" y="285.29253"/>
     <use style="fill:#1f77b4;stroke:#1f77b4;" x="232.706228" xlink:href="#m900268cb49" y="285.343387"/>
     <use style="fill:#1f77b4;stroke:#1f77b4;" x="239.613772" xlink:href="#m900268cb49" y="285.190067"/>
     <use style="fill:#1f77b4;stroke:#1f77b4;" x="246.521315" xlink:href="#m900268cb49" y="285.44436"/>
     <use style="fill:#1f77b4;stroke:#1f77b4;" x="253.428859" xlink:href="#m900268cb49" y="285.190067"/>
     <use style="fill:#1f77b4;stroke:#1f77b4;" x="260.336402" xlink:href="#m900268cb49" y="285.343387"/>
     <use style="fill:#1f77b4;stroke:#1f77b4;" x="267.243946" xlink:href="#m900268cb49" y="285.692554"/>
     <use style="fill:#1f77b4;stroke:#1f77b4;" x="274.151489" xlink:href="#m900268cb49" y="285.74148"/>
     <use style="fill:#1f77b4;stroke:#1f77b4;" x="281.059033" xlink:href="#m900268cb49" y="285.790173"/>
     <use style="fill:#1f77b4;stroke:#1f77b4;" x="287.966576" xlink:href="#m900268cb49" y="285.692554"/>
     <use style="fill:#1f77b4;stroke:#1f77b4;" x="294.87412" xlink:href="#m900268cb49" y="285.74148"/>
     <use style="fill:#1f77b4;stroke:#1f77b4;" x="301.781663" xlink:href="#m900268cb49" y="285.692554"/>
     <use style="fill:#1f77b4;stroke:#1f77b4;" x="308.689207" xlink:href="#m900268cb49" y="285.668002"/>
     <use style="fill:#1f77b4;stroke:#1f77b4;" x="315.59675" xlink:href="#m900268cb49" y="285.643392"/>
     <use style="fill:#1f77b4;stroke:#1f77b4;" x="322.504294" xlink:href="#m900268cb49" y="285.618723"/>
     <use style="fill:#1f77b4;stroke:#1f77b4;" x="329.411838" xlink:href="#m900268cb49" y="285.593994"/>
     <use style="fill:#1f77b4;stroke:#1f77b4;" x="336.319381" xlink:href="#m900268cb49" y="285.569205"/>
     <use style="fill:#1f77b4;stroke:#1f77b4;" x="343.226925" xlink:href="#m900268cb49" y="285.544357"/>
     <use style="fill:#1f77b4;stroke:#1f77b4;" x="350.134468" xlink:href="#m900268cb49" y="285.519448"/>
     <use style="fill:#1f77b4;stroke:#1f77b4;" x="357.042012" xlink:href="#m900268cb49" y="285.494479"/>
     <use style="fill:#1f77b4;stroke:#1f77b4;" x="363.949555" xlink:href="#m900268cb49" y="285.46945"/>
     <use style="fill:#1f77b4;stroke:#1f77b4;" x="370.857099" xlink:href="#m900268cb49" y="285.44436"/>
     <use style="fill:#1f77b4;stroke:#1f77b4;" x="377.764642" xlink:href="#m900268cb49" y="285.419208"/>
     <use style="fill:#1f77b4;stroke:#1f77b4;" x="384.672186" xlink:href="#m900268cb49" y="285.393996"/>
     <use style="fill:#1f77b4;stroke:#1f77b4;" x="391.579729" xlink:href="#m900268cb49" y="285.368722"/>
     <use style="fill:#1f77b4;stroke:#1f77b4;" x="398.487273" xlink:href="#m900268cb49" y="285.343387"/>
    </g>
   </g>
   <g id="line2d_32">
    <path clip-path="url(#p541212b470)" d="M 73.832727 294.043468 
L 80.740271 291.122442 
L 87.647814 291.044053 
L 94.555358 290.691256 
L 101.462901 287.902746 
L 108.370445 289.369957 
L 115.277988 290.964841 
L 122.185532 290.53496 
L 129.093075 288.765496 
L 136.000619 288.171829 
L 142.908162 287.845067 
L 149.815706 288.567566 
L 156.72325 293.248019 
L 163.630793 293.305238 
L 170.538337 293.269535 
L 177.44588 293.269535 
L 184.353424 293.28384 
L 191.260967 293.29098 
L 198.168511 293.397143 
L 205.076054 293.369005 
L 211.983598 293.411166 
L 218.891141 293.376051 
L 225.798685 293.369005 
L 232.706228 293.376051 
L 239.613772 293.369005 
L 246.521315 293.211997 
L 253.428859 293.168505 
L 260.336402 293.262371 
L 267.243946 293.255199 
L 274.151489 293.340742 
L 281.059033 293.255199 
L 287.966576 293.340742 
L 294.87412 293.535995 
L 301.781663 293.269535 
L 308.689207 293.29098 
L 315.59675 293.333657 
L 322.504294 293.276692 
L 329.411838 293.418166 
L 336.319381 293.28384 
L 343.226925 293.22643 
L 350.134468 293.276692 
L 357.042012 293.298113 
L 363.949555 293.361951 
L 370.857099 293.248019 
L 377.764642 293.248019 
L 384.672186 293.269535 
L 391.579729 293.29098 
L 398.487273 293.28384 
" style="fill:none;stroke:#ff7f0e;stroke-dasharray:5.55,2.4;stroke-dashoffset:0;stroke-width:1.5;"/>
   </g>
   <g id="line2d_33">
    <path clip-path="url(#p541212b470)" d="M 73.832727 293.298661 
L 80.740271 281.852354 
L 87.647814 271.48732 
L 94.555358 259.901451 
L 101.462901 254.215923 
L 108.370445 245.693419 
L 115.277988 237.432311 
L 122.185532 229.446479 
L 129.093075 218.641064 
L 136.000619 216.663602 
L 142.908162 213.252336 
L 149.815706 213.523948 
L 156.72325 211.30551 
L 163.630793 209.570664 
L 170.538337 209.570664 
L 177.44588 205.903332 
L 184.353424 195.388604 
L 191.260967 195.77451 
L 198.168511 199.130332 
L 205.076054 196.916261 
L 211.983598 195.388604 
L 218.891141 193.417872 
L 225.798685 191.375737 
L 232.706228 190.11455 
L 239.613772 189.687972 
L 246.521315 190.11455 
L 253.428859 178.931013 
L 260.336402 189.258246 
L 267.243946 184.779874 
L 274.151489 188.825336 
L 281.059033 187.949826 
L 287.966576 180.942282 
L 294.87412 185.243095 
L 301.781663 184.779874 
L 308.689207 180.44545 
L 315.59675 183.842701 
L 322.504294 186.159009 
L 329.411838 185.702793 
L 336.319381 186.159009 
L 343.226925 182.890942 
L 350.134468 181.924254 
L 357.042012 180.942282 
L 363.949555 179.94466 
L 370.857099 178.931013 
L 377.764642 177.90095 
L 384.672186 176.854071 
L 391.579729 175.789958 
L 398.487273 174.708184 
" style="fill:none;stroke:#2ca02c;stroke-dasharray:1.5,2.475;stroke-dashoffset:0;stroke-width:1.5;"/>
    <defs>
     <path d="M -0.49999 0.49999 
L 0.50001 0.49999 
L 0.50001 -0.50001 
L -0.49999 -0.50001 
z
" id="mb043a6df43"/>
    </defs>
    <g clip-path="url(#p541212b470)">
     <use style="fill:#2ca02c;" x="73.832727" xlink:href="#mb043a6df43" y="293.298661"/>
     <use style="fill:#2ca02c;" x="80.740271" xlink:href="#mb043a6df43" y="281.852354"/>
     <use style="fill:#2ca02c;" x="87.647814" xlink:href="#mb043a6df43" y="271.48732"/>
     <use style="fill:#2ca02c;" x="94.555358" xlink:href="#mb043a6df43" y="259.901451"/>
     <use style="fill:#2ca02c;" x="101.462901" xlink:href="#mb043a6df43" y="254.215923"/>
     <use style="fill:#2ca02c;" x="108.370445" xlink:href="#mb043a6df43" y="245.693419"/>
     <use style="fill:#2ca02c;" x="115.277988" xlink:href="#mb043a6df43" y="237.432311"/>
     <use style="fill:#2ca02c;" x="122.185532" xlink:href="#mb043a6df43" y="229.446479"/>
     <use style="fill:#2ca02c;" x="129.093075" xlink:href="#mb043a6df43" y="218.641064"/>
     <use style="fill:#2ca02c;" x="136.000619" xlink:href="#mb043a6df43" y="216.663602"/>
     <use style="fill:#2ca02c;" x="142.908162" xlink:href="#mb043a6df43" y="213.252336"/>
     <use style="fill:#2ca02c;" x="149.815706" xlink:href="#mb043a6df43" y="213.523948"/>
     <use style="fill:#2ca02c;" x="156.72325" xlink:href="#mb043a6df43" y="211.30551"/>
     <use style="fill:#2ca02c;" x="163.630793" xlink:href="#mb043a6df43" y="209.570664"/>
     <use style="fill:#2ca02c;" x="170.538337" xlink:href="#mb043a6df43" y="209.570664"/>
     <use style="fill:#2ca02c;" x="177.44588" xlink:href="#mb043a6df43" y="205.903332"/>
     <use style="fill:#2ca02c;" x="184.353424" xlink:href="#mb043a6df43" y="195.388604"/>
     <use style="fill:#2ca02c;" x="191.260967" xlink:href="#mb043a6df43" y="195.77451"/>
     <use style="fill:#2ca02c;" x="198.168511" xlink:href="#mb043a6df43" y="199.130332"/>
     <use style="fill:#2ca02c;" x="205.076054" xlink:href="#mb043a6df43" y="196.916261"/>
     <use style="fill:#2ca02c;" x="211.983598" xlink:href="#mb043a6df43" y="195.388604"/>
     <use style="fill:#2ca02c;" x="218.891141" xlink:href="#mb043a6df43" y="193.417872"/>
     <use style="fill:#2ca02c;" x="225.798685" xlink:href="#mb043a6df43" y="191.375737"/>
     <use style="fill:#2ca02c;" x="232.706228" xlink:href="#mb043a6df43" y="190.11455"/>
     <use style="fill:#2ca02c;" x="239.613772" xlink:href="#mb043a6df43" y="189.687972"/>
     <use style="fill:#2ca02c;" x="246.521315" xlink:href="#mb043a6df43" y="190.11455"/>
     <use style="fill:#2ca02c;" x="253.428859" xlink:href="#mb043a6df43" y="178.931013"/>
     <use style="fill:#2ca02c;" x="260.336402" xlink:href="#mb043a6df43" y="189.258246"/>
     <use style="fill:#2ca02c;" x="267.243946" xlink:href="#mb043a6df43" y="184.779874"/>
     <use style="fill:#2ca02c;" x="274.151489" xlink:href="#mb043a6df43" y="188.825336"/>
     <use style="fill:#2ca02c;" x="281.059033" xlink:href="#mb043a6df43" y="187.949826"/>
     <use style="fill:#2ca02c;" x="287.966576" xlink:href="#mb043a6df43" y="180.942282"/>
     <use style="fill:#2ca02c;" x="294.87412" xlink:href="#mb043a6df43" y="185.243095"/>
     <use style="fill:#2ca02c;" x="301.781663" xlink:href="#mb043a6df43" y="184.779874"/>
     <use style="fill:#2ca02c;" x="308.689207" xlink:href="#mb043a6df43" y="180.44545"/>
     <use style="fill:#2ca02c;" x="315.59675" xlink:href="#mb043a6df43" y="183.842701"/>
     <use style="fill:#2ca02c;" x="322.504294" xlink:href="#mb043a6df43" y="186.159009"/>
     <use style="fill:#2ca02c;" x="329.411838" xlink:href="#mb043a6df43" y="185.702793"/>
     <use style="fill:#2ca02c;" x="336.319381" xlink:href="#mb043a6df43" y="186.159009"/>
     <use style="fill:#2ca02c;" x="343.226925" xlink:href="#mb043a6df43" y="182.890942"/>
     <use style="fill:#2ca02c;" x="350.134468" xlink:href="#mb043a6df43" y="181.924254"/>
     <use style="fill:#2ca02c;" x="357.042012" xlink:href="#mb043a6df43" y="180.942282"/>
     <use style="fill:#2ca02c;" x="363.949555" xlink:href="#mb043a6df43" y="179.94466"/>
     <use style="fill:#2ca02c;" x="370.857099" xlink:href="#mb043a6df43" y="178.931013"/>
     <use style="fill:#2ca02c;" x="377.764642" xlink:href="#mb043a6df43" y="177.90095"/>
     <use style="fill:#2ca02c;" x="384.672186" xlink:href="#mb043a6df43" y="176.854071"/>
     <use style="fill:#2ca02c;" x="391.579729" xlink:href="#mb043a6df43" y="175.789958"/>
     <use style="fill:#2ca02c;" x="398.487273" xlink:href="#mb043a6df43" y="174.708184"/>
    </g>
   </g>
   <g id="line2d_34">
    <path clip-path="url(#p541212b470)" d="M 73.832727 295.393979 
L 80.740271 285.172892 
L 87.647814 275.686079 
L 94.555358 270.609802 
L 101.462901 263.855417 
L 108.370445 261.649069 
L 115.277988 260.457248 
L 122.185532 259.199821 
L 129.093075 257.411481 
L 136.000619 253.930606 
L 142.908162 256.942902 
L 149.815706 251.123448 
L 156.72325 254.974868 
L 163.630793 257.411481 
L 170.538337 254.458011 
L 177.44588 251.123448 
L 184.353424 234.074906 
L 191.260967 244.494497 
L 198.168511 240.542622 
L 205.076054 216.373788 
L 211.983598 217.921546 
L 218.891141 228.615145 
L 225.798685 234.074906 
L 232.706228 230.895398 
L 239.613772 235.075862 
L 246.521315 222.260342 
L 253.428859 203.805994 
L 260.336402 229.772289 
L 267.243946 217.921546 
L 274.151489 223.6133 
L 281.059033 229.772289 
L 287.966576 229.772289 
L 294.87412 227.422398 
L 301.781663 217.921546 
L 308.689207 216.373788 
L 315.59675 205.812617 
L 322.504294 217.921546 
L 329.411838 220.862286 
L 336.319381 216.373788 
L 343.226925 207.742062 
L 350.134468 201.717469 
L 357.042012 197.273798 
L 363.949555 174.941501 
L 370.857099 184.31309 
L 377.764642 187.146361 
L 384.672186 178.221557 
L 391.579729 171.488811 
L 398.487273 167.849488 
" style="fill:none;stroke:#d62728;stroke-dasharray:9.6,2.4,1.5,2.4;stroke-dashoffset:0;stroke-width:1.5;"/>
    <defs>
     <path d="M 0 1.5 
C 0.397805 1.5 0.77937 1.341951 1.06066 1.06066 
C 1.341951 0.77937 1.5 0.397805 1.5 0 
C 1.5 -0.397805 1.341951 -0.77937 1.06066 -1.06066 
C 0.77937 -1.341951 0.397805 -1.5 0 -1.5 
C -0.397805 -1.5 -0.77937 -1.341951 -1.06066 -1.06066 
C -1.341951 -0.77937 -1.5 -0.397805 -1.5 0 
C -1.5 0.397805 -1.341951 0.77937 -1.06066 1.06066 
C -0.77937 1.341951 -0.397805 1.5 0 1.5 
z
" id="m13daf72d90" style="stroke:#d62728;"/>
    </defs>
    <g clip-path="url(#p541212b470)">
     <use style="fill:#d62728;stroke:#d62728;" x="73.832727" xlink:href="#m13daf72d90" y="295.393979"/>
     <use style="fill:#d62728;stroke:#d62728;" x="80.740271" xlink:href="#m13daf72d90" y="285.172892"/>
     <use style="fill:#d62728;stroke:#d62728;" x="87.647814" xlink:href="#m13daf72d90" y="275.686079"/>
     <use style="fill:#d62728;stroke:#d62728;" x="94.555358" xlink:href="#m13daf72d90" y="270.609802"/>
     <use style="fill:#d62728;stroke:#d62728;" x="101.462901" xlink:href="#m13daf72d90" y="263.855417"/>
     <use style="fill:#d62728;stroke:#d62728;" x="108.370445" xlink:href="#m13daf72d90" y="261.649069"/>
     <use style="fill:#d62728;stroke:#d62728;" x="115.277988" xlink:href="#m13daf72d90" y="260.457248"/>
     <use style="fill:#d62728;stroke:#d62728;" x="122.185532" xlink:href="#m13daf72d90" y="259.199821"/>
     <use style="fill:#d62728;stroke:#d62728;" x="129.093075" xlink:href="#m13daf72d90" y="257.411481"/>
     <use style="fill:#d62728;stroke:#d62728;" x="136.000619" xlink:href="#m13daf72d90" y="253.930606"/>
     <use style="fill:#d62728;stroke:#d62728;" x="142.908162" xlink:href="#m13daf72d90" y="256.942902"/>
     <use style="fill:#d62728;stroke:#d62728;" x="149.815706" xlink:href="#m13daf72d90" y="251.123448"/>
     <use style="fill:#d62728;stroke:#d62728;" x="156.72325" xlink:href="#m13daf72d90" y="254.974868"/>
     <use style="fill:#d62728;stroke:#d62728;" x="163.630793" xlink:href="#m13daf72d90" y="257.411481"/>
     <use style="fill:#d62728;stroke:#d62728;" x="170.538337" xlink:href="#m13daf72d90" y="254.458011"/>
     <use style="fill:#d62728;stroke:#d62728;" x="177.44588" xlink:href="#m13daf72d90" y="251.123448"/>
     <use style="fill:#d62728;stroke:#d62728;" x="184.353424" xlink:href="#m13daf72d90" y="234.074906"/>
     <use style="fill:#d62728;stroke:#d62728;" x="191.260967" xlink:href="#m13daf72d90" y="244.494497"/>
     <use style="fill:#d62728;stroke:#d62728;" x="198.168511" xlink:href="#m13daf72d90" y="240.542622"/>
     <use style="fill:#d62728;stroke:#d62728;" x="205.076054" xlink:href="#m13daf72d90" y="216.373788"/>
     <use style="fill:#d62728;stroke:#d62728;" x="211.983598" xlink:href="#m13daf72d90" y="217.921546"/>
     <use style="fill:#d62728;stroke:#d62728;" x="218.891141" xlink:href="#m13daf72d90" y="228.615145"/>
     <use style="fill:#d62728;stroke:#d62728;" x="225.798685" xlink:href="#m13daf72d90" y="234.074906"/>
     <use style="fill:#d62728;stroke:#d62728;" x="232.706228" xlink:href="#m13daf72d90" y="230.895398"/>
     <use style="fill:#d62728;stroke:#d62728;" x="239.613772" xlink:href="#m13daf72d90" y="235.075862"/>
     <use style="fill:#d62728;stroke:#d62728;" x="246.521315" xlink:href="#m13daf72d90" y="222.260342"/>
     <use style="fill:#d62728;stroke:#d62728;" x="253.428859" xlink:href="#m13daf72d90" y="203.805994"/>
     <use style="fill:#d62728;stroke:#d62728;" x="260.336402" xlink:href="#m13daf72d90" y="229.772289"/>
     <use style="fill:#d62728;stroke:#d62728;" x="267.243946" xlink:href="#m13daf72d90" y="217.921546"/>
     <use style="fill:#d62728;stroke:#d62728;" x="274.151489" xlink:href="#m13daf72d90" y="223.6133"/>
     <use style="fill:#d62728;stroke:#d62728;" x="281.059033" xlink:href="#m13daf72d90" y="229.772289"/>
     <use style="fill:#d62728;stroke:#d62728;" x="287.966576" xlink:href="#m13daf72d90" y="229.772289"/>
     <use style="fill:#d62728;stroke:#d62728;" x="294.87412" xlink:href="#m13daf72d90" y="227.422398"/>
     <use style="fill:#d62728;stroke:#d62728;" x="301.781663" xlink:href="#m13daf72d90" y="217.921546"/>
     <use style="fill:#d62728;stroke:#d62728;" x="308.689207" xlink:href="#m13daf72d90" y="216.373788"/>
     <use style="fill:#d62728;stroke:#d62728;" x="315.59675" xlink:href="#m13daf72d90" y="205.812617"/>
     <use style="fill:#d62728;stroke:#d62728;" x="322.504294" xlink:href="#m13daf72d90" y="217.921546"/>
     <use style="fill:#d62728;stroke:#d62728;" x="329.411838" xlink:href="#m13daf72d90" y="220.862286"/>
     <use style="fill:#d62728;stroke:#d62728;" x="336.319381" xlink:href="#m13daf72d90" y="216.373788"/>
     <use style="fill:#d62728;stroke:#d62728;" x="343.226925" xlink:href="#m13daf72d90" y="207.742062"/>
     <use style="fill:#d62728;stroke:#d62728;" x="350.134468" xlink:href="#m13daf72d90" y="201.717469"/>
     <use style="fill:#d62728;stroke:#d62728;" x="357.042012" xlink:href="#m13daf72d90" y="197.273798"/>
     <use style="fill:#d62728;stroke:#d62728;" x="363.949555" xlink:href="#m13daf72d90" y="174.941501"/>
     <use style="fill:#d62728;stroke:#d62728;" x="370.857099" xlink:href="#m13daf72d90" y="184.31309"/>
     <use style="fill:#d62728;stroke:#d62728;" x="377.764642" xlink:href="#m13daf72d90" y="187.146361"/>
     <use style="fill:#d62728;stroke:#d62728;" x="384.672186" xlink:href="#m13daf72d90" y="178.221557"/>
     <use style="fill:#d62728;stroke:#d62728;" x="391.579729" xlink:href="#m13daf72d90" y="171.488811"/>
     <use style="fill:#d62728;stroke:#d62728;" x="398.487273" xlink:href="#m13daf72d90" y="167.849488"/>
    </g>
   </g>
   <g id="line2d_35">
    <path clip-path="url(#p541212b470)" d="M 73.832727 295.488 
L 80.740271 285.145556 
L 87.647814 275.107962 
L 94.555358 265.45374 
L 101.462901 256.23721 
L 108.370445 247.025157 
L 115.277988 238.753685 
L 122.185532 230.185756 
L 129.093075 222.065755 
L 136.000619 213.957344 
L 142.908162 206.250442 
L 149.815706 198.459804 
L 156.72325 191.717163 
L 163.630793 184.31309 
L 170.538337 177.235791 
L 177.44588 169.885776 
L 184.353424 163.307805 
L 191.260967 157.498688 
L 198.168511 151.197028 
L 205.076054 145.175782 
L 211.983598 139.565639 
L 218.891141 133.069557 
L 225.798685 128.110411 
L 232.706228 121.770945 
L 239.613772 116.711936 
L 246.521315 114.373271 
L 253.428859 111.97614 
L 260.336402 109.518323 
L 267.243946 106.997484 
L 274.151489 104.411169 
L 281.059033 101.756793 
L 287.966576 103.75406 
L 294.87412 99.719714 
L 301.781663 96.232821 
L 308.689207 94.083563 
L 315.59675 88.893279 
L 322.504294 85.027612 
L 329.411838 82.641467 
L 336.319381 79.37866 
L 343.226925 76.019177 
L 350.134468 72.558657 
L 357.042012 70.789073 
L 363.949555 67.168232 
L 370.857099 64.378635 
L 377.764642 60.556262 
L 384.672186 58.599389 
L 391.579729 55.604901 
L 398.487273 53.568 
" style="fill:none;stroke:#9467bd;stroke-linecap:square;stroke-width:1.5;"/>
   </g>
   <g id="line2d_36">
    <path clip-path="url(#p541212b470)" d="M 73.832727 293.589113 
L 80.740271 282.453049 
L 87.647814 271.720028 
L 94.555358 261.419532 
L 101.462901 252.967287 
L 108.370445 244.025705 
L 115.277988 235.241802 
L 122.185532 226.104035 
L 129.093075 219.490585 
L 136.000619 215.06627 
L 142.908162 205.792522 
L 149.815706 201.577624 
L 156.72325 195.921593 
L 163.630793 185.315706 
L 170.538337 178.472825 
L 177.44588 170.904237 
L 184.353424 165.627407 
L 191.260967 176.124654 
L 198.168511 164.934355 
L 205.076054 162.237217 
L 211.983598 147.395734 
L 218.891141 154.70125 
L 225.798685 152.052229 
L 232.706228 138.960074 
L 239.613772 153.652646 
L 246.521315 163.563049 
L 253.428859 148.445019 
L 260.336402 150.882336 
L 267.243946 158.107531 
L 274.151489 168.299721 
L 281.059033 148.096802 
L 287.966576 142.636014 
L 294.87412 142.30853 
L 301.781663 154.098053 
L 308.689207 150.798092 
L 315.59675 138.224662 
L 322.504294 139.64067 
L 329.411838 150.290703 
L 336.319381 136.984491 
L 343.226925 135.319141 
L 350.134468 144.664875 
L 357.042012 143.702873 
L 363.949555 142.72934 
L 370.857099 128.426776 
L 377.764642 140.123428 
L 384.672186 130.336538 
L 391.579729 125.966252 
L 398.487273 128.150561 
" style="fill:none;stroke:#8c564b;stroke-dasharray:5.55,2.4;stroke-dashoffset:0;stroke-width:1.5;"/>
    <defs>
     <path d="M -0.49999 0.49999 
L 0.50001 0.49999 
L 0.50001 -0.50001 
L -0.49999 -0.50001 
z
" id="mb18e14ea3a"/>
    </defs>
    <g clip-path="url(#p541212b470)">
     <use style="fill:#8c564b;" x="73.832727" xlink:href="#mb18e14ea3a" y="293.589113"/>
     <use style="fill:#8c564b;" x="80.740271" xlink:href="#mb18e14ea3a" y="282.453049"/>
     <use style="fill:#8c564b;" x="87.647814" xlink:href="#mb18e14ea3a" y="271.720028"/>
     <use style="fill:#8c564b;" x="94.555358" xlink:href="#mb18e14ea3a" y="261.419532"/>
     <use style="fill:#8c564b;" x="101.462901" xlink:href="#mb18e14ea3a" y="252.967287"/>
     <use style="fill:#8c564b;" x="108.370445" xlink:href="#mb18e14ea3a" y="244.025705"/>
     <use style="fill:#8c564b;" x="115.277988" xlink:href="#mb18e14ea3a" y="235.241802"/>
     <use style="fill:#8c564b;" x="122.185532" xlink:href="#mb18e14ea3a" y="226.104035"/>
     <use style="fill:#8c564b;" x="129.093075" xlink:href="#mb18e14ea3a" y="219.490585"/>
     <use style="fill:#8c564b;" x="136.000619" xlink:href="#mb18e14ea3a" y="215.06627"/>
     <use style="fill:#8c564b;" x="142.908162" xlink:href="#mb18e14ea3a" y="205.792522"/>
     <use style="fill:#8c564b;" x="149.815706" xlink:href="#mb18e14ea3a" y="201.577624"/>
     <use style="fill:#8c564b;" x="156.72325" xlink:href="#mb18e14ea3a" y="195.921593"/>
     <use style="fill:#8c564b;" x="163.630793" xlink:href="#mb18e14ea3a" y="185.315706"/>
     <use style="fill:#8c564b;" x="170.538337" xlink:href="#mb18e14ea3a" y="178.472825"/>
     <use style="fill:#8c564b;" x="177.44588" xlink:href="#mb18e14ea3a" y="170.904237"/>
     <use style="fill:#8c564b;" x="184.353424" xlink:href="#mb18e14ea3a" y="165.627407"/>
     <use style="fill:#8c564b;" x="191.260967" xlink:href="#mb18e14ea3a" y="176.124654"/>
     <use style="fill:#8c564b;" x="198.168511" xlink:href="#mb18e14ea3a" y="164.934355"/>
     <use style="fill:#8c564b;" x="205.076054" xlink:href="#mb18e14ea3a" y="162.237217"/>
     <use style="fill:#8c564b;" x="211.983598" xlink:href="#mb18e14ea3a" y="147.395734"/>
     <use style="fill:#8c564b;" x="218.891141" xlink:href="#mb18e14ea3a" y="154.70125"/>
     <use style="fill:#8c564b;" x="225.798685" xlink:href="#mb18e14ea3a" y="152.052229"/>
     <use style="fill:#8c564b;" x="232.706228" xlink:href="#mb18e14ea3a" y="138.960074"/>
     <use style="fill:#8c564b;" x="239.613772" xlink:href="#mb18e14ea3a" y="153.652646"/>
     <use style="fill:#8c564b;" x="246.521315" xlink:href="#mb18e14ea3a" y="163.563049"/>
     <use style="fill:#8c564b;" x="253.428859" xlink:href="#mb18e14ea3a" y="148.445019"/>
     <use style="fill:#8c564b;" x="260.336402" xlink:href="#mb18e14ea3a" y="150.882336"/>
     <use style="fill:#8c564b;" x="267.243946" xlink:href="#mb18e14ea3a" y="158.107531"/>
     <use style="fill:#8c564b;" x="274.151489" xlink:href="#mb18e14ea3a" y="168.299721"/>
     <use style="fill:#8c564b;" x="281.059033" xlink:href="#mb18e14ea3a" y="148.096802"/>
     <use style="fill:#8c564b;" x="287.966576" xlink:href="#mb18e14ea3a" y="142.636014"/>
     <use style="fill:#8c564b;" x="294.87412" xlink:href="#mb18e14ea3a" y="142.30853"/>
     <use style="fill:#8c564b;" x="301.781663" xlink:href="#mb18e14ea3a" y="154.098053"/>
     <use style="fill:#8c564b;" x="308.689207" xlink:href="#mb18e14ea3a" y="150.798092"/>
     <use style="fill:#8c564b;" x="315.59675" xlink:href="#mb18e14ea3a" y="138.224662"/>
     <use style="fill:#8c564b;" x="322.504294" xlink:href="#mb18e14ea3a" y="139.64067"/>
     <use style="fill:#8c564b;" x="329.411838" xlink:href="#mb18e14ea3a" y="150.290703"/>
     <use style="fill:#8c564b;" x="336.319381" xlink:href="#mb18e14ea3a" y="136.984491"/>
     <use style="fill:#8c564b;" x="343.226925" xlink:href="#mb18e14ea3a" y="135.319141"/>
     <use style="fill:#8c564b;" x="350.134468" xlink:href="#mb18e14ea3a" y="144.664875"/>
     <use style="fill:#8c564b;" x="357.042012" xlink:href="#mb18e14ea3a" y="143.702873"/>
     <use style="fill:#8c564b;" x="363.949555" xlink:href="#mb18e14ea3a" y="142.72934"/>
     <use style="fill:#8c564b;" x="370.857099" xlink:href="#mb18e14ea3a" y="128.426776"/>
     <use style="fill:#8c564b;" x="377.764642" xlink:href="#mb18e14ea3a" y="140.123428"/>
     <use style="fill:#8c564b;" x="384.672186" xlink:href="#mb18e14ea3a" y="130.336538"/>
     <use style="fill:#8c564b;" x="391.579729" xlink:href="#mb18e14ea3a" y="125.966252"/>
     <use style="fill:#8c564b;" x="398.487273" xlink:href="#mb18e14ea3a" y="128.150561"/>
    </g>
   </g>
   <g id="line2d_37">
    <path clip-path="url(#p541212b470)" d="M 73.832727 293.05803 
L 80.740271 282.472296 
L 87.647814 273.076097 
L 94.555358 265.134592 
L 101.462901 258.090116 
L 108.370445 249.311088 
L 115.277988 246.755541 
L 122.185532 241.669156 
L 129.093075 237.949751 
L 136.000619 229.164994 
L 142.908162 230.376488 
L 149.815706 225.417549 
L 156.72325 216.96385 
L 163.630793 220.813526 
L 170.538337 213.561516 
L 177.44588 210.414076 
L 184.353424 213.085255 
L 191.260967 210.765855 
L 198.168511 202.196294 
L 205.076054 199.236472 
L 211.983598 199.198168 
L 218.891141 195.818443 
L 225.798685 194.976108 
L 232.706228 194.41434 
L 239.613772 194.099787 
L 246.521315 192.087534 
L 253.428859 190.137097 
L 260.336402 190.675619 
L 267.243946 190.720271 
L 274.151489 187.225377 
L 281.059033 199.731943 
L 287.966576 188.514147 
L 294.87412 179.693796 
L 301.781663 180.545132 
L 308.689207 188.258633 
L 315.59675 189.365535 
L 322.504294 188.072105 
L 329.411838 179.586567 
L 336.319381 177.90095 
L 343.226925 181.489285 
L 350.134468 174.71041 
L 357.042012 174.187466 
L 363.949555 176.367613 
L 370.857099 173.424713 
L 377.764642 172.712764 
L 384.672186 172.533582 
L 391.579729 184.734306 
L 398.487273 173.807188 
" style="fill:none;stroke:#e377c2;stroke-dasharray:1.5,2.475;stroke-dashoffset:0;stroke-width:1.5;"/>
    <defs>
     <path d="M 0 1.5 
C 0.397805 1.5 0.77937 1.341951 1.06066 1.06066 
C 1.341951 0.77937 1.5 0.397805 1.5 0 
C 1.5 -0.397805 1.341951 -0.77937 1.06066 -1.06066 
C 0.77937 -1.341951 0.397805 -1.5 0 -1.5 
C -0.397805 -1.5 -0.77937 -1.341951 -1.06066 -1.06066 
C -1.341951 -0.77937 -1.5 -0.397805 -1.5 0 
C -1.5 0.397805 -1.341951 0.77937 -1.06066 1.06066 
C -0.77937 1.341951 -0.397805 1.5 0 1.5 
z
" id="mcf26b4b24a" style="stroke:#e377c2;"/>
    </defs>
    <g clip-path="url(#p541212b470)">
     <use style="fill:#e377c2;stroke:#e377c2;" x="73.832727" xlink:href="#mcf26b4b24a" y="293.05803"/>
     <use style="fill:#e377c2;stroke:#e377c2;" x="80.740271" xlink:href="#mcf26b4b24a" y="282.472296"/>
     <use style="fill:#e377c2;stroke:#e377c2;" x="87.647814" xlink:href="#mcf26b4b24a" y="273.076097"/>
     <use style="fill:#e377c2;stroke:#e377c2;" x="94.555358" xlink:href="#mcf26b4b24a" y="265.134592"/>
     <use style="fill:#e377c2;stroke:#e377c2;" x="101.462901" xlink:href="#mcf26b4b24a" y="258.090116"/>
     <use style="fill:#e377c2;stroke:#e377c2;" x="108.370445" xlink:href="#mcf26b4b24a" y="249.311088"/>
     <use style="fill:#e377c2;stroke:#e377c2;" x="115.277988" xlink:href="#mcf26b4b24a" y="246.755541"/>
     <use style="fill:#e377c2;stroke:#e377c2;" x="122.185532" xlink:href="#mcf26b4b24a" y="241.669156"/>
     <use style="fill:#e377c2;stroke:#e377c2;" x="129.093075" xlink:href="#mcf26b4b24a" y="237.949751"/>
     <use style="fill:#e377c2;stroke:#e377c2;" x="136.000619" xlink:href="#mcf26b4b24a" y="229.164994"/>
     <use style="fill:#e377c2;stroke:#e377c2;" x="142.908162" xlink:href="#mcf26b4b24a" y="230.376488"/>
     <use style="fill:#e377c2;stroke:#e377c2;" x="149.815706" xlink:href="#mcf26b4b24a" y="225.417549"/>
     <use style="fill:#e377c2;stroke:#e377c2;" x="156.72325" xlink:href="#mcf26b4b24a" y="216.96385"/>
     <use style="fill:#e377c2;stroke:#e377c2;" x="163.630793" xlink:href="#mcf26b4b24a" y="220.813526"/>
     <use style="fill:#e377c2;stroke:#e377c2;" x="170.538337" xlink:href="#mcf26b4b24a" y="213.561516"/>
     <use style="fill:#e377c2;stroke:#e377c2;" x="177.44588" xlink:href="#mcf26b4b24a" y="210.414076"/>
     <use style="fill:#e377c2;stroke:#e377c2;" x="184.353424" xlink:href="#mcf26b4b24a" y="213.085255"/>
     <use style="fill:#e377c2;stroke:#e377c2;" x="191.260967" xlink:href="#mcf26b4b24a" y="210.765855"/>
     <use style="fill:#e377c2;stroke:#e377c2;" x="198.168511" xlink:href="#mcf26b4b24a" y="202.196294"/>
     <use style="fill:#e377c2;stroke:#e377c2;" x="205.076054" xlink:href="#mcf26b4b24a" y="199.236472"/>
     <use style="fill:#e377c2;stroke:#e377c2;" x="211.983598" xlink:href="#mcf26b4b24a" y="199.198168"/>
     <use style="fill:#e377c2;stroke:#e377c2;" x="218.891141" xlink:href="#mcf26b4b24a" y="195.818443"/>
     <use style="fill:#e377c2;stroke:#e377c2;" x="225.798685" xlink:href="#mcf26b4b24a" y="194.976108"/>
     <use style="fill:#e377c2;stroke:#e377c2;" x="232.706228" xlink:href="#mcf26b4b24a" y="194.41434"/>
     <use style="fill:#e377c2;stroke:#e377c2;" x="239.613772" xlink:href="#mcf26b4b24a" y="194.099787"/>
     <use style="fill:#e377c2;stroke:#e377c2;" x="246.521315" xlink:href="#mcf26b4b24a" y="192.087534"/>
     <use style="fill:#e377c2;stroke:#e377c2;" x="253.428859" xlink:href="#mcf26b4b24a" y="190.137097"/>
     <use style="fill:#e377c2;stroke:#e377c2;" x="260.336402" xlink:href="#mcf26b4b24a" y="190.675619"/>
     <use style="fill:#e377c2;stroke:#e377c2;" x="267.243946" xlink:href="#mcf26b4b24a" y="190.720271"/>
     <use style="fill:#e377c2;stroke:#e377c2;" x="274.151489" xlink:href="#mcf26b4b24a" y="187.225377"/>
     <use style="fill:#e377c2;stroke:#e377c2;" x="281.059033" xlink:href="#mcf26b4b24a" y="199.731943"/>
     <use style="fill:#e377c2;stroke:#e377c2;" x="287.966576" xlink:href="#mcf26b4b24a" y="188.514147"/>
     <use style="fill:#e377c2;stroke:#e377c2;" x="294.87412" xlink:href="#mcf26b4b24a" y="179.693796"/>
     <use style="fill:#e377c2;stroke:#e377c2;" x="301.781663" xlink:href="#mcf26b4b24a" y="180.545132"/>
     <use style="fill:#e377c2;stroke:#e377c2;" x="308.689207" xlink:href="#mcf26b4b24a" y="188.258633"/>
     <use style="fill:#e377c2;stroke:#e377c2;" x="315.59675" xlink:href="#mcf26b4b24a" y="189.365535"/>
     <use style="fill:#e377c2;stroke:#e377c2;" x="322.504294" xlink:href="#mcf26b4b24a" y="188.072105"/>
     <use style="fill:#e377c2;stroke:#e377c2;" x="329.411838" xlink:href="#mcf26b4b24a" y="179.586567"/>
     <use style="fill:#e377c2;stroke:#e377c2;" x="336.319381" xlink:href="#mcf26b4b24a" y="177.90095"/>
     <use style="fill:#e377c2;stroke:#e377c2;" x="343.226925" xlink:href="#mcf26b4b24a" y="181.489285"/>
     <use style="fill:#e377c2;stroke:#e377c2;" x="350.134468" xlink:href="#mcf26b4b24a" y="174.71041"/>
     <use style="fill:#e377c2;stroke:#e377c2;" x="357.042012" xlink:href="#mcf26b4b24a" y="174.187466"/>
     <use style="fill:#e377c2;stroke:#e377c2;" x="363.949555" xlink:href="#mcf26b4b24a" y="176.367613"/>
     <use style="fill:#e377c2;stroke:#e377c2;" x="370.857099" xlink:href="#mcf26b4b24a" y="173.424713"/>
     <use style="fill:#e377c2;stroke:#e377c2;" x="377.764642" xlink:href="#mcf26b4b24a" y="172.712764"/>
     <use style="fill:#e377c2;stroke:#e377c2;" x="384.672186" xlink:href="#mcf26b4b24a" y="172.533582"/>
     <use style="fill:#e377c2;stroke:#e377c2;" x="391.579729" xlink:href="#mcf26b4b24a" y="184.734306"/>
     <use style="fill:#e377c2;stroke:#e377c2;" x="398.487273" xlink:href="#mcf26b4b24a" y="173.807188"/>
    </g>
   </g>
   <g id="patch_3">
    <path d="M 57.6 307.584 
L 57.6 41.472 
" style="fill:none;stroke:#000000;stroke-linecap:square;stroke-linejoin:miter;stroke-width:0.8;"/>
   </g>
   <g id="patch_4">
    <path d="M 414.72 307.584 
L 414.72 41.472 
" style="fill:none;stroke:#000000;stroke-linecap:square;stroke-linejoin:miter;stroke-width:0.8;"/>
   </g>
   <g id="patch_5">
    <path d="M 57.6 307.584 
L 414.72 307.584 
" style="fill:none;stroke:#000000;stroke-linecap:square;stroke-linejoin:miter;stroke-width:0.8;"/>
   </g>
   <g id="patch_6">
    <path d="M 57.6 41.472 
L 414.72 41.472 
" style="fill:none;stroke:#000000;stroke-linecap:square;stroke-linejoin:miter;stroke-width:0.8;"/>
   </g>
   <g id="legend_1">
    <g id="patch_7">
     <path d="M 64.6 152.775125 
L 148.109375 152.775125 
Q 150.109375 152.775125 150.109375 150.775125 
L 150.109375 48.472 
Q 150.109375 46.472 148.109375 46.472 
L 64.6 46.472 
Q 62.6 46.472 62.6 48.472 
L 62.6 150.775125 
Q 62.6 152.775125 64.6 152.775125 
z
" style="fill:#ffffff;opacity:0.8;stroke:#cccccc;stroke-linejoin:miter;"/>
    </g>
    <g id="line2d_38">
     <path d="M 66.6 54.570438 
L 86.6 54.570438 
" style="fill:none;stroke:#1f77b4;stroke-linecap:square;stroke-width:1.5;"/>
    </g>
    <g id="line2d_39">
     <g>
      <use style="fill:#1f77b4;stroke:#1f77b4;" x="76.6" xlink:href="#m900268cb49" y="54.570438"/>
     </g>
    </g>
    <g id="text_18">
     <!-- sphere3 -->
     <g transform="translate(94.6 58.070438)scale(0.1 -0.1)">
      <use xlink:href="#DejaVuSans-115"/>
      <use x="52.099609" xlink:href="#DejaVuSans-112"/>
      <use x="115.576172" xlink:href="#DejaVuSans-104"/>
      <use x="178.955078" xlink:href="#DejaVuSans-101"/>
      <use x="240.478516" xlink:href="#DejaVuSans-114"/>
      <use x="279.341797" xlink:href="#DejaVuSans-101"/>
      <use x="340.865234" xlink:href="#DejaVuSans-51"/>
     </g>
    </g>
    <g id="line2d_40">
     <path d="M 66.6 69.248563 
L 86.6 69.248563 
" style="fill:none;stroke:#ff7f0e;stroke-dasharray:5.55,2.4;stroke-dashoffset:0;stroke-width:1.5;"/>
    </g>
    <g id="line2d_41"/>
    <g id="text_19">
     <!-- dragon -->
     <defs>
      <path d="M 45.40625 27.984375 
Q 45.40625 37.75 41.375 43.109375 
Q 37.359375 48.484375 30.078125 48.484375 
Q 22.859375 48.484375 18.828125 43.109375 
Q 14.796875 37.75 14.796875 27.984375 
Q 14.796875 18.265625 18.828125 12.890625 
Q 22.859375 7.515625 30.078125 7.515625 
Q 37.359375 7.515625 41.375 12.890625 
Q 45.40625 18.265625 45.40625 27.984375 
z
M 54.390625 6.78125 
Q 54.390625 -7.171875 48.1875 -13.984375 
Q 42 -20.796875 29.203125 -20.796875 
Q 24.46875 -20.796875 20.265625 -20.09375 
Q 16.0625 -19.390625 12.109375 -17.921875 
L 12.109375 -9.1875 
Q 16.0625 -11.328125 19.921875 -12.34375 
Q 23.78125 -13.375 27.78125 -13.375 
Q 36.625 -13.375 41.015625 -8.765625 
Q 45.40625 -4.15625 45.40625 5.171875 
L 45.40625 9.625 
Q 42.625 4.78125 38.28125 2.390625 
Q 33.9375 0 27.875 0 
Q 17.828125 0 11.671875 7.65625 
Q 5.515625 15.328125 5.515625 27.984375 
Q 5.515625 40.671875 11.671875 48.328125 
Q 17.828125 56 27.875 56 
Q 33.9375 56 38.28125 53.609375 
Q 42.625 51.21875 45.40625 46.390625 
L 45.40625 54.6875 
L 54.390625 54.6875 
z
" id="DejaVuSans-103"/>
     </defs>
     <g transform="translate(94.6 72.748563)scale(0.1 -0.1)">
      <use xlink:href="#DejaVuSans-100"/>
      <use x="63.476562" xlink:href="#DejaVuSans-114"/>
      <use x="104.589844" xlink:href="#DejaVuSans-97"/>
      <use x="165.869141" xlink:href="#DejaVuSans-103"/>
      <use x="229.345703" xlink:href="#DejaVuSans-111"/>
      <use x="290.527344" xlink:href="#DejaVuSans-110"/>
     </g>
    </g>
    <g id="line2d_42">
     <path d="M 66.6 83.926688 
L 86.6 83.926688 
" style="fill:none;stroke:#2ca02c;stroke-dasharray:1.5,2.475;stroke-dashoffset:0;stroke-width:1.5;"/>
    </g>
    <g id="line2d_43">
     <g>
      <use style="fill:#2ca02c;" x="76.6" xlink:href="#mb043a6df43" y="83.926688"/>
     </g>
    </g>
    <g id="text_20">
     <!-- o3_1024 -->
     <defs>
      <path d="M 50.984375 -16.609375 
L 50.984375 -23.578125 
L -0.984375 -23.578125 
L -0.984375 -16.609375 
z
" id="DejaVuSans-95"/>
     </defs>
     <g transform="translate(94.6 87.426688)scale(0.1 -0.1)">
      <use xlink:href="#DejaVuSans-111"/>
      <use x="61.181641" xlink:href="#DejaVuSans-51"/>
      <use x="124.804688" xlink:href="#DejaVuSans-95"/>
      <use x="174.804688" xlink:href="#DejaVuSans-49"/>
      <use x="238.427734" xlink:href="#DejaVuSans-48"/>
      <use x="302.050781" xlink:href="#DejaVuSans-50"/>
      <use x="365.673828" xlink:href="#DejaVuSans-52"/>
     </g>
    </g>
    <g id="line2d_44">
     <path d="M 66.6 98.882938 
L 86.6 98.882938 
" style="fill:none;stroke:#d62728;stroke-dasharray:9.6,2.4,1.5,2.4;stroke-dashoffset:0;stroke-width:1.5;"/>
    </g>
    <g id="line2d_45">
     <g>
      <use style="fill:#d62728;stroke:#d62728;" x="76.6" xlink:href="#m13daf72d90" y="98.882938"/>
     </g>
    </g>
    <g id="text_21">
     <!-- random16 -->
     <defs>
      <path d="M 33.015625 40.375 
Q 26.375 40.375 22.484375 35.828125 
Q 18.609375 31.296875 18.609375 23.390625 
Q 18.609375 15.53125 22.484375 10.953125 
Q 26.375 6.390625 33.015625 6.390625 
Q 39.65625 6.390625 43.53125 10.953125 
Q 47.40625 15.53125 47.40625 23.390625 
Q 47.40625 31.296875 43.53125 35.828125 
Q 39.65625 40.375 33.015625 40.375 
z
M 52.59375 71.296875 
L 52.59375 62.3125 
Q 48.875 64.0625 45.09375 64.984375 
Q 41.3125 65.921875 37.59375 65.921875 
Q 27.828125 65.921875 22.671875 59.328125 
Q 17.53125 52.734375 16.796875 39.40625 
Q 19.671875 43.65625 24.015625 45.921875 
Q 28.375 48.1875 33.59375 48.1875 
Q 44.578125 48.1875 50.953125 41.515625 
Q 57.328125 34.859375 57.328125 23.390625 
Q 57.328125 12.15625 50.6875 5.359375 
Q 44.046875 -1.421875 33.015625 -1.421875 
Q 20.359375 -1.421875 13.671875 8.265625 
Q 6.984375 17.96875 6.984375 36.375 
Q 6.984375 53.65625 15.1875 63.9375 
Q 23.390625 74.21875 37.203125 74.21875 
Q 40.921875 74.21875 44.703125 73.484375 
Q 48.484375 72.75 52.59375 71.296875 
z
" id="DejaVuSans-54"/>
     </defs>
     <g transform="translate(94.6 102.382938)scale(0.1 -0.1)">
      <use xlink:href="#DejaVuSans-114"/>
      <use x="41.113281" xlink:href="#DejaVuSans-97"/>
      <use x="102.392578" xlink:href="#DejaVuSans-110"/>
      <use x="165.771484" xlink:href="#DejaVuSans-100"/>
      <use x="229.248047" xlink:href="#DejaVuSans-111"/>
      <use x="290.429688" xlink:href="#DejaVuSans-109"/>
      <use x="387.841797" xlink:href="#DejaVuSans-49"/>
      <use x="451.464844" xlink:href="#DejaVuSans-54"/>
     </g>
    </g>
    <g id="line2d_46">
     <path d="M 66.6 113.561063 
L 86.6 113.561063 
" style="fill:none;stroke:#9467bd;stroke-linecap:square;stroke-width:1.5;"/>
    </g>
    <g id="line2d_47"/>
    <g id="text_22">
     <!-- fractal -->
     <defs>
      <path d="M 48.78125 52.59375 
L 48.78125 44.1875 
Q 44.96875 46.296875 41.140625 47.34375 
Q 37.3125 48.390625 33.40625 48.390625 
Q 24.65625 48.390625 19.8125 42.84375 
Q 14.984375 37.3125 14.984375 27.296875 
Q 14.984375 17.28125 19.8125 11.734375 
Q 24.65625 6.203125 33.40625 6.203125 
Q 37.3125 6.203125 41.140625 7.25 
Q 44.96875 8.296875 48.78125 10.40625 
L 48.78125 2.09375 
Q 45.015625 0.34375 40.984375 -0.53125 
Q 36.96875 -1.421875 32.421875 -1.421875 
Q 20.0625 -1.421875 12.78125 6.34375 
Q 5.515625 14.109375 5.515625 27.296875 
Q 5.515625 40.671875 12.859375 48.328125 
Q 20.21875 56 33.015625 56 
Q 37.15625 56 41.109375 55.140625 
Q 45.0625 54.296875 48.78125 52.59375 
z
" id="DejaVuSans-99"/>
      <path d="M 9.421875 75.984375 
L 18.40625 75.984375 
L 18.40625 0 
L 9.421875 0 
z
" id="DejaVuSans-108"/>
     </defs>
     <g transform="translate(94.6 117.061063)scale(0.1 -0.1)">
      <use xlink:href="#DejaVuSans-102"/>
      <use x="35.205078" xlink:href="#DejaVuSans-114"/>
      <use x="76.318359" xlink:href="#DejaVuSans-97"/>
      <use x="137.597656" xlink:href="#DejaVuSans-99"/>
      <use x="192.578125" xlink:href="#DejaVuSans-116"/>
      <use x="231.787109" xlink:href="#DejaVuSans-97"/>
      <use x="293.066406" xlink:href="#DejaVuSans-108"/>
     </g>
    </g>
    <g id="line2d_48">
     <path d="M 66.6 128.239188 
L 86.6 128.239188 
" style="fill:none;stroke:#8c564b;stroke-dasharray:5.55,2.4;stroke-dashoffset:0;stroke-width:1.5;"/>
    </g>
    <g id="line2d_49">
     <g>
      <use style="fill:#8c564b;" x="76.6" xlink:href="#mb18e14ea3a" y="128.239188"/>
     </g>
    </g>
    <g id="text_23">
     <!-- o3_4096 -->
     <defs>
      <path d="M 10.984375 1.515625 
L 10.984375 10.5 
Q 14.703125 8.734375 18.5 7.8125 
Q 22.3125 6.890625 25.984375 6.890625 
Q 35.75 6.890625 40.890625 13.453125 
Q 46.046875 20.015625 46.78125 33.40625 
Q 43.953125 29.203125 39.59375 26.953125 
Q 35.25 24.703125 29.984375 24.703125 
Q 19.046875 24.703125 12.671875 31.3125 
Q 6.296875 37.9375 6.296875 49.421875 
Q 6.296875 60.640625 12.9375 67.421875 
Q 19.578125 74.21875 30.609375 74.21875 
Q 43.265625 74.21875 49.921875 64.515625 
Q 56.59375 54.828125 56.59375 36.375 
Q 56.59375 19.140625 48.40625 8.859375 
Q 40.234375 -1.421875 26.421875 -1.421875 
Q 22.703125 -1.421875 18.890625 -0.6875 
Q 15.09375 0.046875 10.984375 1.515625 
z
M 30.609375 32.421875 
Q 37.25 32.421875 41.125 36.953125 
Q 45.015625 41.5 45.015625 49.421875 
Q 45.015625 57.28125 41.125 61.84375 
Q 37.25 66.40625 30.609375 66.40625 
Q 23.96875 66.40625 20.09375 61.84375 
Q 16.21875 57.28125 16.21875 49.421875 
Q 16.21875 41.5 20.09375 36.953125 
Q 23.96875 32.421875 30.609375 32.421875 
z
" id="DejaVuSans-57"/>
     </defs>
     <g transform="translate(94.6 131.739188)scale(0.1 -0.1)">
      <use xlink:href="#DejaVuSans-111"/>
      <use x="61.181641" xlink:href="#DejaVuSans-51"/>
      <use x="124.804688" xlink:href="#DejaVuSans-95"/>
      <use x="174.804688" xlink:href="#DejaVuSans-52"/>
      <use x="238.427734" xlink:href="#DejaVuSans-48"/>
      <use x="302.050781" xlink:href="#DejaVuSans-57"/>
      <use x="365.673828" xlink:href="#DejaVuSans-54"/>
     </g>
    </g>
    <g id="line2d_50">
     <path d="M 66.6 143.195438 
L 86.6 143.195438 
" style="fill:none;stroke:#e377c2;stroke-dasharray:1.5,2.475;stroke-dashoffset:0;stroke-width:1.5;"/>
    </g>
    <g id="line2d_51">
     <g>
      <use style="fill:#e377c2;stroke:#e377c2;" x="76.6" xlink:href="#mcf26b4b24a" y="143.195438"/>
     </g>
    </g>
    <g id="text_24">
     <!-- torus4 -->
     <g transform="translate(94.6 146.695438)scale(0.1 -0.1)">
      <use xlink:href="#DejaVuSans-116"/>
      <use x="39.208984" xlink:href="#DejaVuSans-111"/>
      <use x="100.390625" xlink:href="#DejaVuSans-114"/>
      <use x="141.503906" xlink:href="#DejaVuSans-117"/>
      <use x="204.882812" xlink:href="#DejaVuSans-115"/>
      <use x="256.982422" xlink:href="#DejaVuSans-52"/>
     </g>
    </g>
   </g>
  </g>
 </g>
 <defs>
  <clipPath id="p541212b470">
   <rect height="266.112" width="357.12" x="57.6" y="41.472"/>
  </clipPath>
 </defs>
</svg>
